<svg xmlns="http://www.w3.org/2000/svg" height="270" width="768.0" version="1.1" y="0" x="0" preserveAspectRatio="none" xmlns:xlink="http://www.w3.org/1999/xlink" viewBox="0 -30 819.2 180"  >
<g  >
<line y1="60" x2="778.0" style="stroke:grey; stroke-width:2; " x1="10" y2="60"  />
</g>
<g id="a1_000"  >
<polygon style="stroke:black; stroke-width:1; fill:grey; " points="10,65 39,65 44,60 39,55 10,55 10,65 "  />
</g>
<g id="a1_001"  >
<polygon style="stroke:black; stroke-width:1; fill:grey; " points="43,60 48,55 59,55 59,65 48,65 43,60 "  />
</g>
<g id="a1_002"  >
<polygon style="stroke:black; stroke-width:1; fill:grey; " points="61,65 66,65 71,60 66,55 61,55 61,65 "  />
</g>
<g id="a1_003"  >
<polygon style="stroke:black; stroke-width:1; fill:grey; " points="71,60 76,55 93,55 93,65 76,65 71,60 "  />
</g>
<g id="a1_004"  >
<polygon style="stroke:black; stroke-width:1; fill:grey; " points="94,65 108,65 113,60 108,55 94,55 94,65 "  />
</g>
<g id="a1_005"  >
<polygon style="stroke:black; stroke-width:1; fill:grey; " points="113,65 117,65 122,60 117,55 113,55 113,65 "  />
</g>
<g id="a1_006"  >
<polygon style="stroke:black; stroke-width:1; fill:grey; " points="123,65 128,65 133,60 128,55 123,55 123,65 "  />
</g>
<g id="a1_007"  >
<polygon style="stroke:black; stroke-width:1; fill:grey; " points="139,60 144,55 146,55 146,65 144,65 139,60 "  />
</g>
<g id="a1_008"  >
<polygon style="stroke:black; stroke-width:1; fill:grey; " points="147,65 150,60 147,55 147,65 "  />
</g>
<g id="a1_009"  >
<polygon style="stroke:black; stroke-width:1; fill:grey; " points="152,60 157,55 158,55 158,65 157,65 152,60 "  />
</g>
<g id="a1_0010"  >
<polygon style="stroke:black; stroke-width:1; fill:grey; " points="160,60 163,55 163,65 160,60 "  />
</g>
<g id="a1_0011"  >
<polygon style="stroke:black; stroke-width:1; fill:grey; " points="166,65 167,65 172,60 167,55 166,55 166,65 "  />
</g>
<g id="a1_0012"  >
<polygon style="stroke:black; stroke-width:1; fill:grey; " points="173,60 174,55 174,65 173,60 "  />
</g>
<g id="a1_0013"  >
<polygon style="stroke:black; stroke-width:1; fill:grey; " points="173,65 177,60 173,55 173,65 "  />
</g>
<g id="a1_0014"  >
<polygon style="stroke:black; stroke-width:1; fill:grey; " points="178,65 179,65 184,60 179,55 178,55 178,65 "  />
</g>
<g id="a1_0015"  >
<polygon style="stroke:black; stroke-width:1; fill:grey; " points="184,65 188,60 184,55 184,65 "  />
</g>
<g id="a1_0016"  >
<polygon style="stroke:black; stroke-width:1; fill:grey; " points="190,60 195,55 199,55 199,65 195,65 190,60 "  />
</g>
<g id="a1_0017"  >
<polygon style="stroke:black; stroke-width:1; fill:grey; " points="199,60 204,55 209,55 209,65 204,65 199,60 "  />
</g>
<g id="a1_0018"  >
<polygon style="stroke:black; stroke-width:1; fill:grey; " points="209,60 213,55 213,65 209,60 "  />
</g>
<g id="a1_0019"  >
<polygon style="stroke:black; stroke-width:1; fill:grey; " points="217,65 219,65 224,60 219,55 217,55 217,65 "  />
</g>
<g id="a1_0020"  >
<polygon style="stroke:black; stroke-width:1; fill:grey; " points="223,65 228,65 233,60 228,55 223,55 223,65 "  />
</g>
<g id="a1_0021"  >
<polygon style="stroke:black; stroke-width:1; fill:grey; " points="234,65 237,65 242,60 237,55 234,55 234,65 "  />
</g>
<g id="a1_0022"  >
<polygon style="stroke:black; stroke-width:1; fill:grey; " points="242,65 265,65 270,60 265,55 242,55 242,65 "  />
</g>
<g id="a1_0023"  >
<polygon style="stroke:black; stroke-width:1; fill:grey; " points="270,65 278,65 283,60 278,55 270,55 270,65 "  />
</g>
<g id="a1_0024"  >
<polygon style="stroke:black; stroke-width:1; fill:grey; " points="290,60 294,55 294,65 290,60 "  />
</g>
<g id="a1_0025"  >
<polygon style="stroke:black; stroke-width:1; fill:grey; " points="298,65 304,65 309,60 304,55 298,55 298,65 "  />
</g>
<g id="a1_0026"  >
<polygon style="stroke:black; stroke-width:1; fill:grey; " points="311,60 316,55 324,55 324,65 316,65 311,60 "  />
</g>
<g id="a1_0027"  >
<polygon style="stroke:black; stroke-width:1; fill:grey; " points="327,65 338,65 343,60 338,55 327,55 327,65 "  />
</g>
<g id="a1_0028"  >
<polygon style="stroke:black; stroke-width:1; fill:grey; " points="343,65 354,65 359,60 354,55 343,55 343,65 "  />
</g>
<g id="a1_0029"  >
<polygon style="stroke:black; stroke-width:1; fill:#810E15; " points="360,65 408,65 413,60 408,55 360,55 360,65 "  />
</g>
<g id="a1_0030"  >
<polygon style="stroke:black; stroke-width:1; fill:#810E15; " points="418,65 437,65 442,60 437,55 418,55 418,65 "  />
</g>
<g id="a1_0031"  >
<polygon style="stroke:black; stroke-width:1; fill:grey; " points="442,65 448,65 453,60 448,55 442,55 442,65 "  />
</g>
<g id="a1_0032"  >
<polygon style="stroke:black; stroke-width:1; fill:grey; " points="453,65 469,65 474,60 469,55 453,55 453,65 "  />
</g>
<g id="a1_0033"  >
<polygon style="stroke:black; stroke-width:1; fill:grey; " points="485,65 499,65 504,60 499,55 485,55 485,65 "  />
</g>
<g id="a1_0034"  >
<polygon style="stroke:black; stroke-width:1; fill:grey; " points="511,65 513,60 511,55 511,65 "  />
</g>
<g id="a1_0035"  >
<polygon style="stroke:black; stroke-width:1; fill:grey; " points="514,65 518,60 514,55 514,65 "  />
</g>
<g id="a1_0036"  >
<polygon style="stroke:black; stroke-width:1; fill:grey; " points="519,65 522,60 519,55 519,65 "  />
</g>
<g id="a1_0037"  >
<polygon style="stroke:black; stroke-width:1; fill:grey; " points="525,65 533,65 538,60 533,55 525,55 525,65 "  />
</g>
<g id="a1_0038"  >
<polygon style="stroke:black; stroke-width:1; fill:grey; " points="544,65 549,65 554,60 549,55 544,55 544,65 "  />
</g>
<g id="a1_0039"  >
<polygon style="stroke:black; stroke-width:1; fill:grey; " points="554,65 558,60 554,55 554,65 "  />
</g>
<g id="a1_0040"  >
<polygon style="stroke:black; stroke-width:1; fill:grey; " points="559,65 561,60 559,55 559,65 "  />
</g>
<g id="a1_0041"  >
<polygon style="stroke:black; stroke-width:1; fill:grey; " points="561,65 563,65 568,60 563,55 561,55 561,65 "  />
</g>
<g id="a1_0042"  >
<polygon style="stroke:black; stroke-width:1; fill:grey; " points="573,60 578,55 580,55 580,65 578,65 573,60 "  />
</g>
<g id="a1_0043"  >
<polygon style="stroke:black; stroke-width:1; fill:grey; " points="590,60 595,55 599,55 599,65 595,65 590,60 "  />
</g>
<g id="a1_0044"  >
<polygon style="stroke:black; stroke-width:1; fill:grey; " points="599,60 602,55 602,65 599,60 "  />
</g>
<g id="a1_0045"  >
<polygon style="stroke:black; stroke-width:1; fill:grey; " points="601,65 605,60 601,55 601,65 "  />
</g>
<g id="a1_0046"  >
<polygon style="stroke:black; stroke-width:1; fill:grey; " points="610,65 630,65 635,60 630,55 610,55 610,65 "  />
</g>
<g id="a1_0047"  >
<polygon style="stroke:black; stroke-width:1; fill:grey; " points="634,65 645,65 650,60 645,55 634,55 634,65 "  />
</g>
<g id="a1_0048"  >
<polygon style="stroke:black; stroke-width:1; fill:grey; " points="650,65 659,65 664,60 659,55 650,55 650,65 "  />
</g>
<g id="a1_0049"  >
<polygon style="stroke:black; stroke-width:1; fill:grey; " points="663,65 672,65 677,60 672,55 663,55 663,65 "  />
</g>
<g id="a1_0050"  >
<polygon style="stroke:black; stroke-width:1; fill:grey; " points="677,65 684,65 689,60 684,55 677,55 677,65 "  />
</g>
<g id="a1_0051"  >
<polygon style="stroke:black; stroke-width:1; fill:grey; " points="690,65 705,65 710,60 705,55 690,55 690,65 "  />
</g>
<g id="a1_0052"  >
<polygon style="stroke:black; stroke-width:1; fill:grey; " points="710,60 715,55 723,55 723,65 715,65 710,60 "  />
</g>
<g id="a1_0053"  >
<polygon style="stroke:black; stroke-width:1; fill:grey; " points="724,65 734,65 739,60 734,55 724,55 724,65 "  />
</g>
<g id="a1_0054"  >
<polygon style="stroke:black; stroke-width:1; fill:grey; " points="740,60 745,55 757,55 757,65 745,65 740,60 "  />
</g>
<g id="a1_0055"  >
<polygon style="stroke:black; stroke-width:1; fill:grey; " points="757,60 762,55 778,55 778,65 762,65 757,60 "  />
</g>
<g  >
<line y1="0" x2="778.0" style="stroke:grey; stroke-width:1; " x1="10" y2="0"  />
</g>
<g id="b1_000"  >
<defs  >
<linearGradient id="A_domain1_1"  >
<stop stop-color="#56157F" stop-opacity="1" offset="0%"  />
<stop stop-color="#BE81F7" stop-opacity="1" offset="100%"  />
</linearGradient>
</defs>
<defs  >
<linearGradient id="A_line1_1"  >
<stop stop-color="#BE81F7" stop-opacity="1" offset="0%"  />
<stop stop-color="#56157F" stop-opacity="1" offset="100%"  />
</linearGradient>
</defs>
<rect style="stroke:url(#A_line1_1); stroke-width:1; fill:url(#A_domain1_1); " rx="8" height="15" width="273.936305732" y="-8" x="51.9290263876"  />
<text style="font-size:12px; font-family:MS Reference Sans Serif; font-weight:bold; " y="4" x="178.897179254" fill="#1B0A2A"  >
A</text>
</g>
<g id="b1_001"  >
<defs  >
<linearGradient id="PCP_domain1_1"  >
<stop stop-color="#084BC6" stop-opacity="1" offset="0%"  />
<stop stop-color="#81BEF7" stop-opacity="1" offset="100%"  />
</linearGradient>
</defs>
<defs  >
<linearGradient id="PCP_line1_1"  >
<stop stop-color="#81BEF7" stop-opacity="1" offset="0%"  />
<stop stop-color="#084BC6" stop-opacity="1" offset="100%"  />
</linearGradient>
</defs>
<rect style="stroke:url(#PCP_line1_1); stroke-width:1; fill:url(#PCP_domain1_1); " rx="8" height="15" width="38.4349408553" y="-8" x="407.626933576"  />
<text style="font-size:8px; font-family:MS Reference Sans Serif; font-weight:bold; " y="3" x="414.844404004" fill="#0A1B2A"  >
PCP</text>
</g>
<g id="b1_002"  >
<defs  >
<linearGradient id="C_domain1_1"  >
<stop stop-color="#393989" stop-opacity="1" offset="0%"  />
<stop stop-color="#8181F7" stop-opacity="1" offset="100%"  />
</linearGradient>
</defs>
<defs  >
<linearGradient id="C_line1_1"  >
<stop stop-color="#8181F7" stop-opacity="1" offset="0%"  />
<stop stop-color="#393989" stop-opacity="1" offset="100%"  />
</linearGradient>
</defs>
<rect style="stroke:url(#C_line1_1); stroke-width:1; fill:url(#C_domain1_1); " rx="8" height="15" width="204.054595086" y="-8" x="468.424021838"  />
<text style="font-size:12px; font-family:MS Reference Sans Serif; font-weight:bold; " y="4" x="560.451319381" fill="#0A0A2A"  >
C</text>
<line y1="60" x2="348.227479527" style="stroke:grey; stroke-width:1; " x1="10" y2="60"  />
</g>
<g id="b1_002"  >
<defs  >
<linearGradient id="C_domain1_1"  >
<stop stop-color="#393989" stop-opacity="1" offset="0%"  />
<stop stop-color="#8181F7" stop-opacity="1" offset="100%"  />
</linearGradient>
</defs>
<defs  >
<linearGradient id="C_line1_1"  >
<stop stop-color="#8181F7" stop-opacity="1" offset="0%"  />
<stop stop-color="#393989" stop-opacity="1" offset="100%"  />
</linearGradient>
</defs>
<rect style="stroke:url(#C_line1_1); stroke-width:1; fill:url(#C_domain1_1); " rx="8" height="15" width="204.054595086" y="-8" x="468.424021838"  />
<text style="font-size:12px; font-family:MS Reference Sans Serif; font-weight:bold; " y="4" x="560.451319381" fill="#0A0A2A"  >
C</text>
<line y1="60" x2="348.227479527" style="stroke:grey; stroke-width:1; " x1="10" y2="60"  />
</g>
<g id="b1_003"  >
<defs  >
<linearGradient id="A_domain1_2"  >
<stop stop-color="#56157F" stop-opacity="1" offset="0%"  />
<stop stop-color="#BE81F7" stop-opacity="1" offset="100%"  />
</linearGradient>
</defs>
<defs  >
<linearGradient id="A_line1_2"  >
<stop stop-color="#BE81F7" stop-opacity="1" offset="0%"  />
<stop stop-color="#56157F" stop-opacity="1" offset="100%"  />
</linearGradient>
</defs>
<rect style="stroke:url(#A_line1_2); stroke-width:1; fill:url(#A_domain1_2); " rx="8" height="15" width="192.873521383" y="52" x="37.9526842584"  />
<text style="font-size:12px; font-family:MS Reference Sans Serif; font-weight:bold; " y="64" x="124.38944495" fill="#1B0A2A"  >
A</text>
</g>
<g id="b1_004"  >
<defs  >
<linearGradient id="PCP_domain1_2"  >
<stop stop-color="#084BC6" stop-opacity="1" offset="0%"  />
<stop stop-color="#81BEF7" stop-opacity="1" offset="100%"  />
</linearGradient>
</defs>
<defs  >
<linearGradient id="PCP_line1_2"  >
<stop stop-color="#81BEF7" stop-opacity="1" offset="0%"  />
<stop stop-color="#084BC6" stop-opacity="1" offset="100%"  />
</linearGradient>
</defs>
<rect style="stroke:url(#PCP_line1_2); stroke-width:1; fill:url(#PCP_domain1_2); " rx="8" height="15" width="43.3266606005" y="52" x="297.912647862"  />
<text style="font-size:8px; font-family:MS Reference Sans Serif; font-weight:bold; " y="63" x="307.575978162" fill="#0A1B2A"  >
PCP</text>
<line y1="120" x2="176.318471338" style="stroke:grey; stroke-width:1; " x1="10" y2="120"  />
</g>
<g id="b1_004"  >
<defs  >
<linearGradient id="PCP_domain1_2"  >
<stop stop-color="#084BC6" stop-opacity="1" offset="0%"  />
<stop stop-color="#81BEF7" stop-opacity="1" offset="100%"  />
</linearGradient>
</defs>
<defs  >
<linearGradient id="PCP_line1_2"  >
<stop stop-color="#81BEF7" stop-opacity="1" offset="0%"  />
<stop stop-color="#084BC6" stop-opacity="1" offset="100%"  />
</linearGradient>
</defs>
<rect style="stroke:url(#PCP_line1_2); stroke-width:1; fill:url(#PCP_domain1_2); " rx="8" height="15" width="43.3266606005" y="52" x="297.912647862"  />
<text style="font-size:8px; font-family:MS Reference Sans Serif; font-weight:bold; " y="63" x="307.575978162" fill="#0A1B2A"  >
PCP</text>
<line y1="120" x2="176.318471338" style="stroke:grey; stroke-width:1; " x1="10" y2="120"  />
</g>
<g id="b1_005"  >
<defs  >
<linearGradient id="TE_domain1_1"  >
<stop stop-color="#750072" stop-opacity="1" offset="0%"  />
<stop stop-color="#F5A9F2" stop-opacity="1" offset="100%"  />
</linearGradient>
</defs>
<defs  >
<linearGradient id="TE_line1_1"  >
<stop stop-color="#F5A9F2" stop-opacity="1" offset="0%"  />
<stop stop-color="#750072" stop-opacity="1" offset="100%"  />
</linearGradient>
</defs>
<rect style="stroke:url(#TE_line1_1); stroke-width:1; fill:url(#TE_domain1_1); " rx="8" height="15" width="141.859872611" y="112" x="22.5787079163"  />
<text style="font-size:12px; font-family:MS Reference Sans Serif; font-weight:bold; " y="124" x="83.508644222" fill="#2A0A29"  >
TE</text>
</g>
<g id="b1_005"  >
<defs  >
<linearGradient id="TE_domain1_1"  >
<stop stop-color="#750072" stop-opacity="1" offset="0%"  />
<stop stop-color="#F5A9F2" stop-opacity="1" offset="100%"  />
</linearGradient>
</defs>
<defs  >
<linearGradient id="TE_line1_1"  >
<stop stop-color="#F5A9F2" stop-opacity="1" offset="0%"  />
<stop stop-color="#750072" stop-opacity="1" offset="100%"  />
</linearGradient>
</defs>
<rect style="stroke:url(#TE_line1_1); stroke-width:1; fill:url(#TE_domain1_1); " rx="8" height="15" width="141.859872611" y="112" x="22.5787079163"  />
<text style="font-size:12px; font-family:MS Reference Sans Serif; font-weight:bold; " y="124" x="83.508644222" fill="#2A0A29"  >
TE</text>
</g>
</svg>
