<svg xmlns="http://www.w3.org/2000/svg" height="180" width="768.0" version="1.1" y="0" x="0" preserveAspectRatio="none" xmlns:xlink="http://www.w3.org/1999/xlink" viewBox="0 -30 819.2 120"  >
<g  >
<line y1="60" x2="778.0" style="stroke:grey; stroke-width:2; " x1="10" y2="60"  />
</g>
<g id="a2_000"  >
<polygon style="stroke:black; stroke-width:1; fill:grey; " points="10,60 15,55 94,55 94,65 15,65 10,60 "  />
</g>
<g id="a2_001"  >
<polygon style="stroke:black; stroke-width:1; fill:grey; " points="101,60 106,55 121,55 121,65 106,65 101,60 "  />
</g>
<g id="a2_002"  >
<polygon style="stroke:black; stroke-width:1; fill:grey; " points="125,60 130,55 154,55 154,65 130,65 125,60 "  />
</g>
<g id="a2_003"  >
<polygon style="stroke:black; stroke-width:1; fill:grey; " points="160,65 162,65 167,60 162,55 160,55 160,65 "  />
</g>
<g id="a2_004"  >
<polygon style="stroke:black; stroke-width:1; fill:grey; " points="172,65 247,65 252,60 247,55 172,55 172,65 "  />
</g>
<g id="a2_005"  >
<polygon style="stroke:black; stroke-width:1; fill:grey; " points="255,65 257,65 262,60 257,55 255,55 255,65 "  />
</g>
<g id="a2_006"  >
<polygon style="stroke:black; stroke-width:1; fill:grey; " points="263,60 268,55 297,55 297,65 268,65 263,60 "  />
</g>
<g id="a2_007"  >
<polygon style="stroke:black; stroke-width:1; fill:grey; " points="298,60 303,55 337,55 337,65 303,65 298,60 "  />
</g>
<g id="a2_008"  >
<polygon style="stroke:black; stroke-width:1; fill:grey; " points="345,60 350,55 396,55 396,65 350,65 345,60 "  />
</g>
<g id="a2_009"  >
<polygon style="stroke:black; stroke-width:1; fill:#810E15; " points="396,60 401,55 426,55 426,65 401,65 396,60 "  />
</g>
<g id="a2_0010"  >
<polygon style="stroke:black; stroke-width:1; fill:grey; " points="427,60 432,55 464,55 464,65 432,65 427,60 "  />
</g>
<g id="a2_0011"  >
<polygon style="stroke:black; stroke-width:1; fill:grey; " points="465,60 470,55 516,55 516,65 470,65 465,60 "  />
</g>
<g id="a2_0012"  >
<polygon style="stroke:black; stroke-width:1; fill:grey; " points="515,60 520,55 532,55 532,65 520,65 515,60 "  />
</g>
<g id="a2_0013"  >
<polygon style="stroke:black; stroke-width:1; fill:grey; " points="538,60 543,55 563,55 563,65 543,65 538,60 "  />
</g>
<g id="a2_0014"  >
<polygon style="stroke:black; stroke-width:1; fill:grey; " points="577,60 582,55 625,55 625,65 582,65 577,60 "  />
</g>
<g id="a2_0015"  >
<polygon style="stroke:black; stroke-width:1; fill:grey; " points="629,60 634,55 664,55 664,65 634,65 629,60 "  />
</g>
<g id="a2_0016"  >
<polygon style="stroke:black; stroke-width:1; fill:grey; " points="674,65 688,65 693,60 688,55 674,55 674,65 "  />
</g>
<g id="a2_0017"  >
<polygon style="stroke:black; stroke-width:1; fill:grey; " points="698,65 725,65 730,60 725,55 698,55 698,65 "  />
</g>
<g id="a2_0018"  >
<polygon style="stroke:black; stroke-width:1; fill:grey; " points="731,65 734,65 739,60 734,55 731,55 731,65 "  />
</g>
<g id="a2_0019"  >
<polygon style="stroke:black; stroke-width:1; fill:grey; " points="752,65 773,65 778,60 773,55 752,55 752,65 "  />
</g>
<g  >
<line y1="0" x2="581.076923077" style="stroke:grey; stroke-width:1; " x1="10" y2="0"  />
</g>
<g id="b2_000"  >
<defs  >
<linearGradient id="KR_domain2_1"  >
<stop stop-color="#089E4B" stop-opacity="1" offset="0%"  />
<stop stop-color="#81F781" stop-opacity="1" offset="100%"  />
</linearGradient>
</defs>
<defs  >
<linearGradient id="KR_line2_1"  >
<stop stop-color="#81F781" stop-opacity="1" offset="0%"  />
<stop stop-color="#089E4B" stop-opacity="1" offset="100%"  />
</linearGradient>
</defs>
<rect style="stroke:url(#KR_line2_1); stroke-width:1; fill:url(#KR_domain2_1); " rx="8" height="15" width="317.046153846" y="-8" x="98.6153846154"  />
<text style="font-size:12px; font-family:MS Reference Sans Serif; font-weight:bold; " y="4" x="243.138461538" fill="#0A2A1B"  >
KR</text>
<line y1="60" x2="778.0" style="stroke:grey; stroke-width:1; " x1="10" y2="60"  />
</g>
<g id="b2_000"  >
<defs  >
<linearGradient id="KR_domain2_1"  >
<stop stop-color="#089E4B" stop-opacity="1" offset="0%"  />
<stop stop-color="#81F781" stop-opacity="1" offset="100%"  />
</linearGradient>
</defs>
<defs  >
<linearGradient id="KR_line2_1"  >
<stop stop-color="#81F781" stop-opacity="1" offset="0%"  />
<stop stop-color="#089E4B" stop-opacity="1" offset="100%"  />
</linearGradient>
</defs>
<rect style="stroke:url(#KR_line2_1); stroke-width:1; fill:url(#KR_domain2_1); " rx="8" height="15" width="317.046153846" y="-8" x="98.6153846154"  />
<text style="font-size:12px; font-family:MS Reference Sans Serif; font-weight:bold; " y="4" x="243.138461538" fill="#0A2A1B"  >
KR</text>
<line y1="60" x2="778.0" style="stroke:grey; stroke-width:1; " x1="10" y2="60"  />
</g>
<g id="b2_001"  >
<defs  >
<linearGradient id="other_domain2_1"  >
<stop stop-color="#929292" stop-opacity="1" offset="0%"  />
<stop stop-color="#DBDBDB" stop-opacity="1" offset="100%"  />
</linearGradient>
</defs>
<defs  >
<linearGradient id="other_line2_1"  >
<stop stop-color="#DBDBDB" stop-opacity="1" offset="0%"  />
<stop stop-color="#929292" stop-opacity="1" offset="100%"  />
</linearGradient>
</defs>
<rect style="stroke:url(#other_line2_1); stroke-width:1; fill:url(#other_domain2_1); " rx="8" height="15" width="685.292307692" y="52" x="67.1076923077"  />
<text style="font-size:8px; font-family:MS Reference Sans Serif; font-weight:bold; " y="63" x="383.753846154" fill="#0B0B0B"  >
Aminotran__</text>
</g>
<g id="b2_001"  >
<defs  >
<linearGradient id="other_domain2_1"  >
<stop stop-color="#929292" stop-opacity="1" offset="0%"  />
<stop stop-color="#DBDBDB" stop-opacity="1" offset="100%"  />
</linearGradient>
</defs>
<defs  >
<linearGradient id="other_line2_1"  >
<stop stop-color="#DBDBDB" stop-opacity="1" offset="0%"  />
<stop stop-color="#929292" stop-opacity="1" offset="100%"  />
</linearGradient>
</defs>
<rect style="stroke:url(#other_line2_1); stroke-width:1; fill:url(#other_domain2_1); " rx="8" height="15" width="685.292307692" y="52" x="67.1076923077"  />
<text style="font-size:8px; font-family:MS Reference Sans Serif; font-weight:bold; " y="63" x="383.753846154" fill="#0B0B0B"  >
Aminotran__</text>
</g>
</svg>
