<svg xmlns="http://www.w3.org/2000/svg" height="230" width="800" version="1.1" y="0" x="0" preserveAspectRatio="none" xmlns:xlink="http://www.w3.org/1999/xlink" viewBox="0 0 800 230"  >
<g class="clusterblast-cluster" label="Query sequence"  >
<text class="clusterblast-acc" y="20" x="5"  >
Query sequence</text>
<line y1="35" x2="778.0" style="stroke:grey; stroke-width:1; " x1="10" y2="35"  />
<polygon style="stroke:black; stroke-width:1; fill:#FFFFFF; " description="YjiH family protein[br]Location: 1314850 - 1316221" locus_tag="WP_002448378.1" class="clusterblast-orf" points="10,35 15,30 78,30 78,40 15,40 10,35 " id="knownclusterblast-1_q1_1_0"  />
<polygon style="stroke:black; stroke-width:1; fill:#FFFFFF; " description="iron-dicitrate ABC transporter permease[br]Location: 1316455 - 1317421" locus_tag="WP_002448568.1" class="clusterblast-orf" points="90,35 95,30 139,30 139,40 95,40 90,35 " id="knownclusterblast-1_q1_1_1"  />
<polygon style="stroke:black; stroke-width:1; fill:#FFFFFF; " description="iron ABC transporter permease[br]Location: 1317417 - 1318449" locus_tag="WP_002448608.1" class="clusterblast-orf" points="139,35 144,30 191,30 191,40 144,40 139,35 " id="knownclusterblast-1_q1_1_2"  />
<polygon style="stroke:black; stroke-width:1; fill:#FFFFFF; " description="iron citrate ABC transporter substrate-binding protein[br]Location: 1318461 - 1319460" locus_tag="WP_049417823.1" class="clusterblast-orf" points="191,35 196,30 241,30 241,40 196,40 191,35 " id="knownclusterblast-1_q1_1_3"  />
<polygon style="stroke:black; stroke-width:1; fill:red; " description="alanine racemase[br]Location: 1319652 - 1320714" locus_tag="WP_077700064.1" class="clusterblast-orf" points="251,35 256,30 305,30 305,40 256,40 251,35 " id="knownclusterblast-1_q1_1_4"  />
<polygon style="stroke:black; stroke-width:1; fill:green; " description="siderophore synthetase[br]Location: 1320714 - 1322472" locus_tag="WP_077700065.1" class="clusterblast-orf" points="305,35 310,30 393,30 393,40 310,40 305,35 " id="knownclusterblast-1_q1_1_5"  />
<polygon style="stroke:black; stroke-width:1; fill:blue; " description="sialic acid synthase[br]Location: 1322685 - 1324629" locus_tag="WP_077700066.1" class="clusterblast-orf" points="404,40 497,40 502,35 497,30 404,30 404,40 " id="knownclusterblast-1_q1_1_6"  />
<polygon style="stroke:black; stroke-width:1; fill:#FFFFFF; " description="Asp23/Gls24 family envelope stress response protein[br]Location: 1324739 - 1325288" locus_tag="WP_002448598.1" class="clusterblast-orf" points="507,35 512,30 535,30 535,40 512,40 507,35 " id="knownclusterblast-1_q1_1_7"  />
<polygon style="stroke:black; stroke-width:1; fill:#FFFFFF; " description="DUF2273 domain-containing protein[br]Location: 1325366 - 1325603" locus_tag="WP_002448488.1" class="clusterblast-orf" points="539,35 544,30 551,30 551,40 544,40 539,35 " id="knownclusterblast-1_q1_1_8"  />
<polygon style="stroke:black; stroke-width:1; fill:#FFFFFF; " description="alkaline shock response membrane anchor protein AmaP[br]Location: 1325615 - 1326152" locus_tag="WP_002448415.1" class="clusterblast-orf" points="551,35 556,30 578,30 578,40 556,40 551,35 " id="knownclusterblast-1_q1_1_9"  />
<polygon style="stroke:black; stroke-width:1; fill:#FFFFFF; " description="BCCT family transporter[br]Location: 1326320 - 1327895" locus_tag="WP_049417817.1" class="clusterblast-orf" points="587,35 592,30 666,30 666,40 592,40 587,35 " id="knownclusterblast-1_q1_1_10"  />
<polygon style="stroke:black; stroke-width:1; fill:#FFFFFF; " description="zinc-binding alcohol dehydrogenase family protein[br]Location: 1328058 - 1329072" locus_tag="WP_077700067.1" class="clusterblast-orf" points="674,35 679,30 725,30 725,40 679,40 674,35 " id="knownclusterblast-1_q1_1_11"  />
<polygon style="stroke:black; stroke-width:1; fill:#FFFFFF; " description="NADP-dependent oxidoreductase[br]Location: 1329104 - 1330112" locus_tag="WP_002448412.1" class="clusterblast-orf" points="727,35 732,30 778,30 778,40 732,40 727,35 " id="knownclusterblast-1_q1_1_12"  />
</g>
<g class="clusterblast-cluster" description="Staphyloferrin biosynthetic gene cluster (75% of genes show similarity)" label="BGC0000944"  >
<text class="clusterblast-acc" y="70" x="5"  >
<a xlink:href="http://mibig.secondarymetabolites.org/repository/BGC0000944/index.html#cluster-1" target="_blank">BGC0000944</a>: Staphyloferrin biosynthetic gene cluster (75% of genes show similarity)</text>
<line y1="85" x2="778.0" style="stroke:grey; stroke-width:1; " x1="10" y2="85"  />
<polygon style="stroke:black; stroke-width:1; fill:red; " description="conserved_hypothetical_protein[br]Location: 1 - 1071&lt;br&gt;&lt;br&gt;&lt;b&gt;BlastP hit with WP_077700064.1&lt;/b&gt;&lt;br&gt;Percentage identity: 54%&lt;br&gt;Percentage coverage: 97%&lt;br&gt;BLAST bit score: 363&lt;br&gt;E-value: 3e-100" locus_tag="SAOUHSC_02433" id="knownclusterblast-1_h1_1_0" points="240,85 245,80 293,80 293,90 245,90 240,85 " class="clusterblast-orf"  />
<polygon style="stroke:black; stroke-width:1; fill:green; " description="conserved_hypothetical_protein[br]Location: 1078 - 2835&lt;br&gt;&lt;br&gt;&lt;b&gt;BlastP hit with WP_077700065.1&lt;/b&gt;&lt;br&gt;Percentage identity: 55%&lt;br&gt;Percentage coverage: 99%&lt;br&gt;BLAST bit score: 639&lt;br&gt;E-value: 4.7e-183" locus_tag="SAOUHSC_02434" id="knownclusterblast-1_h1_1_1" points="294,85 299,80 382,80 382,90 299,90 294,85 " class="clusterblast-orf"  />
<polygon style="stroke:black; stroke-width:1; fill:#FFFFFF; " description="conserved_hypothetical_protein[br]Location: 2822 - 4015" locus_tag="SAOUHSC_02435" id="knownclusterblast-1_h1_1_2" points="381,85 386,80 441,80 441,90 386,90 381,85 " class="clusterblast-orf"  />
<polygon style="stroke:black; stroke-width:1; fill:blue; " description="conserved_hypothetical_protein[br]Location: 4117 - 6093&lt;br&gt;&lt;br&gt;&lt;b&gt;BlastP hit with WP_077700066.1&lt;/b&gt;&lt;br&gt;Percentage identity: 56%&lt;br&gt;Percentage coverage: 101%&lt;br&gt;BLAST bit score: 705&lt;br&gt;E-value: 6e-203" locus_tag="SAOUHSC_02436" id="knownclusterblast-1_h1_1_3" points="447,90 541,90 546,85 541,80 447,80 447,90 " class="clusterblast-orf"  />
</g>
</svg>
