<svg xmlns="http://www.w3.org/2000/svg" height="230" width="800" version="1.1" y="0" x="0" preserveAspectRatio="none" xmlns:xlink="http://www.w3.org/1999/xlink" viewBox="0 0 800 230"  >
<g class="clusterblast-cluster" label="Query sequence"  >
<text class="clusterblast-acc" y="20" x="5"  >
Query sequence</text>
<line y1="35" x2="778.0" style="stroke:grey; stroke-width:1; " x1="10" y2="35"  />
<polygon style="stroke:black; stroke-width:1; fill:#FFFFFF; " description="ATP-binding cassette domain-containing protein[br]Location: 2201512 - 2202208" locus_tag="WP_077699943.1" class="clusterblast-orf" points="10,40 24,40 29,35 24,30 10,30 10,40 " id="knownclusterblast-3_q3_3_0"  />
<polygon style="stroke:black; stroke-width:1; fill:#FFFFFF; " description="hypothetical protein[br]Location: 2202209 - 2202846" locus_tag="DG019_RS11065" class="clusterblast-orf" points="29,40 42,40 47,35 42,30 29,30 29,40 " id="knownclusterblast-3_q3_3_1"  />
<polygon style="stroke:black; stroke-width:1; fill:rgb(169,42,42); " description="hypothetical protein[br]Location: 2203689 - 2204427" locus_tag="WP_077699980.1" class="clusterblast-orf" points="71,35 76,30 93,30 93,40 76,40 71,35 " id="knownclusterblast-3_q3_3_2"  />
<polygon style="stroke:black; stroke-width:1; fill:rgb(42,169,42); " description="hypothetical protein[br]Location: 2204423 - 2205176" locus_tag="WP_070653592.1" class="clusterblast-orf" points="92,35 97,30 114,30 114,40 97,40 92,35 " id="knownclusterblast-3_q3_3_3"  />
<polygon style="stroke:black; stroke-width:1; fill:rgb(42,169,212); " description="ABC transporter ATP-binding protein[br]Location: 2205176 - 2206085" locus_tag="WP_077699979.1" class="clusterblast-orf" points="114,35 119,30 140,30 140,40 119,40 114,35 " id="knownclusterblast-3_q3_3_4"  />
<polygon style="stroke:black; stroke-width:1; fill:#FFFFFF; " description="ATP-binding protein[br]Location: 2206395 - 2207289" locus_tag="DG019_RS11085" class="clusterblast-orf" points="149,40 169,40 174,35 169,30 149,30 149,40 " id="knownclusterblast-3_q3_3_5"  />
<polygon style="stroke:black; stroke-width:1; fill:#FFFFFF; " description="hypothetical protein[br]Location: 2207296 - 2207488" locus_tag="WP_077699978.1" class="clusterblast-orf" points="174,35 179,30 180,30 180,40 179,40 174,35 " id="knownclusterblast-3_q3_3_6"  />
<polygon style="stroke:black; stroke-width:1; fill:#FFFFFF; " description="hypothetical protein[br]Location: 2208018 - 2208363" locus_tag="WP_077699977.1" class="clusterblast-orf" points="195,40 200,40 205,35 200,30 195,30 195,40 " id="knownclusterblast-3_q3_3_7"  />
<polygon style="stroke:black; stroke-width:1; fill:#FFFFFF; " description="replication protein[br]Location: 2209345 - 2210314" locus_tag="WP_077699976.1" class="clusterblast-orf" points="233,35 238,30 260,30 260,40 238,40 233,35 " id="knownclusterblast-3_q3_3_8"  />
<polygon style="stroke:black; stroke-width:1; fill:#FFFFFF; " description="DUF536 domain-containing protein[br]Location: 2210783 - 2211476" locus_tag="WP_077699975.1" class="clusterblast-orf" points="274,40 288,40 293,35 288,30 274,30 274,40 " id="knownclusterblast-3_q3_3_9"  />
<polygon style="stroke:black; stroke-width:1; fill:rgb(169,169,42); " description="hypothetical protein[br]Location: 2211880 - 2213074" locus_tag="WP_077699974.1" class="clusterblast-orf" points="305,35 310,30 339,30 339,40 310,40 305,35 " id="knownclusterblast-3_q3_3_10"  />
<polygon style="stroke:black; stroke-width:1; fill:rgb(169,42,127); " description="hypothetical protein[br]Location: 2213058 - 2215983" locus_tag="WP_077699973.1" class="clusterblast-orf" points="338,35 343,30 422,30 422,40 343,40 338,35 " id="knownclusterblast-3_q3_3_11"  />
<polygon style="stroke:black; stroke-width:1; fill:rgb(42,42,212); " description="hypothetical protein[br]Location: 2215969 - 2216872" locus_tag="WP_077699972.1" class="clusterblast-orf" points="421,35 426,30 447,30 447,40 426,40 421,35 " id="knownclusterblast-3_q3_3_12"  />
<polygon style="stroke:black; stroke-width:1; fill:rgb(169,169,212); " description="hypothetical protein[br]Location: 2216939 - 2217110" locus_tag="WP_077699971.1" class="clusterblast-orf" points="449,35 454,30 454,30 454,40 454,40 449,35 " id="knownclusterblast-3_q3_3_13"  />
<polygon style="stroke:black; stroke-width:1; fill:rgb(42,169,127); " description="hypothetical protein[br]Location: 2217167 - 2217356" locus_tag="WP_077699970.1" class="clusterblast-orf" points="455,35 460,30 461,30 461,40 460,40 455,35 " id="knownclusterblast-3_q3_3_14"  />
<polygon style="stroke:black; stroke-width:1; fill:rgb(169,42,212); " description="SDR family oxidoreductase[br]Location: 2217430 - 2218174" locus_tag="WP_077699969.1" class="clusterblast-orf" points="463,35 468,30 484,30 484,40 468,40 463,35 " id="knownclusterblast-3_q3_3_15"  />
<polygon style="stroke:black; stroke-width:1; fill:#FFFFFF; " description="ATP-binding cassette domain-containing protein[br]Location: 2219265 - 2219961" locus_tag="WP_077699968.1" class="clusterblast-orf" points="515,40 530,40 535,35 530,30 515,30 515,40 " id="knownclusterblast-3_q3_3_16"  />
<polygon style="stroke:black; stroke-width:1; fill:rgb(42,42,127); " description="hypothetical protein[br]Location: 2219962 - 2220736" locus_tag="WP_077699967.1" class="clusterblast-orf" points="535,40 552,40 557,35 552,30 535,30 535,40 " id="knownclusterblast-3_q3_3_17"  />
<polygon style="stroke:black; stroke-width:1; fill:rgb(169,169,127); " description="recombinase family protein[br]Location: 2221308 - 2221947" locus_tag="WP_077699966.1" class="clusterblast-orf" points="573,35 578,30 591,30 591,40 578,40 573,35 " id="knownclusterblast-3_q3_3_18"  />
<polygon style="stroke:black; stroke-width:1; fill:#FFFFFF; " description="transporter[br]Location: 2222587 - 2225227" locus_tag="WP_002449922.1" class="clusterblast-orf" points="610,40 680,40 685,35 680,30 610,30 610,40 " id="knownclusterblast-3_q3_3_19"  />
<polygon style="stroke:black; stroke-width:1; fill:#FFFFFF; " description="ABC transporter substrate-binding protein[br]Location: 2225250 - 2226195" locus_tag="WP_053036055.1" class="clusterblast-orf" points="686,40 707,40 712,35 707,30 686,30 686,40 " id="knownclusterblast-3_q3_3_20"  />
<polygon style="stroke:black; stroke-width:1; fill:#FFFFFF; " description="TetR/AcrR family transcriptional regulator[br]Location: 2226543 - 2227113" locus_tag="WP_038812901.1" class="clusterblast-orf" points="722,40 734,40 739,35 734,30 722,30 722,40 " id="knownclusterblast-3_q3_3_21"  />
<polygon style="stroke:black; stroke-width:1; fill:#FFFFFF; " description="type I toxin-antitoxin system Fst family toxin[br]Location: 2227390 - 2227492" locus_tag="WP_002497230.1" class="clusterblast-orf" points="746,35 749,30 749,40 746,35 " id="knownclusterblast-3_q3_3_22"  />
<polygon style="stroke:black; stroke-width:1; fill:#FFFFFF; " description="glyoxalase[br]Location: 2228063 - 2228480" locus_tag="WP_077699965.1" class="clusterblast-orf" points="766,35 771,30 778,30 778,40 771,40 766,35 " id="knownclusterblast-3_q3_3_23"  />
</g>
<g class="clusterblast-cluster" description="Nukacin ISK-1 biosynthetic gene cluster (42% of genes show similarity)" label="BGC0000539"  >
<text class="clusterblast-acc" y="70" x="5"  >
<a xlink:href="http://mibig.secondarymetabolites.org/repository/BGC0000539/index.html#cluster-1" target="_blank">BGC0000539</a>: Nukacin ISK-1 biosynthetic gene cluster (42% of genes show similarity)</text>
<line y1="85" x2="778.0" style="stroke:grey; stroke-width:1; " x1="10" y2="85"  />
<polygon style="stroke:black; stroke-width:1; fill:#FFFFFF; " description="replication_protein[br]Location: 11192 - 11740" locus_tag="BAC98768.1" id="knownclusterblast-3_h3_3_0" points="229,85 234,80 244,80 244,90 234,90 229,85 " class="clusterblast-orf"  />
<polygon style="stroke:black; stroke-width:1; fill:#FFFFFF; " description="putative_plasmid_replication-associated_protein[br]Location: 9767 - 10417" locus_tag="BAC98767.1" id="knownclusterblast-3_h3_3_1" points="266,90 280,90 285,85 280,80 266,80 266,90 " class="clusterblast-orf"  />
<polygon style="stroke:black; stroke-width:1; fill:#FFFFFF; " description="putative_plasmid_replication-associated_protein[br]Location: 9561 - 9761" locus_tag="BAC98766.1" id="knownclusterblast-3_h3_3_2" points="285,90 286,90 291,85 286,80 285,80 285,90 " class="clusterblast-orf"  />
<polygon style="stroke:black; stroke-width:1; fill:#FFFFFF; " description="NukH[br]Location: 9174 - 9452" locus_tag="BAC98765.2" id="knownclusterblast-3_h3_3_3" points="294,85 299,80 302,80 302,90 299,90 294,85 " class="clusterblast-orf"  />
<polygon style="stroke:black; stroke-width:1; fill:rgb(169,42,42); " description="NukG[br]Location: 8430 - 9167&lt;br&gt;&lt;br&gt;&lt;b&gt;BlastP hit with WP_077699980.1&lt;/b&gt;&lt;br&gt;Percentage identity: 96%&lt;br&gt;Percentage coverage: 99%&lt;br&gt;BLAST bit score: 434&lt;br&gt;E-value: 7.4e-122" locus_tag="BAC98764.1" id="knownclusterblast-3_h3_3_4" points="302,85 307,80 323,80 323,90 307,90 302,85 " class="clusterblast-orf"  />
<polygon style="stroke:black; stroke-width:1; fill:rgb(42,169,42); " description="NukE[br]Location: 7681 - 8433&lt;br&gt;&lt;br&gt;&lt;b&gt;BlastP hit with WP_070653592.1&lt;/b&gt;&lt;br&gt;Percentage identity: 98%&lt;br&gt;Percentage coverage: 100%&lt;br&gt;BLAST bit score: 448&lt;br&gt;E-value: 6.6e-126" locus_tag="BAC98763.1" id="knownclusterblast-3_h3_3_5" points="323,85 328,80 344,80 344,90 328,90 323,85 " class="clusterblast-orf"  />
<polygon style="stroke:black; stroke-width:1; fill:rgb(42,169,212); " description="NukF[br]Location: 6773 - 7648&lt;br&gt;&lt;br&gt;&lt;b&gt;BlastP hit with WP_077699979.1&lt;/b&gt;&lt;br&gt;Percentage identity: 98%&lt;br&gt;Percentage coverage: 95%&lt;br&gt;BLAST bit score: 543&lt;br&gt;E-value: 1.8e-154" locus_tag="BAC98762.1" id="knownclusterblast-3_h3_3_6" points="345,85 350,80 370,80 370,90 350,90 345,85 " class="clusterblast-orf"  />
<polygon style="stroke:black; stroke-width:1; fill:#FFFFFF; " description="NukT[br]Location: 4676 - 6760" locus_tag="BAC98761.2" id="knownclusterblast-3_h3_3_7" points="370,85 375,80 430,80 430,90 375,90 370,85 " class="clusterblast-orf"  />
<polygon style="stroke:black; stroke-width:1; fill:#FFFFFF; " description="NukM[br]Location: 1901 - 4654" locus_tag="BAC98760.2" id="knownclusterblast-3_h3_3_8" points="430,85 435,80 509,80 509,90 435,90 430,85 " class="clusterblast-orf"  />
<polygon style="stroke:black; stroke-width:1; fill:#FFFFFF; " description="NukA[br]Location: 1326 - 1499" locus_tag="BAC98759.1" id="knownclusterblast-3_h3_3_9" points="520,90 520,90 525,85 520,80 520,80 520,90 " class="clusterblast-orf"  />
<polygon style="stroke:black; stroke-width:1; fill:#FFFFFF; " description="putative_response_regulator[br]Location: 156 - 899" locus_tag="BAC98758.1" id="knownclusterblast-3_h3_3_10" points="537,90 553,90 558,85 553,80 537,80 537,90 " class="clusterblast-orf"  />
</g>
</svg>
