<svg xmlns="http://www.w3.org/2000/svg" height="230" width="800" version="1.1" y="0" x="0" preserveAspectRatio="none" xmlns:xlink="http://www.w3.org/1999/xlink" viewBox="0 0 800 230"  >
<g class="clusterblast-cluster" label="Query sequence"  >
<text class="clusterblast-acc" y="20" x="5"  >
Query sequence</text>
<line y1="35" x2="778.0" style="stroke:grey; stroke-width:1; " x1="10" y2="35"  />
<polygon style="stroke:black; stroke-width:1; fill:#FFFFFF; " description="ATP-binding cassette domain-containing protein[br]Location: 2201512 - 2202208" locus_tag="WP_077699943.1" class="clusterblast-orf" points="10,40 24,40 29,35 24,30 10,30 10,40 " id="knownclusterblast-3_q3_4_0"  />
<polygon style="stroke:black; stroke-width:1; fill:#FFFFFF; " description="hypothetical protein[br]Location: 2202209 - 2202846" locus_tag="DG019_RS11065" class="clusterblast-orf" points="29,40 42,40 47,35 42,30 29,30 29,40 " id="knownclusterblast-3_q3_4_1"  />
<polygon style="stroke:black; stroke-width:1; fill:rgb(169,42,42); " description="hypothetical protein[br]Location: 2203689 - 2204427" locus_tag="WP_077699980.1" class="clusterblast-orf" points="71,35 76,30 93,30 93,40 76,40 71,35 " id="knownclusterblast-3_q3_4_2"  />
<polygon style="stroke:black; stroke-width:1; fill:rgb(42,169,42); " description="hypothetical protein[br]Location: 2204423 - 2205176" locus_tag="WP_070653592.1" class="clusterblast-orf" points="92,35 97,30 114,30 114,40 97,40 92,35 " id="knownclusterblast-3_q3_4_3"  />
<polygon style="stroke:black; stroke-width:1; fill:rgb(42,169,212); " description="ABC transporter ATP-binding protein[br]Location: 2205176 - 2206085" locus_tag="WP_077699979.1" class="clusterblast-orf" points="114,35 119,30 140,30 140,40 119,40 114,35 " id="knownclusterblast-3_q3_4_4"  />
<polygon style="stroke:black; stroke-width:1; fill:#FFFFFF; " description="ATP-binding protein[br]Location: 2206395 - 2207289" locus_tag="DG019_RS11085" class="clusterblast-orf" points="149,40 169,40 174,35 169,30 149,30 149,40 " id="knownclusterblast-3_q3_4_5"  />
<polygon style="stroke:black; stroke-width:1; fill:#FFFFFF; " description="hypothetical protein[br]Location: 2207296 - 2207488" locus_tag="WP_077699978.1" class="clusterblast-orf" points="174,35 179,30 180,30 180,40 179,40 174,35 " id="knownclusterblast-3_q3_4_6"  />
<polygon style="stroke:black; stroke-width:1; fill:#FFFFFF; " description="hypothetical protein[br]Location: 2208018 - 2208363" locus_tag="WP_077699977.1" class="clusterblast-orf" points="195,40 200,40 205,35 200,30 195,30 195,40 " id="knownclusterblast-3_q3_4_7"  />
<polygon style="stroke:black; stroke-width:1; fill:#FFFFFF; " description="replication protein[br]Location: 2209345 - 2210314" locus_tag="WP_077699976.1" class="clusterblast-orf" points="233,35 238,30 260,30 260,40 238,40 233,35 " id="knownclusterblast-3_q3_4_8"  />
<polygon style="stroke:black; stroke-width:1; fill:#FFFFFF; " description="DUF536 domain-containing protein[br]Location: 2210783 - 2211476" locus_tag="WP_077699975.1" class="clusterblast-orf" points="274,40 288,40 293,35 288,30 274,30 274,40 " id="knownclusterblast-3_q3_4_9"  />
<polygon style="stroke:black; stroke-width:1; fill:rgb(169,169,42); " description="hypothetical protein[br]Location: 2211880 - 2213074" locus_tag="WP_077699974.1" class="clusterblast-orf" points="305,35 310,30 339,30 339,40 310,40 305,35 " id="knownclusterblast-3_q3_4_10"  />
<polygon style="stroke:black; stroke-width:1; fill:rgb(169,42,127); " description="hypothetical protein[br]Location: 2213058 - 2215983" locus_tag="WP_077699973.1" class="clusterblast-orf" points="338,35 343,30 422,30 422,40 343,40 338,35 " id="knownclusterblast-3_q3_4_11"  />
<polygon style="stroke:black; stroke-width:1; fill:rgb(42,42,212); " description="hypothetical protein[br]Location: 2215969 - 2216872" locus_tag="WP_077699972.1" class="clusterblast-orf" points="421,35 426,30 447,30 447,40 426,40 421,35 " id="knownclusterblast-3_q3_4_12"  />
<polygon style="stroke:black; stroke-width:1; fill:rgb(169,169,212); " description="hypothetical protein[br]Location: 2216939 - 2217110" locus_tag="WP_077699971.1" class="clusterblast-orf" points="449,35 454,30 454,30 454,40 454,40 449,35 " id="knownclusterblast-3_q3_4_13"  />
<polygon style="stroke:black; stroke-width:1; fill:rgb(42,169,127); " description="hypothetical protein[br]Location: 2217167 - 2217356" locus_tag="WP_077699970.1" class="clusterblast-orf" points="455,35 460,30 461,30 461,40 460,40 455,35 " id="knownclusterblast-3_q3_4_14"  />
<polygon style="stroke:black; stroke-width:1; fill:rgb(169,42,212); " description="SDR family oxidoreductase[br]Location: 2217430 - 2218174" locus_tag="WP_077699969.1" class="clusterblast-orf" points="463,35 468,30 484,30 484,40 468,40 463,35 " id="knownclusterblast-3_q3_4_15"  />
<polygon style="stroke:black; stroke-width:1; fill:#FFFFFF; " description="ATP-binding cassette domain-containing protein[br]Location: 2219265 - 2219961" locus_tag="WP_077699968.1" class="clusterblast-orf" points="515,40 530,40 535,35 530,30 515,30 515,40 " id="knownclusterblast-3_q3_4_16"  />
<polygon style="stroke:black; stroke-width:1; fill:rgb(42,42,127); " description="hypothetical protein[br]Location: 2219962 - 2220736" locus_tag="WP_077699967.1" class="clusterblast-orf" points="535,40 552,40 557,35 552,30 535,30 535,40 " id="knownclusterblast-3_q3_4_17"  />
<polygon style="stroke:black; stroke-width:1; fill:rgb(169,169,127); " description="recombinase family protein[br]Location: 2221308 - 2221947" locus_tag="WP_077699966.1" class="clusterblast-orf" points="573,35 578,30 591,30 591,40 578,40 573,35 " id="knownclusterblast-3_q3_4_18"  />
<polygon style="stroke:black; stroke-width:1; fill:#FFFFFF; " description="transporter[br]Location: 2222587 - 2225227" locus_tag="WP_002449922.1" class="clusterblast-orf" points="610,40 680,40 685,35 680,30 610,30 610,40 " id="knownclusterblast-3_q3_4_19"  />
<polygon style="stroke:black; stroke-width:1; fill:#FFFFFF; " description="ABC transporter substrate-binding protein[br]Location: 2225250 - 2226195" locus_tag="WP_053036055.1" class="clusterblast-orf" points="686,40 707,40 712,35 707,30 686,30 686,40 " id="knownclusterblast-3_q3_4_20"  />
<polygon style="stroke:black; stroke-width:1; fill:#FFFFFF; " description="TetR/AcrR family transcriptional regulator[br]Location: 2226543 - 2227113" locus_tag="WP_038812901.1" class="clusterblast-orf" points="722,40 734,40 739,35 734,30 722,30 722,40 " id="knownclusterblast-3_q3_4_21"  />
<polygon style="stroke:black; stroke-width:1; fill:#FFFFFF; " description="type I toxin-antitoxin system Fst family toxin[br]Location: 2227390 - 2227492" locus_tag="WP_002497230.1" class="clusterblast-orf" points="746,35 749,30 749,40 746,35 " id="knownclusterblast-3_q3_4_22"  />
<polygon style="stroke:black; stroke-width:1; fill:#FFFFFF; " description="glyoxalase[br]Location: 2228063 - 2228480" locus_tag="WP_077699965.1" class="clusterblast-orf" points="766,35 771,30 778,30 778,40 771,40 766,35 " id="knownclusterblast-3_q3_4_23"  />
</g>
<g class="clusterblast-cluster" description="Epilancin 15X biosynthetic gene cluster (42% of genes show similarity)" label="BGC0000509"  >
<text class="clusterblast-acc" y="70" x="5"  >
<a xlink:href="http://mibig.secondarymetabolites.org/repository/BGC0000509/index.html#cluster-1" target="_blank">BGC0000509</a>: Epilancin 15X biosynthetic gene cluster (42% of genes show similarity)</text>
<line y1="85" x2="778.0" style="stroke:grey; stroke-width:1; " x1="10" y2="85"  />
<polygon style="stroke:black; stroke-width:1; fill:rgb(42,42,127); " description="OrdA[br]Location: 14476 - 15261&lt;br&gt;&lt;br&gt;&lt;b&gt;BlastP hit with DG019_RS11065&lt;/b&gt;&lt;br&gt;Percentage identity: 78%&lt;br&gt;Percentage coverage: 92%&lt;br&gt;BLAST bit score: 71&lt;br&gt;E-value: 2.6e-13&lt;br&gt;&lt;br&gt;&lt;b&gt;BlastP hit with WP_077699967.1&lt;/b&gt;&lt;br&gt;Percentage identity: 97%&lt;br&gt;Percentage coverage: 100%&lt;br&gt;BLAST bit score: 457&lt;br&gt;E-value: 8.6e-129" locus_tag="AFN69439.1" id="knownclusterblast-3_h3_4_0" points="236,90 253,90 258,85 253,80 236,80 236,90 " class="clusterblast-orf"  />
<polygon style="stroke:black; stroke-width:1; fill:#FFFFFF; " description="Elx3[br]Location: 13937 - 14152" locus_tag="AFN69438.1" id="knownclusterblast-3_h3_4_1" points="267,85 272,80 273,80 273,90 272,90 267,85 " class="clusterblast-orf"  />
<polygon style="stroke:black; stroke-width:1; fill:#FFFFFF; " description="Elx2[br]Location: 13183 - 13908" locus_tag="AFN69437.1" id="knownclusterblast-3_h3_4_2" points="274,85 279,80 295,80 295,90 279,90 274,85 " class="clusterblast-orf"  />
<polygon style="stroke:black; stroke-width:1; fill:#FFFFFF; " description="Elx1[br]Location: 12940 - 13158" locus_tag="AFN69436.1" id="knownclusterblast-3_h3_4_3" points="295,85 300,80 302,80 302,90 300,90 295,85 " class="clusterblast-orf"  />
<polygon style="stroke:black; stroke-width:1; fill:#FFFFFF; " description="ElxC[br]Location: 11693 - 12901" locus_tag="AFN69435.1" id="knownclusterblast-3_h3_4_4" points="303,85 308,80 337,80 337,90 308,90 303,85 " class="clusterblast-orf"  />
<polygon style="stroke:black; stroke-width:1; fill:#FFFFFF; " description="ElxB[br]Location: 8715 - 11675" locus_tag="AFN69434.1" id="knownclusterblast-3_h3_4_5" points="338,85 343,80 422,80 422,90 343,90 338,85 " class="clusterblast-orf"  />
<polygon style="stroke:black; stroke-width:1; fill:#FFFFFF; " description="ElxP[br]Location: 7793 - 8728" locus_tag="AFN69433.1" id="knownclusterblast-3_h3_4_6" points="422,85 427,80 448,80 448,90 427,90 422,85 " class="clusterblast-orf"  />
<polygon style="stroke:black; stroke-width:1; fill:#FFFFFF; " description="ElxA[br]Location: 7589 - 7756" locus_tag="AFN69432.1" id="knownclusterblast-3_h3_4_7" points="449,85 454,80 454,80 454,90 454,90 449,85 " class="clusterblast-orf"  />
<polygon style="stroke:black; stroke-width:1; fill:#FFFFFF; " description="ElxT[br]Location: 5708 - 7429" locus_tag="AFN69431.1" id="knownclusterblast-3_h3_4_8" points="459,90 503,90 508,85 503,80 459,80 459,90 " class="clusterblast-orf"  />
<polygon style="stroke:black; stroke-width:1; fill:rgb(169,42,212); " description="ElxO[br]Location: 4943 - 5689&lt;br&gt;&lt;br&gt;&lt;b&gt;BlastP hit with WP_077699969.1&lt;/b&gt;&lt;br&gt;Percentage identity: 52%&lt;br&gt;Percentage coverage: 101%&lt;br&gt;BLAST bit score: 247&lt;br&gt;E-value: 2.2e-65" locus_tag="AFN69430.1" id="knownclusterblast-3_h3_4_9" points="508,90 524,90 529,85 524,80 508,80 508,90 " class="clusterblast-orf"  />
<polygon style="stroke:black; stroke-width:1; fill:rgb(169,169,127); " description="recombinase[br]Location: 4196 - 4729&lt;br&gt;&lt;br&gt;&lt;b&gt;BlastP hit with WP_077699966.1&lt;/b&gt;&lt;br&gt;Percentage identity: 76%&lt;br&gt;Percentage coverage: 94%&lt;br&gt;BLAST bit score: 289&lt;br&gt;E-value: 4.4e-78" locus_tag="AFN69429.1" id="knownclusterblast-3_h3_4_10" points="535,85 540,80 551,80 551,90 540,90 535,85 " class="clusterblast-orf"  />
</g>
</svg>
