<svg xmlns="http://www.w3.org/2000/svg" height="230" width="800" version="1.1" y="0" x="0" preserveAspectRatio="none" xmlns:xlink="http://www.w3.org/1999/xlink" viewBox="0 0 800 230"  >
<g class="clusterblast-cluster" label="Query sequence"  >
<text class="clusterblast-acc" y="20" x="5"  >
Query sequence</text>
<line y1="35" x2="778.0" style="stroke:grey; stroke-width:1; " x1="10" y2="35"  />
<polygon style="stroke:black; stroke-width:1; fill:#FFFFFF; " description="ATP-binding cassette domain-containing protein[br]Location: 2201512 - 2202208" locus_tag="WP_077699943.1" class="clusterblast-orf" points="10,40 24,40 29,35 24,30 10,30 10,40 " id="knownclusterblast-3_q3_1_0"  />
<polygon style="stroke:black; stroke-width:1; fill:#FFFFFF; " description="hypothetical protein[br]Location: 2202209 - 2202846" locus_tag="DG019_RS11065" class="clusterblast-orf" points="29,40 42,40 47,35 42,30 29,30 29,40 " id="knownclusterblast-3_q3_1_1"  />
<polygon style="stroke:black; stroke-width:1; fill:rgb(169,42,42); " description="hypothetical protein[br]Location: 2203689 - 2204427" locus_tag="WP_077699980.1" class="clusterblast-orf" points="71,35 76,30 93,30 93,40 76,40 71,35 " id="knownclusterblast-3_q3_1_2"  />
<polygon style="stroke:black; stroke-width:1; fill:rgb(42,169,42); " description="hypothetical protein[br]Location: 2204423 - 2205176" locus_tag="WP_070653592.1" class="clusterblast-orf" points="92,35 97,30 114,30 114,40 97,40 92,35 " id="knownclusterblast-3_q3_1_3"  />
<polygon style="stroke:black; stroke-width:1; fill:rgb(42,169,212); " description="ABC transporter ATP-binding protein[br]Location: 2205176 - 2206085" locus_tag="WP_077699979.1" class="clusterblast-orf" points="114,35 119,30 140,30 140,40 119,40 114,35 " id="knownclusterblast-3_q3_1_4"  />
<polygon style="stroke:black; stroke-width:1; fill:#FFFFFF; " description="ATP-binding protein[br]Location: 2206395 - 2207289" locus_tag="DG019_RS11085" class="clusterblast-orf" points="149,40 169,40 174,35 169,30 149,30 149,40 " id="knownclusterblast-3_q3_1_5"  />
<polygon style="stroke:black; stroke-width:1; fill:#FFFFFF; " description="hypothetical protein[br]Location: 2207296 - 2207488" locus_tag="WP_077699978.1" class="clusterblast-orf" points="174,35 179,30 180,30 180,40 179,40 174,35 " id="knownclusterblast-3_q3_1_6"  />
<polygon style="stroke:black; stroke-width:1; fill:#FFFFFF; " description="hypothetical protein[br]Location: 2208018 - 2208363" locus_tag="WP_077699977.1" class="clusterblast-orf" points="195,40 200,40 205,35 200,30 195,30 195,40 " id="knownclusterblast-3_q3_1_7"  />
<polygon style="stroke:black; stroke-width:1; fill:#FFFFFF; " description="replication protein[br]Location: 2209345 - 2210314" locus_tag="WP_077699976.1" class="clusterblast-orf" points="233,35 238,30 260,30 260,40 238,40 233,35 " id="knownclusterblast-3_q3_1_8"  />
<polygon style="stroke:black; stroke-width:1; fill:#FFFFFF; " description="DUF536 domain-containing protein[br]Location: 2210783 - 2211476" locus_tag="WP_077699975.1" class="clusterblast-orf" points="274,40 288,40 293,35 288,30 274,30 274,40 " id="knownclusterblast-3_q3_1_9"  />
<polygon style="stroke:black; stroke-width:1; fill:rgb(169,169,42); " description="hypothetical protein[br]Location: 2211880 - 2213074" locus_tag="WP_077699974.1" class="clusterblast-orf" points="305,35 310,30 339,30 339,40 310,40 305,35 " id="knownclusterblast-3_q3_1_10"  />
<polygon style="stroke:black; stroke-width:1; fill:rgb(169,42,127); " description="hypothetical protein[br]Location: 2213058 - 2215983" locus_tag="WP_077699973.1" class="clusterblast-orf" points="338,35 343,30 422,30 422,40 343,40 338,35 " id="knownclusterblast-3_q3_1_11"  />
<polygon style="stroke:black; stroke-width:1; fill:rgb(42,42,212); " description="hypothetical protein[br]Location: 2215969 - 2216872" locus_tag="WP_077699972.1" class="clusterblast-orf" points="421,35 426,30 447,30 447,40 426,40 421,35 " id="knownclusterblast-3_q3_1_12"  />
<polygon style="stroke:black; stroke-width:1; fill:rgb(169,169,212); " description="hypothetical protein[br]Location: 2216939 - 2217110" locus_tag="WP_077699971.1" class="clusterblast-orf" points="449,35 454,30 454,30 454,40 454,40 449,35 " id="knownclusterblast-3_q3_1_13"  />
<polygon style="stroke:black; stroke-width:1; fill:rgb(42,169,127); " description="hypothetical protein[br]Location: 2217167 - 2217356" locus_tag="WP_077699970.1" class="clusterblast-orf" points="455,35 460,30 461,30 461,40 460,40 455,35 " id="knownclusterblast-3_q3_1_14"  />
<polygon style="stroke:black; stroke-width:1; fill:rgb(169,42,212); " description="SDR family oxidoreductase[br]Location: 2217430 - 2218174" locus_tag="WP_077699969.1" class="clusterblast-orf" points="463,35 468,30 484,30 484,40 468,40 463,35 " id="knownclusterblast-3_q3_1_15"  />
<polygon style="stroke:black; stroke-width:1; fill:#FFFFFF; " description="ATP-binding cassette domain-containing protein[br]Location: 2219265 - 2219961" locus_tag="WP_077699968.1" class="clusterblast-orf" points="515,40 530,40 535,35 530,30 515,30 515,40 " id="knownclusterblast-3_q3_1_16"  />
<polygon style="stroke:black; stroke-width:1; fill:rgb(42,42,127); " description="hypothetical protein[br]Location: 2219962 - 2220736" locus_tag="WP_077699967.1" class="clusterblast-orf" points="535,40 552,40 557,35 552,30 535,30 535,40 " id="knownclusterblast-3_q3_1_17"  />
<polygon style="stroke:black; stroke-width:1; fill:rgb(169,169,127); " description="recombinase family protein[br]Location: 2221308 - 2221947" locus_tag="WP_077699966.1" class="clusterblast-orf" points="573,35 578,30 591,30 591,40 578,40 573,35 " id="knownclusterblast-3_q3_1_18"  />
<polygon style="stroke:black; stroke-width:1; fill:#FFFFFF; " description="transporter[br]Location: 2222587 - 2225227" locus_tag="WP_002449922.1" class="clusterblast-orf" points="610,40 680,40 685,35 680,30 610,30 610,40 " id="knownclusterblast-3_q3_1_19"  />
<polygon style="stroke:black; stroke-width:1; fill:#FFFFFF; " description="ABC transporter substrate-binding protein[br]Location: 2225250 - 2226195" locus_tag="WP_053036055.1" class="clusterblast-orf" points="686,40 707,40 712,35 707,30 686,30 686,40 " id="knownclusterblast-3_q3_1_20"  />
<polygon style="stroke:black; stroke-width:1; fill:#FFFFFF; " description="TetR/AcrR family transcriptional regulator[br]Location: 2226543 - 2227113" locus_tag="WP_038812901.1" class="clusterblast-orf" points="722,40 734,40 739,35 734,30 722,30 722,40 " id="knownclusterblast-3_q3_1_21"  />
<polygon style="stroke:black; stroke-width:1; fill:#FFFFFF; " description="type I toxin-antitoxin system Fst family toxin[br]Location: 2227390 - 2227492" locus_tag="WP_002497230.1" class="clusterblast-orf" points="746,35 749,30 749,40 746,35 " id="knownclusterblast-3_q3_1_22"  />
<polygon style="stroke:black; stroke-width:1; fill:#FFFFFF; " description="glyoxalase[br]Location: 2228063 - 2228480" locus_tag="WP_077699965.1" class="clusterblast-orf" points="766,35 771,30 778,30 778,40 771,40 766,35 " id="knownclusterblast-3_q3_1_23"  />
</g>
<g class="clusterblast-cluster" description="Epicidin biosynthetic gene cluster (85% of genes show similarity)" label="BGC0000507"  >
<text class="clusterblast-acc" y="70" x="5"  >
<a xlink:href="http://mibig.secondarymetabolites.org/repository/BGC0000507/index.html#cluster-1" target="_blank">BGC0000507</a>: Epicidin biosynthetic gene cluster (85% of genes show similarity)</text>
<line y1="85" x2="778.0" style="stroke:grey; stroke-width:1; " x1="10" y2="85"  />
<polygon style="stroke:black; stroke-width:1; fill:rgb(169,169,42); " description="EciC_protein[br]Location: 5998 - 7191&lt;br&gt;&lt;br&gt;&lt;b&gt;BlastP hit with WP_077699974.1&lt;/b&gt;&lt;br&gt;Percentage identity: 93%&lt;br&gt;Percentage coverage: 100%&lt;br&gt;BLAST bit score: 733&lt;br&gt;E-value: 1.6e-211" locus_tag="CAA74351.1" id="knownclusterblast-3_h3_1_0" points="291,85 296,80 324,80 324,90 296,90 291,85 " class="clusterblast-orf"  />
<polygon style="stroke:black; stroke-width:1; fill:rgb(169,42,127); " description="EciB_protein[br]Location: 3083 - 6013&lt;br&gt;&lt;br&gt;&lt;b&gt;BlastP hit with WP_077699973.1&lt;/b&gt;&lt;br&gt;Percentage identity: 83%&lt;br&gt;Percentage coverage: 100%&lt;br&gt;BLAST bit score: 1618&lt;br&gt;E-value: 0.0" locus_tag="CAA74350.1" id="knownclusterblast-3_h3_1_1" points="324,85 329,80 407,80 407,90 329,90 324,85 " class="clusterblast-orf"  />
<polygon style="stroke:black; stroke-width:1; fill:rgb(42,42,212); " description="protease[br]Location: 2194 - 3096&lt;br&gt;&lt;br&gt;&lt;b&gt;BlastP hit with WP_077699972.1&lt;/b&gt;&lt;br&gt;Percentage identity: 81%&lt;br&gt;Percentage coverage: 100%&lt;br&gt;BLAST bit score: 491&lt;br&gt;E-value: 6.3e-139" locus_tag="CAA74349.1" id="knownclusterblast-3_h3_1_2" points="407,85 412,80 433,80 433,90 412,90 407,85 " class="clusterblast-orf"  />
<polygon style="stroke:black; stroke-width:1; fill:rgb(169,169,212); " description="epicidin_280[br]Location: 1940 - 2110&lt;br&gt;&lt;br&gt;&lt;b&gt;BlastP hit with WP_077699971.1&lt;/b&gt;&lt;br&gt;Percentage identity: 82%&lt;br&gt;Percentage coverage: 100%&lt;br&gt;BLAST bit score: 92&lt;br&gt;E-value: 1.2e-19" locus_tag="CAA74348.1" id="knownclusterblast-3_h3_1_3" points="435,85 440,80 440,80 440,90 440,90 435,85 " class="clusterblast-orf"  />
<polygon style="stroke:black; stroke-width:1; fill:rgb(42,169,127); " description="EciI_protein[br]Location: 1690 - 1878&lt;br&gt;&lt;br&gt;&lt;b&gt;BlastP hit with WP_077699970.1&lt;/b&gt;&lt;br&gt;Percentage identity: 81%&lt;br&gt;Percentage coverage: 100%&lt;br&gt;BLAST bit score: 96&lt;br&gt;E-value: 1.6e-20" locus_tag="CAA74347.1" id="knownclusterblast-3_h3_1_4" points="442,85 447,80 447,80 447,90 447,90 442,85 " class="clusterblast-orf"  />
<polygon style="stroke:black; stroke-width:1; fill:rgb(169,42,212); " description="oxidoreductase[br]Location: 874 - 1617&lt;br&gt;&lt;br&gt;&lt;b&gt;BlastP hit with WP_077699969.1&lt;/b&gt;&lt;br&gt;Percentage identity: 90%&lt;br&gt;Percentage coverage: 100%&lt;br&gt;BLAST bit score: 436&lt;br&gt;E-value: 2.6e-122" locus_tag="CAA74346.1" id="knownclusterblast-3_h3_1_5" points="449,85 454,80 470,80 470,90 454,90 449,85 " class="clusterblast-orf"  />
<polygon style="stroke:black; stroke-width:1; fill:#FFFFFF; " description="transposase[br]Location: 1 - 30" locus_tag="CAA74345.1" id="knownclusterblast-3_h3_1_6" points="494,90 495,85 494,80 494,90 " class="clusterblast-orf"  />
</g>
</svg>
