<svg xmlns="http://www.w3.org/2000/svg" height="230" width="800" version="1.1" y="0" x="0" preserveAspectRatio="none" xmlns:xlink="http://www.w3.org/1999/xlink" viewBox="0 0 800 230"  >
<g class="clusterblast-cluster" label="Query sequence"  >
<text class="clusterblast-acc" y="20" x="5"  >
Query sequence</text>
<line y1="35" x2="778.0" style="stroke:grey; stroke-width:1; " x1="10" y2="35"  />
<polygon style="stroke:black; stroke-width:1; fill:#FFFFFF; " description="YjiH family protein[br]Location: 1134051 - 1135422" locus_tag="WP_029376782.1" class="clusterblast-orf" points="10,35 15,30 78,30 78,40 15,40 10,35 " id="knownclusterblast-1_q1_1_0"  />
<polygon style="stroke:black; stroke-width:1; fill:#FFFFFF; " description="iron-dicitrate ABC transporter permease[br]Location: 1135653 - 1136619" locus_tag="WP_017175371.1" class="clusterblast-orf" points="90,35 95,30 139,30 139,40 95,40 90,35 " id="knownclusterblast-1_q1_1_1"  />
<polygon style="stroke:black; stroke-width:1; fill:#FFFFFF; " description="iron ABC transporter permease[br]Location: 1136615 - 1137647" locus_tag="WP_017175372.1" class="clusterblast-orf" points="138,35 143,30 190,30 190,40 143,40 138,35 " id="knownclusterblast-1_q1_1_2"  />
<polygon style="stroke:black; stroke-width:1; fill:#FFFFFF; " description="iron citrate ABC transporter substrate-binding protein[br]Location: 1137659 - 1138658" locus_tag="WP_017175373.1" class="clusterblast-orf" points="191,35 196,30 241,30 241,40 196,40 191,35 " id="knownclusterblast-1_q1_1_3"  />
<polygon style="stroke:black; stroke-width:1; fill:red; " description="alanine racemase[br]Location: 1138855 - 1139917" locus_tag="WP_017175374.1" class="clusterblast-orf" points="251,35 256,30 305,30 305,40 256,40 251,35 " id="knownclusterblast-1_q1_1_4"  />
<polygon style="stroke:black; stroke-width:1; fill:green; " description="siderophore synthetase[br]Location: 1139917 - 1141675" locus_tag="WP_017175375.1" class="clusterblast-orf" points="305,35 310,30 393,30 393,40 310,40 305,35 " id="knownclusterblast-1_q1_1_5"  />
<polygon style="stroke:black; stroke-width:1; fill:blue; " description="siderophore biosynthesis protein, IucA/IucC family[br]Location: 1141888 - 1143832" locus_tag="WP_017175376.1" class="clusterblast-orf" points="404,40 497,40 502,35 497,30 404,30 404,40 " id="knownclusterblast-1_q1_1_6"  />
<polygon style="stroke:black; stroke-width:1; fill:#FFFFFF; " description="Asp23/Gls24 family envelope stress response protein[br]Location: 1143942 - 1144491" locus_tag="WP_002448598.1" class="clusterblast-orf" points="507,35 512,30 535,30 535,40 512,40 507,35 " id="knownclusterblast-1_q1_1_7"  />
<polygon style="stroke:black; stroke-width:1; fill:#FFFFFF; " description="DUF2273 domain-containing protein[br]Location: 1144569 - 1144806" locus_tag="WP_002448488.1" class="clusterblast-orf" points="539,35 544,30 551,30 551,40 544,40 539,35 " id="knownclusterblast-1_q1_1_8"  />
<polygon style="stroke:black; stroke-width:1; fill:#FFFFFF; " description="alkaline shock response membrane anchor protein AmaP[br]Location: 1144818 - 1145355" locus_tag="WP_002448415.1" class="clusterblast-orf" points="551,35 556,30 578,30 578,40 556,40 551,35 " id="knownclusterblast-1_q1_1_9"  />
<polygon style="stroke:black; stroke-width:1; fill:#FFFFFF; " description="BCCT family transporter[br]Location: 1145536 - 1147099" locus_tag="WP_017175377.1" class="clusterblast-orf" points="587,35 592,30 666,30 666,40 592,40 587,35 " id="knownclusterblast-1_q1_1_10"  />
<polygon style="stroke:black; stroke-width:1; fill:#FFFFFF; " description="zinc-binding alcohol dehydrogenase family protein[br]Location: 1147262 - 1148276" locus_tag="WP_017175378.1" class="clusterblast-orf" points="674,35 679,30 725,30 725,40 679,40 674,35 " id="knownclusterblast-1_q1_1_11"  />
<polygon style="stroke:black; stroke-width:1; fill:#FFFFFF; " description="NADP-dependent oxidoreductase[br]Location: 1148308 - 1149316" locus_tag="WP_017175379.1" class="clusterblast-orf" points="727,35 732,30 778,30 778,40 732,40 727,35 " id="knownclusterblast-1_q1_1_12"  />
</g>
<g class="clusterblast-cluster" description="Staphyloferrin biosynthetic gene cluster (75% of genes show similarity)" label="BGC0000944"  >
<text class="clusterblast-acc" y="70" x="5"  >
<a xlink:href="http://mibig.secondarymetabolites.org/repository/BGC0000944/index.html#cluster-1" target="_blank">BGC0000944</a>: Staphyloferrin biosynthetic gene cluster (75% of genes show similarity)</text>
<line y1="85" x2="778.0" style="stroke:grey; stroke-width:1; " x1="10" y2="85"  />
<polygon style="stroke:black; stroke-width:1; fill:red; " description="conserved_hypothetical_protein[br]Location: 1 - 1071&lt;br&gt;&lt;br&gt;&lt;b&gt;BlastP hit with WP_017175374.1&lt;/b&gt;&lt;br&gt;Percentage identity: 56%&lt;br&gt;Percentage coverage: 98%&lt;br&gt;BLAST bit score: 374&lt;br&gt;E-value: 1e-103" locus_tag="SAOUHSC_02433" id="knownclusterblast-1_h1_1_0" points="240,85 245,80 293,80 293,90 245,90 240,85 " class="clusterblast-orf"  />
<polygon style="stroke:black; stroke-width:1; fill:green; " description="conserved_hypothetical_protein[br]Location: 1078 - 2835&lt;br&gt;&lt;br&gt;&lt;b&gt;BlastP hit with WP_017175375.1&lt;/b&gt;&lt;br&gt;Percentage identity: 55%&lt;br&gt;Percentage coverage: 99%&lt;br&gt;BLAST bit score: 640&lt;br&gt;E-value: 2.1e-183" locus_tag="SAOUHSC_02434" id="knownclusterblast-1_h1_1_1" points="294,85 299,80 382,80 382,90 299,90 294,85 " class="clusterblast-orf"  />
<polygon style="stroke:black; stroke-width:1; fill:#FFFFFF; " description="conserved_hypothetical_protein[br]Location: 2822 - 4015" locus_tag="SAOUHSC_02435" id="knownclusterblast-1_h1_1_2" points="381,85 386,80 441,80 441,90 386,90 381,85 " class="clusterblast-orf"  />
<polygon style="stroke:black; stroke-width:1; fill:blue; " description="conserved_hypothetical_protein[br]Location: 4117 - 6093&lt;br&gt;&lt;br&gt;&lt;b&gt;BlastP hit with WP_017175376.1&lt;/b&gt;&lt;br&gt;Percentage identity: 56%&lt;br&gt;Percentage coverage: 101%&lt;br&gt;BLAST bit score: 706&lt;br&gt;E-value: 2.7e-203" locus_tag="SAOUHSC_02436" id="knownclusterblast-1_h1_1_3" points="447,90 541,90 546,85 541,80 447,80 447,90 " class="clusterblast-orf"  />
</g>
</svg>
