<svg xmlns="http://www.w3.org/2000/svg" height="270" width="768.0" version="1.1" y="0" x="0" preserveAspectRatio="none" xmlns:xlink="http://www.w3.org/1999/xlink" viewBox="0 -30 819.2 180"  >
<g  >
<line y1="60" x2="778.0" style="stroke:grey; stroke-width:2; " x1="10" y2="60"  />
</g>
<g id="a2_000"  >
<polygon style="stroke:black; stroke-width:1; fill:grey; " points="10,65 21,65 26,60 21,55 10,55 10,65 "  />
</g>
<g id="a2_001"  >
<polygon style="stroke:black; stroke-width:1; fill:grey; " points="33,60 38,55 46,55 46,65 38,65 33,60 "  />
</g>
<g id="a2_002"  >
<polygon style="stroke:black; stroke-width:1; fill:grey; " points="50,65 58,65 63,60 58,55 50,55 50,65 "  />
</g>
<g id="a2_003"  >
<polygon style="stroke:black; stroke-width:1; fill:grey; " points="63,60 68,55 83,55 83,65 68,65 63,60 "  />
</g>
<g id="a2_004"  >
<polygon style="stroke:black; stroke-width:1; fill:grey; " points="84,60 89,55 97,55 97,65 89,65 84,60 "  />
</g>
<g id="a2_005"  >
<polygon style="stroke:black; stroke-width:1; fill:grey; " points="97,60 102,55 110,55 110,65 102,65 97,60 "  />
</g>
<g id="a2_006"  >
<polygon style="stroke:black; stroke-width:1; fill:grey; " points="110,60 115,55 123,55 123,65 115,65 110,60 "  />
</g>
<g id="a2_007"  >
<polygon style="stroke:black; stroke-width:1; fill:grey; " points="123,60 128,55 139,55 139,65 128,65 123,60 "  />
</g>
<g id="a2_008"  >
<polygon style="stroke:black; stroke-width:1; fill:grey; " points="139,60 144,55 164,55 164,65 144,65 139,60 "  />
</g>
<g id="a2_009"  >
<polygon style="stroke:black; stroke-width:1; fill:grey; " points="169,60 173,55 173,65 169,60 "  />
</g>
<g id="a2_0010"  >
<polygon style="stroke:black; stroke-width:1; fill:grey; " points="173,65 175,60 173,55 173,65 "  />
</g>
<g id="a2_0011"  >
<polygon style="stroke:black; stroke-width:1; fill:grey; " points="175,65 179,65 184,60 179,55 175,55 175,65 "  />
</g>
<g id="a2_0012"  >
<polygon style="stroke:black; stroke-width:1; fill:grey; " points="195,65 196,65 201,60 196,55 195,55 195,65 "  />
</g>
<g id="a2_0013"  >
<polygon style="stroke:black; stroke-width:1; fill:grey; " points="207,60 212,55 214,55 214,65 212,65 207,60 "  />
</g>
<g id="a2_0014"  >
<polygon style="stroke:black; stroke-width:1; fill:grey; " points="214,60 216,55 216,65 214,60 "  />
</g>
<g id="a2_0015"  >
<polygon style="stroke:black; stroke-width:1; fill:grey; " points="217,60 221,55 221,65 217,60 "  />
</g>
<g id="a2_0016"  >
<polygon style="stroke:black; stroke-width:1; fill:grey; " points="221,60 226,55 231,55 231,65 226,65 221,60 "  />
</g>
<g id="a2_0017"  >
<polygon style="stroke:black; stroke-width:1; fill:grey; " points="237,60 242,55 251,55 251,65 242,65 237,60 "  />
</g>
<g id="a2_0018"  >
<polygon style="stroke:black; stroke-width:1; fill:grey; " points="253,60 257,55 257,65 253,60 "  />
</g>
<g id="a2_0019"  >
<polygon style="stroke:black; stroke-width:1; fill:grey; " points="258,60 262,55 262,65 258,60 "  />
</g>
<g id="a2_0020"  >
<polygon style="stroke:black; stroke-width:1; fill:grey; " points="262,60 266,55 266,65 262,60 "  />
</g>
<g id="a2_0021"  >
<polygon style="stroke:black; stroke-width:1; fill:grey; " points="267,60 269,55 269,65 267,60 "  />
</g>
<g id="a2_0022"  >
<polygon style="stroke:black; stroke-width:1; fill:grey; " points="277,60 282,55 296,55 296,65 282,65 277,60 "  />
</g>
<g id="a2_0023"  >
<polygon style="stroke:black; stroke-width:1; fill:grey; " points="307,60 312,55 328,55 328,65 312,65 307,60 "  />
</g>
<g id="a2_0024"  >
<polygon style="stroke:black; stroke-width:1; fill:grey; " points="328,60 333,55 340,55 340,65 333,65 328,60 "  />
</g>
<g id="a2_0025"  >
<polygon style="stroke:black; stroke-width:1; fill:#810E15; " points="340,60 345,55 364,55 364,65 345,65 340,60 "  />
</g>
<g id="a2_0026"  >
<polygon style="stroke:black; stroke-width:1; fill:#810E15; " points="369,60 374,55 423,55 423,65 374,65 369,60 "  />
</g>
<g id="a2_0027"  >
<polygon style="stroke:black; stroke-width:1; fill:grey; " points="423,60 428,55 439,55 439,65 428,65 423,60 "  />
</g>
<g id="a2_0028"  >
<polygon style="stroke:black; stroke-width:1; fill:grey; " points="439,60 444,55 456,55 456,65 444,65 439,60 "  />
</g>
<g id="a2_0029"  >
<polygon style="stroke:black; stroke-width:1; fill:grey; " points="459,65 468,65 473,60 468,55 459,55 459,65 "  />
</g>
<g id="a2_0030"  >
<polygon style="stroke:black; stroke-width:1; fill:grey; " points="474,60 479,55 486,55 486,65 479,65 474,60 "  />
</g>
<g id="a2_0031"  >
<polygon style="stroke:black; stroke-width:1; fill:grey; " points="489,65 493,60 489,55 489,65 "  />
</g>
<g id="a2_0032"  >
<polygon style="stroke:black; stroke-width:1; fill:grey; " points="501,60 506,55 514,55 514,65 506,65 501,60 "  />
</g>
<g id="a2_0033"  >
<polygon style="stroke:black; stroke-width:1; fill:grey; " points="514,60 519,55 541,55 541,65 519,65 514,60 "  />
</g>
<g id="a2_0034"  >
<polygon style="stroke:black; stroke-width:1; fill:grey; " points="542,60 547,55 550,55 550,65 547,65 542,60 "  />
</g>
<g id="a2_0035"  >
<polygon style="stroke:black; stroke-width:1; fill:grey; " points="552,60 557,55 561,55 561,65 557,65 552,60 "  />
</g>
<g id="a2_0036"  >
<polygon style="stroke:black; stroke-width:1; fill:grey; " points="561,60 566,55 567,55 567,65 566,65 561,60 "  />
</g>
<g id="a2_0037"  >
<polygon style="stroke:black; stroke-width:1; fill:grey; " points="571,65 575,60 571,55 571,65 "  />
</g>
<g id="a2_0038"  >
<polygon style="stroke:black; stroke-width:1; fill:grey; " points="576,65 580,65 585,60 580,55 576,55 576,65 "  />
</g>
<g id="a2_0039"  >
<polygon style="stroke:black; stroke-width:1; fill:grey; " points="585,65 589,65 594,60 589,55 585,55 585,65 "  />
</g>
<g id="a2_0040"  >
<polygon style="stroke:black; stroke-width:1; fill:grey; " points="596,60 601,55 601,55 601,65 601,65 596,60 "  />
</g>
<g id="a2_0041"  >
<polygon style="stroke:black; stroke-width:1; fill:grey; " points="601,60 606,55 606,55 606,65 606,65 601,60 "  />
</g>
<g id="a2_0042"  >
<polygon style="stroke:black; stroke-width:1; fill:grey; " points="608,60 611,55 611,65 608,60 "  />
</g>
<g id="a2_0043"  >
<polygon style="stroke:black; stroke-width:1; fill:grey; " points="613,60 617,55 617,65 613,60 "  />
</g>
<g id="a2_0044"  >
<polygon style="stroke:black; stroke-width:1; fill:grey; " points="622,65 625,60 622,55 622,65 "  />
</g>
<g id="a2_0045"  >
<polygon style="stroke:black; stroke-width:1; fill:grey; " points="627,65 628,65 633,60 628,55 627,55 627,65 "  />
</g>
<g id="a2_0046"  >
<polygon style="stroke:black; stroke-width:1; fill:grey; " points="635,60 639,55 639,65 635,60 "  />
</g>
<g id="a2_0047"  >
<polygon style="stroke:black; stroke-width:1; fill:grey; " points="639,65 641,65 646,60 641,55 639,55 639,65 "  />
</g>
<g id="a2_0048"  >
<polygon style="stroke:black; stroke-width:1; fill:grey; " points="653,60 658,55 662,55 662,65 658,65 653,60 "  />
</g>
<g id="a2_0049"  >
<polygon style="stroke:black; stroke-width:1; fill:grey; " points="664,60 669,55 673,55 673,65 669,65 664,60 "  />
</g>
<g id="a2_0050"  >
<polygon style="stroke:black; stroke-width:1; fill:grey; " points="673,60 678,55 692,55 692,65 678,65 673,60 "  />
</g>
<g id="a2_0051"  >
<polygon style="stroke:black; stroke-width:1; fill:grey; " points="693,65 711,65 716,60 711,55 693,55 693,65 "  />
</g>
<g id="a2_0052"  >
<polygon style="stroke:black; stroke-width:1; fill:grey; " points="715,60 720,55 726,55 726,65 720,65 715,60 "  />
</g>
<g id="a2_0053"  >
<polygon style="stroke:black; stroke-width:1; fill:grey; " points="728,65 739,65 744,60 739,55 728,55 728,65 "  />
</g>
<g id="a2_0054"  >
<polygon style="stroke:black; stroke-width:1; fill:grey; " points="743,60 748,55 778,55 778,65 748,65 743,60 "  />
</g>
<g  >
<line y1="0" x2="176.318471338" style="stroke:grey; stroke-width:1; " x1="10" y2="0"  />
</g>
<g id="b2_000"  >
<defs  >
<linearGradient id="TE_domain2_1"  >
<stop stop-color="#750072" stop-opacity="1" offset="0%"  />
<stop stop-color="#F5A9F2" stop-opacity="1" offset="100%"  />
</linearGradient>
</defs>
<defs  >
<linearGradient id="TE_line2_1"  >
<stop stop-color="#F5A9F2" stop-opacity="1" offset="0%"  />
<stop stop-color="#750072" stop-opacity="1" offset="100%"  />
</linearGradient>
</defs>
<rect style="stroke:url(#TE_line2_1); stroke-width:1; fill:url(#TE_domain2_1); " rx="8" height="15" width="141.859872611" y="-8" x="22.5787079163"  />
<text style="font-size:12px; font-family:MS Reference Sans Serif; font-weight:bold; " y="4" x="83.508644222" fill="#2A0A29"  >
TE</text>
<line y1="60" x2="348.227479527" style="stroke:grey; stroke-width:1; " x1="10" y2="60"  />
</g>
<g id="b2_000"  >
<defs  >
<linearGradient id="TE_domain2_1"  >
<stop stop-color="#750072" stop-opacity="1" offset="0%"  />
<stop stop-color="#F5A9F2" stop-opacity="1" offset="100%"  />
</linearGradient>
</defs>
<defs  >
<linearGradient id="TE_line2_1"  >
<stop stop-color="#F5A9F2" stop-opacity="1" offset="0%"  />
<stop stop-color="#750072" stop-opacity="1" offset="100%"  />
</linearGradient>
</defs>
<rect style="stroke:url(#TE_line2_1); stroke-width:1; fill:url(#TE_domain2_1); " rx="8" height="15" width="141.859872611" y="-8" x="22.5787079163"  />
<text style="font-size:12px; font-family:MS Reference Sans Serif; font-weight:bold; " y="4" x="83.508644222" fill="#2A0A29"  >
TE</text>
<line y1="60" x2="348.227479527" style="stroke:grey; stroke-width:1; " x1="10" y2="60"  />
</g>
<g id="b2_001"  >
<defs  >
<linearGradient id="A_domain2_1"  >
<stop stop-color="#56157F" stop-opacity="1" offset="0%"  />
<stop stop-color="#BE81F7" stop-opacity="1" offset="100%"  />
</linearGradient>
</defs>
<defs  >
<linearGradient id="A_line2_1"  >
<stop stop-color="#BE81F7" stop-opacity="1" offset="0%"  />
<stop stop-color="#56157F" stop-opacity="1" offset="100%"  />
</linearGradient>
</defs>
<rect style="stroke:url(#A_line2_1); stroke-width:1; fill:url(#A_domain2_1); " rx="8" height="15" width="192.873521383" y="52" x="37.9526842584"  />
<text style="font-size:12px; font-family:MS Reference Sans Serif; font-weight:bold; " y="64" x="124.38944495" fill="#1B0A2A"  >
A</text>
</g>
<g id="b2_002"  >
<defs  >
<linearGradient id="PCP_domain2_1"  >
<stop stop-color="#084BC6" stop-opacity="1" offset="0%"  />
<stop stop-color="#81BEF7" stop-opacity="1" offset="100%"  />
</linearGradient>
</defs>
<defs  >
<linearGradient id="PCP_line2_1"  >
<stop stop-color="#81BEF7" stop-opacity="1" offset="0%"  />
<stop stop-color="#084BC6" stop-opacity="1" offset="100%"  />
</linearGradient>
</defs>
<rect style="stroke:url(#PCP_line2_1); stroke-width:1; fill:url(#PCP_domain2_1); " rx="8" height="15" width="43.3266606005" y="52" x="297.912647862"  />
<text style="font-size:8px; font-family:MS Reference Sans Serif; font-weight:bold; " y="63" x="307.575978162" fill="#0A1B2A"  >
PCP</text>
<line y1="120" x2="778.0" style="stroke:grey; stroke-width:1; " x1="10" y2="120"  />
</g>
<g id="b2_002"  >
<defs  >
<linearGradient id="PCP_domain2_1"  >
<stop stop-color="#084BC6" stop-opacity="1" offset="0%"  />
<stop stop-color="#81BEF7" stop-opacity="1" offset="100%"  />
</linearGradient>
</defs>
<defs  >
<linearGradient id="PCP_line2_1"  >
<stop stop-color="#81BEF7" stop-opacity="1" offset="0%"  />
<stop stop-color="#084BC6" stop-opacity="1" offset="100%"  />
</linearGradient>
</defs>
<rect style="stroke:url(#PCP_line2_1); stroke-width:1; fill:url(#PCP_domain2_1); " rx="8" height="15" width="43.3266606005" y="52" x="297.912647862"  />
<text style="font-size:8px; font-family:MS Reference Sans Serif; font-weight:bold; " y="63" x="307.575978162" fill="#0A1B2A"  >
PCP</text>
<line y1="120" x2="778.0" style="stroke:grey; stroke-width:1; " x1="10" y2="120"  />
</g>
<g id="b2_003"  >
<defs  >
<linearGradient id="A_domain2_2"  >
<stop stop-color="#56157F" stop-opacity="1" offset="0%"  />
<stop stop-color="#BE81F7" stop-opacity="1" offset="100%"  />
</linearGradient>
</defs>
<defs  >
<linearGradient id="A_line2_2"  >
<stop stop-color="#BE81F7" stop-opacity="1" offset="0%"  />
<stop stop-color="#56157F" stop-opacity="1" offset="100%"  />
</linearGradient>
</defs>
<rect style="stroke:url(#A_line2_2); stroke-width:1; fill:url(#A_domain2_2); " rx="8" height="15" width="273.936305732" y="112" x="51.9290263876"  />
<text style="font-size:12px; font-family:MS Reference Sans Serif; font-weight:bold; " y="124" x="178.897179254" fill="#1B0A2A"  >
A</text>
</g>
<g id="b2_004"  >
<defs  >
<linearGradient id="PCP_domain2_2"  >
<stop stop-color="#084BC6" stop-opacity="1" offset="0%"  />
<stop stop-color="#81BEF7" stop-opacity="1" offset="100%"  />
</linearGradient>
</defs>
<defs  >
<linearGradient id="PCP_line2_2"  >
<stop stop-color="#81BEF7" stop-opacity="1" offset="0%"  />
<stop stop-color="#084BC6" stop-opacity="1" offset="100%"  />
</linearGradient>
</defs>
<rect style="stroke:url(#PCP_line2_2); stroke-width:1; fill:url(#PCP_domain2_2); " rx="8" height="15" width="38.4349408553" y="112" x="407.626933576"  />
<text style="font-size:8px; font-family:MS Reference Sans Serif; font-weight:bold; " y="123" x="414.844404004" fill="#0A1B2A"  >
PCP</text>
</g>
<g id="b2_005"  >
<defs  >
<linearGradient id="C_domain2_1"  >
<stop stop-color="#393989" stop-opacity="1" offset="0%"  />
<stop stop-color="#8181F7" stop-opacity="1" offset="100%"  />
</linearGradient>
</defs>
<defs  >
<linearGradient id="C_line2_1"  >
<stop stop-color="#8181F7" stop-opacity="1" offset="0%"  />
<stop stop-color="#393989" stop-opacity="1" offset="100%"  />
</linearGradient>
</defs>
<rect style="stroke:url(#C_line2_1); stroke-width:1; fill:url(#C_domain2_1); " rx="8" height="15" width="204.054595086" y="112" x="468.424021838"  />
<text style="font-size:12px; font-family:MS Reference Sans Serif; font-weight:bold; " y="124" x="560.451319381" fill="#0A0A2A"  >
C</text>
</g>
<g id="b2_005"  >
<defs  >
<linearGradient id="C_domain2_1"  >
<stop stop-color="#393989" stop-opacity="1" offset="0%"  />
<stop stop-color="#8181F7" stop-opacity="1" offset="100%"  />
</linearGradient>
</defs>
<defs  >
<linearGradient id="C_line2_1"  >
<stop stop-color="#8181F7" stop-opacity="1" offset="0%"  />
<stop stop-color="#393989" stop-opacity="1" offset="100%"  />
</linearGradient>
</defs>
<rect style="stroke:url(#C_line2_1); stroke-width:1; fill:url(#C_domain2_1); " rx="8" height="15" width="204.054595086" y="112" x="468.424021838"  />
<text style="font-size:12px; font-family:MS Reference Sans Serif; font-weight:bold; " y="124" x="560.451319381" fill="#0A0A2A"  >
C</text>
</g>
</svg>
