<svg xmlns="http://www.w3.org/2000/svg" height="180" width="768.0" version="1.1" y="0" x="0" preserveAspectRatio="none" xmlns:xlink="http://www.w3.org/1999/xlink" viewBox="0 -30 819.2 120"  >
<g  >
<line y1="60" x2="778.0" style="stroke:grey; stroke-width:2; " x1="10" y2="60"  />
</g>
<g id="a2_000"  >
<polygon style="stroke:black; stroke-width:1; fill:grey; " points="10,65 21,65 26,60 21,55 10,55 10,65 "  />
</g>
<g id="a2_001"  >
<polygon style="stroke:black; stroke-width:1; fill:grey; " points="82,65 94,65 99,60 94,55 82,55 82,65 "  />
</g>
<g id="a2_002"  >
<polygon style="stroke:black; stroke-width:1; fill:grey; " points="103,60 108,55 122,55 122,65 108,65 103,60 "  />
</g>
<g id="a2_003"  >
<polygon style="stroke:black; stroke-width:1; fill:grey; " points="150,65 245,65 250,60 245,55 150,55 150,65 "  />
</g>
<g id="a2_004"  >
<polygon style="stroke:black; stroke-width:1; fill:grey; " points="250,60 255,55 275,55 275,65 255,65 250,60 "  />
</g>
<g id="a2_005"  >
<polygon style="stroke:black; stroke-width:1; fill:#810E15; " points="275,60 280,55 369,55 369,65 280,65 275,60 "  />
</g>
<g id="a2_006"  >
<polygon style="stroke:black; stroke-width:1; fill:#810E15; " points="381,65 479,65 484,60 479,55 381,55 381,65 "  />
</g>
<g id="a2_007"  >
<polygon style="stroke:black; stroke-width:1; fill:grey; " points="490,60 495,55 520,55 520,65 495,65 490,60 "  />
</g>
<g id="a2_008"  >
<polygon style="stroke:black; stroke-width:1; fill:grey; " points="524,60 529,55 537,55 537,65 529,65 524,60 "  />
</g>
<g id="a2_009"  >
<polygon style="stroke:black; stroke-width:1; fill:grey; " points="537,60 542,55 566,55 566,65 542,65 537,60 "  />
</g>
<g id="a2_0010"  >
<polygon style="stroke:black; stroke-width:1; fill:grey; " points="575,60 580,55 659,55 659,65 580,65 575,60 "  />
</g>
<g id="a2_0011"  >
<polygon style="stroke:black; stroke-width:1; fill:grey; " points="668,60 673,55 722,55 722,65 673,65 668,60 "  />
</g>
<g id="a2_0012"  >
<polygon style="stroke:black; stroke-width:1; fill:grey; " points="724,60 729,55 778,55 778,65 729,65 724,60 "  />
</g>
<g  >
<line y1="0" x2="778.0" style="stroke:grey; stroke-width:1; " x1="10" y2="0"  />
</g>
<g id="b2_000"  >
<defs  >
<linearGradient id="ER_domain2_1"  >
<stop stop-color="#089E85" stop-opacity="1" offset="0%"  />
<stop stop-color="#81F7F3" stop-opacity="1" offset="100%"  />
</linearGradient>
</defs>
<defs  >
<linearGradient id="ER_line2_1"  >
<stop stop-color="#81F7F3" stop-opacity="1" offset="0%"  />
<stop stop-color="#089E85" stop-opacity="1" offset="100%"  />
</linearGradient>
</defs>
<rect style="stroke:url(#ER_line2_1); stroke-width:1; fill:url(#ER_domain2_1); " rx="8" height="15" width="704.378698225" y="-8" x="62.2603550296"  />
<text style="font-size:12px; font-family:MS Reference Sans Serif; font-weight:bold; " y="4" x="400.449704142" fill="#0A2A29"  >
ER</text>
<line y1="60" x2="773.455621302" style="stroke:grey; stroke-width:1; " x1="10" y2="60"  />
</g>
<g id="b2_000"  >
<defs  >
<linearGradient id="ER_domain2_1"  >
<stop stop-color="#089E85" stop-opacity="1" offset="0%"  />
<stop stop-color="#81F7F3" stop-opacity="1" offset="100%"  />
</linearGradient>
</defs>
<defs  >
<linearGradient id="ER_line2_1"  >
<stop stop-color="#81F7F3" stop-opacity="1" offset="0%"  />
<stop stop-color="#089E85" stop-opacity="1" offset="100%"  />
</linearGradient>
</defs>
<rect style="stroke:url(#ER_line2_1); stroke-width:1; fill:url(#ER_domain2_1); " rx="8" height="15" width="704.378698225" y="-8" x="62.2603550296"  />
<text style="font-size:12px; font-family:MS Reference Sans Serif; font-weight:bold; " y="4" x="400.449704142" fill="#0A2A29"  >
ER</text>
<line y1="60" x2="773.455621302" style="stroke:grey; stroke-width:1; " x1="10" y2="60"  />
</g>
<g id="b2_001"  >
<defs  >
<linearGradient id="ER_domain2_2"  >
<stop stop-color="#089E85" stop-opacity="1" offset="0%"  />
<stop stop-color="#81F7F3" stop-opacity="1" offset="100%"  />
</linearGradient>
</defs>
<defs  >
<linearGradient id="ER_line2_2"  >
<stop stop-color="#81F7F3" stop-opacity="1" offset="0%"  />
<stop stop-color="#089E85" stop-opacity="1" offset="100%"  />
</linearGradient>
</defs>
<rect style="stroke:url(#ER_line2_2); stroke-width:1; fill:url(#ER_domain2_2); " rx="8" height="15" width="565.775147929" y="52" x="191.775147929"  />
<text style="font-size:12px; font-family:MS Reference Sans Serif; font-weight:bold; " y="64" x="460.662721893" fill="#0A2A29"  >
ER</text>
</g>
<g id="b2_001"  >
<defs  >
<linearGradient id="ER_domain2_2"  >
<stop stop-color="#089E85" stop-opacity="1" offset="0%"  />
<stop stop-color="#81F7F3" stop-opacity="1" offset="100%"  />
</linearGradient>
</defs>
<defs  >
<linearGradient id="ER_line2_2"  >
<stop stop-color="#81F7F3" stop-opacity="1" offset="0%"  />
<stop stop-color="#089E85" stop-opacity="1" offset="100%"  />
</linearGradient>
</defs>
<rect style="stroke:url(#ER_line2_2); stroke-width:1; fill:url(#ER_domain2_2); " rx="8" height="15" width="565.775147929" y="52" x="191.775147929"  />
<text style="font-size:12px; font-family:MS Reference Sans Serif; font-weight:bold; " y="64" x="460.662721893" fill="#0A2A29"  >
ER</text>
</g>
</svg>
