<svg xmlns="http://www.w3.org/2000/svg" height="230" width="800" version="1.1" y="0" x="0" preserveAspectRatio="none" xmlns:xlink="http://www.w3.org/1999/xlink" viewBox="0 0 800 230"  >
<g class="clusterblast-cluster" label="Query sequence"  >
<text class="clusterblast-acc" y="20" x="5"  >
Query sequence</text>
<line y1="35" x2="778.0" style="stroke:grey; stroke-width:1; " x1="10" y2="35"  />
<polygon style="stroke:black; stroke-width:1; fill:#FFFFFF; " description="arginine:agmatine antiporter[br]Location: 1751658 - 1751967" locus_tag="B7P03_RS08660" class="clusterblast-orf" points="10,40 21,40 26,35 21,30 10,30 10,40 " id="knownclusterblast-2_q2_1_0"  />
<polygon style="stroke:black; stroke-width:1; fill:#FFFFFF; " description="hypothetical protein[br]Location: 1753006 - 1753336" locus_tag="WP_087437217.1" class="clusterblast-orf" points="82,40 94,40 99,35 94,30 82,30 82,40 " id="knownclusterblast-2_q2_1_1"  />
<polygon style="stroke:black; stroke-width:1; fill:#FFFFFF; " description="hypothetical protein[br]Location: 1753412 - 1753772" locus_tag="WP_087437216.1" class="clusterblast-orf" points="103,35 108,30 122,30 122,40 108,40 103,35 " id="knownclusterblast-2_q2_1_2"  />
<polygon style="stroke:black; stroke-width:1; fill:#FFFFFF; " description="hypothetical protein[br]Location: 1754292 - 1756155" locus_tag="WP_087437214.1" class="clusterblast-orf" points="150,40 245,40 250,35 245,30 150,30 150,40 " id="knownclusterblast-2_q2_1_3"  />
<polygon style="stroke:black; stroke-width:1; fill:red; " description="alanine racemase[br]Location: 1756169 - 1756634" locus_tag="B7P03_RS08680" class="clusterblast-orf" points="250,35 255,30 275,30 275,40 255,40 250,35 " id="knownclusterblast-2_q2_1_4"  />
<polygon style="stroke:black; stroke-width:1; fill:green; " description="siderophore synthetase[br]Location: 1756634 - 1758392" locus_tag="WP_087436906.1" class="clusterblast-orf" points="275,35 280,30 369,30 369,40 280,40 275,35 " id="knownclusterblast-2_q2_1_5"  />
<polygon style="stroke:black; stroke-width:1; fill:blue; " description="sialic acid synthase[br]Location: 1758605 - 1760549" locus_tag="WP_087436905.1" class="clusterblast-orf" points="381,40 479,40 484,35 479,30 381,30 381,40 " id="knownclusterblast-2_q2_1_6"  />
<polygon style="stroke:black; stroke-width:1; fill:#FFFFFF; " description="Asp23/Gls24 family envelope stress response protein[br]Location: 1760661 - 1761210" locus_tag="WP_087436904.1" class="clusterblast-orf" points="490,35 495,30 520,30 520,40 495,40 490,35 " id="knownclusterblast-2_q2_1_7"  />
<polygon style="stroke:black; stroke-width:1; fill:#FFFFFF; " description="DUF2273 domain-containing protein[br]Location: 1761289 - 1761526" locus_tag="WP_002448488.1" class="clusterblast-orf" points="524,35 529,30 537,30 537,40 529,40 524,35 " id="knownclusterblast-2_q2_1_8"  />
<polygon style="stroke:black; stroke-width:1; fill:#FFFFFF; " description="alkaline shock response membrane anchor protein AmaP[br]Location: 1761538 - 1762075" locus_tag="WP_087436903.1" class="clusterblast-orf" points="537,35 542,30 566,30 566,40 542,40 537,35 " id="knownclusterblast-2_q2_1_9"  />
<polygon style="stroke:black; stroke-width:1; fill:#FFFFFF; " description="BCCT family transporter[br]Location: 1762243 - 1763818" locus_tag="WP_087436902.1" class="clusterblast-orf" points="575,35 580,30 659,30 659,40 580,40 575,35 " id="knownclusterblast-2_q2_1_10"  />
<polygon style="stroke:black; stroke-width:1; fill:#FFFFFF; " description="zinc-binding alcohol dehydrogenase family protein[br]Location: 1763981 - 1764995" locus_tag="WP_087436901.1" class="clusterblast-orf" points="668,35 673,30 722,30 722,40 673,40 668,35 " id="knownclusterblast-2_q2_1_11"  />
<polygon style="stroke:black; stroke-width:1; fill:#FFFFFF; " description="NADP-dependent oxidoreductase[br]Location: 1765027 - 1766035" locus_tag="WP_087436900.1" class="clusterblast-orf" points="724,35 729,30 778,30 778,40 729,40 724,35 " id="knownclusterblast-2_q2_1_12"  />
</g>
<g class="clusterblast-cluster" description="Staphyloferrin biosynthetic gene cluster (75% of genes show similarity)" label="BGC0000944"  >
<text class="clusterblast-acc" y="70" x="5"  >
<a xlink:href="http://mibig.secondarymetabolites.org/repository/BGC0000944/index.html#cluster-1" target="_blank">BGC0000944</a>: Staphyloferrin biosynthetic gene cluster (75% of genes show similarity)</text>
<line y1="85" x2="778.0" style="stroke:grey; stroke-width:1; " x1="10" y2="85"  />
<polygon style="stroke:black; stroke-width:1; fill:red; " description="conserved_hypothetical_protein[br]Location: 1 - 1071&lt;br&gt;&lt;br&gt;&lt;b&gt;BlastP hit with B7P03_RS08680&lt;/b&gt;&lt;br&gt;Percentage identity: 48%&lt;br&gt;Percentage coverage: 100%&lt;br&gt;BLAST bit score: 150&lt;br&gt;E-value: 1.4e-36" locus_tag="SAOUHSC_02433" id="knownclusterblast-2_h2_1_0" points="231,85 236,80 288,80 288,90 236,90 231,85 " class="clusterblast-orf"  />
<polygon style="stroke:black; stroke-width:1; fill:green; " description="conserved_hypothetical_protein[br]Location: 1078 - 2835&lt;br&gt;&lt;br&gt;&lt;b&gt;BlastP hit with WP_087436906.1&lt;/b&gt;&lt;br&gt;Percentage identity: 55%&lt;br&gt;Percentage coverage: 99%&lt;br&gt;BLAST bit score: 640&lt;br&gt;E-value: 1.6e-183" locus_tag="SAOUHSC_02434" id="knownclusterblast-2_h2_1_1" points="288,85 293,80 382,80 382,90 293,90 288,85 " class="clusterblast-orf"  />
<polygon style="stroke:black; stroke-width:1; fill:#FFFFFF; " description="conserved_hypothetical_protein[br]Location: 2822 - 4015" locus_tag="SAOUHSC_02435" id="knownclusterblast-2_h2_1_2" points="381,85 386,80 445,80 445,90 386,90 381,85 " class="clusterblast-orf"  />
<polygon style="stroke:black; stroke-width:1; fill:blue; " description="conserved_hypothetical_protein[br]Location: 4117 - 6093&lt;br&gt;&lt;br&gt;&lt;b&gt;BlastP hit with WP_087436905.1&lt;/b&gt;&lt;br&gt;Percentage identity: 56%&lt;br&gt;Percentage coverage: 101%&lt;br&gt;BLAST bit score: 703&lt;br&gt;E-value: 1.7e-202" locus_tag="SAOUHSC_02436" id="knownclusterblast-2_h2_1_3" points="450,90 551,90 556,85 551,80 450,80 450,90 " class="clusterblast-orf"  />
</g>
</svg>
