<svg xmlns="http://www.w3.org/2000/svg" height="180" width="768.0" version="1.1" y="0" x="0" preserveAspectRatio="none" xmlns:xlink="http://www.w3.org/1999/xlink" viewBox="0 -30 819.2 120"  >
<g  >
<line y1="60" x2="778.0" style="stroke:grey; stroke-width:2; " x1="10" y2="60"  />
</g>
<g id="a1_000"  >
<polygon style="stroke:black; stroke-width:1; fill:grey; " points="10,60 15,55 42,55 42,65 15,65 10,60 "  />
</g>
<g id="a1_001"  >
<polygon style="stroke:black; stroke-width:1; fill:grey; " points="42,60 47,55 84,55 84,65 47,65 42,60 "  />
</g>
<g id="a1_002"  >
<polygon style="stroke:black; stroke-width:1; fill:grey; " points="91,60 96,55 129,55 129,65 96,65 91,60 "  />
</g>
<g id="a1_003"  >
<polygon style="stroke:black; stroke-width:1; fill:grey; " points="131,60 136,55 174,55 174,65 136,65 131,60 "  />
</g>
<g id="a1_004"  >
<polygon style="stroke:black; stroke-width:1; fill:grey; " points="173,60 178,55 199,55 199,65 178,65 173,60 "  />
</g>
<g id="a1_005"  >
<polygon style="stroke:black; stroke-width:1; fill:grey; " points="205,60 210,55 272,55 272,65 210,65 205,60 "  />
</g>
<g id="a1_006"  >
<polygon style="stroke:black; stroke-width:1; fill:grey; " points="280,65 356,65 361,60 356,55 280,55 280,65 "  />
</g>
<g id="a1_007"  >
<polygon style="stroke:black; stroke-width:1; fill:grey; " points="364,60 369,55 376,55 376,65 369,65 364,60 "  />
</g>
<g id="a1_008"  >
<polygon style="stroke:black; stroke-width:1; fill:#810E15; " points="381,65 414,65 419,60 414,55 381,55 381,65 "  />
</g>
<g id="a1_009"  >
<polygon style="stroke:black; stroke-width:1; fill:grey; " points="424,65 470,65 475,60 470,55 424,55 424,65 "  />
</g>
<g id="a1_0010"  >
<polygon style="stroke:black; stroke-width:1; fill:grey; " points="476,65 530,65 535,60 530,55 476,55 476,65 "  />
</g>
<g id="a1_0011"  >
<polygon style="stroke:black; stroke-width:1; fill:grey; " points="534,65 564,65 569,60 564,55 534,55 534,65 "  />
</g>
<g id="a1_0012"  >
<polygon style="stroke:black; stroke-width:1; fill:grey; " points="571,65 662,65 667,60 662,55 571,55 571,65 "  />
</g>
<g id="a1_0013"  >
<polygon style="stroke:black; stroke-width:1; fill:grey; " points="669,65 704,65 709,60 704,55 669,55 669,65 "  />
</g>
<g id="a1_0014"  >
<polygon style="stroke:black; stroke-width:1; fill:grey; " points="709,60 714,55 742,55 742,65 714,65 709,60 "  />
</g>
<g id="a1_0015"  >
<polygon style="stroke:black; stroke-width:1; fill:grey; " points="749,60 754,55 778,55 778,65 754,65 749,60 "  />
</g>
<g  >
<line y1="0" x2="778.0" style="stroke:grey; stroke-width:1; " x1="10" y2="0"  />
</g>
<g id="b1_000"  >
<defs  >
<linearGradient id="A_domain1_1"  >
<stop stop-color="#56157F" stop-opacity="1" offset="0%"  />
<stop stop-color="#BE81F7" stop-opacity="1" offset="100%"  />
</linearGradient>
</defs>
<defs  >
<linearGradient id="A_line1_1"  >
<stop stop-color="#BE81F7" stop-opacity="1" offset="0%"  />
<stop stop-color="#56157F" stop-opacity="1" offset="100%"  />
</linearGradient>
</defs>
<rect style="stroke:url(#A_line1_1); stroke-width:1; fill:url(#A_domain1_1); " rx="8" height="15" width="571.914893617" y="-8" x="70.3338788871"  />
<text style="font-size:12px; font-family:MS Reference Sans Serif; font-weight:bold; " y="4" x="346.291325696" fill="#1B0A2A"  >
A</text>
<line y1="60" x2="598.255319149" style="stroke:grey; stroke-width:1; " x1="10" y2="60"  />
</g>
<g id="b1_000"  >
<defs  >
<linearGradient id="A_domain1_1"  >
<stop stop-color="#56157F" stop-opacity="1" offset="0%"  />
<stop stop-color="#BE81F7" stop-opacity="1" offset="100%"  />
</linearGradient>
</defs>
<defs  >
<linearGradient id="A_line1_1"  >
<stop stop-color="#BE81F7" stop-opacity="1" offset="0%"  />
<stop stop-color="#56157F" stop-opacity="1" offset="100%"  />
</linearGradient>
</defs>
<rect style="stroke:url(#A_line1_1); stroke-width:1; fill:url(#A_domain1_1); " rx="8" height="15" width="571.914893617" y="-8" x="70.3338788871"  />
<text style="font-size:12px; font-family:MS Reference Sans Serif; font-weight:bold; " y="4" x="346.291325696" fill="#1B0A2A"  >
A</text>
<line y1="60" x2="598.255319149" style="stroke:grey; stroke-width:1; " x1="10" y2="60"  />
</g>
<g id="b1_001"  >
<defs  >
<linearGradient id="other_domain1_1"  >
<stop stop-color="#929292" stop-opacity="1" offset="0%"  />
<stop stop-color="#DBDBDB" stop-opacity="1" offset="100%"  />
</linearGradient>
</defs>
<defs  >
<linearGradient id="other_line1_1"  >
<stop stop-color="#DBDBDB" stop-opacity="1" offset="0%"  />
<stop stop-color="#929292" stop-opacity="1" offset="100%"  />
</linearGradient>
</defs>
<rect style="stroke:url(#other_line1_1); stroke-width:1; fill:url(#other_domain1_1); " rx="8" height="15" width="368.288052373" y="52" x="69.0769230769"  />
<text style="font-size:8px; font-family:MS Reference Sans Serif; font-weight:bold; " y="63" x="227.220949264" fill="#0B0B0B"  >
Aminotran__</text>
</g>
<g id="b1_001"  >
<defs  >
<linearGradient id="other_domain1_1"  >
<stop stop-color="#929292" stop-opacity="1" offset="0%"  />
<stop stop-color="#DBDBDB" stop-opacity="1" offset="100%"  />
</linearGradient>
</defs>
<defs  >
<linearGradient id="other_line1_1"  >
<stop stop-color="#DBDBDB" stop-opacity="1" offset="0%"  />
<stop stop-color="#929292" stop-opacity="1" offset="100%"  />
</linearGradient>
</defs>
<rect style="stroke:url(#other_line1_1); stroke-width:1; fill:url(#other_domain1_1); " rx="8" height="15" width="368.288052373" y="52" x="69.0769230769"  />
<text style="font-size:8px; font-family:MS Reference Sans Serif; font-weight:bold; " y="63" x="227.220949264" fill="#0B0B0B"  >
Aminotran__</text>
</g>
</svg>
