<svg xmlns="http://www.w3.org/2000/svg" height="450" width="768.0" version="1.1" y="0" x="0" preserveAspectRatio="none" xmlns:xlink="http://www.w3.org/1999/xlink" viewBox="0 -30 819.2 300"  >
<g  >
<line y1="60" x2="778.0" style="stroke:grey; stroke-width:2; " x1="10" y2="60"  />
</g>
<g id="a2_000"  >
<polygon style="stroke:black; stroke-width:1; fill:grey; " points="10,60 15,55 24,55 24,65 15,65 10,60 "  />
</g>
<g id="a2_001"  >
<polygon style="stroke:black; stroke-width:1; fill:grey; " points="25,60 30,55 52,55 52,65 30,65 25,60 "  />
</g>
<g id="a2_002"  >
<polygon style="stroke:black; stroke-width:1; fill:grey; " points="53,60 58,55 73,55 73,65 58,65 53,60 "  />
</g>
<g id="a2_003"  >
<polygon style="stroke:black; stroke-width:1; fill:grey; " points="77,65 90,65 95,60 90,55 77,55 77,65 "  />
</g>
<g id="a2_004"  >
<polygon style="stroke:black; stroke-width:1; fill:grey; " points="100,65 110,65 115,60 110,55 100,55 100,65 "  />
</g>
<g id="a2_005"  >
<polygon style="stroke:black; stroke-width:1; fill:grey; " points="116,60 121,55 130,55 130,65 121,65 116,60 "  />
</g>
<g id="a2_006"  >
<polygon style="stroke:black; stroke-width:1; fill:grey; " points="130,60 134,55 134,65 130,60 "  />
</g>
<g id="a2_007"  >
<polygon style="stroke:black; stroke-width:1; fill:grey; " points="134,60 139,55 149,55 149,65 139,65 134,60 "  />
</g>
<g id="a2_008"  >
<polygon style="stroke:black; stroke-width:1; fill:grey; " points="163,60 168,55 175,55 175,65 168,65 163,60 "  />
</g>
<g id="a2_009"  >
<polygon style="stroke:black; stroke-width:1; fill:grey; " points="177,60 182,55 183,55 183,65 182,65 177,60 "  />
</g>
<g id="a2_0010"  >
<polygon style="stroke:black; stroke-width:1; fill:grey; " points="188,60 193,55 202,55 202,65 193,65 188,60 "  />
</g>
<g id="a2_0011"  >
<polygon style="stroke:black; stroke-width:1; fill:grey; " points="205,60 210,55 213,55 213,65 210,65 205,60 "  />
</g>
<g id="a2_0012"  >
<polygon style="stroke:black; stroke-width:1; fill:grey; " points="213,60 218,55 218,55 218,65 218,65 213,60 "  />
</g>
<g id="a2_0013"  >
<polygon style="stroke:black; stroke-width:1; fill:grey; " points="218,60 223,55 223,55 223,65 223,65 218,60 "  />
</g>
<g id="a2_0014"  >
<polygon style="stroke:black; stroke-width:1; fill:grey; " points="227,60 232,55 254,55 254,65 232,65 227,60 "  />
</g>
<g id="a2_0015"  >
<polygon style="stroke:black; stroke-width:1; fill:grey; " points="257,60 262,55 272,55 272,65 262,65 257,60 "  />
</g>
<g id="a2_0016"  >
<polygon style="stroke:black; stroke-width:1; fill:grey; " points="275,65 278,65 283,60 278,55 275,55 275,65 "  />
</g>
<g id="a2_0017"  >
<polygon style="stroke:black; stroke-width:1; fill:grey; " points="285,60 290,55 298,55 298,65 290,65 285,60 "  />
</g>
<g id="a2_0018"  >
<polygon style="stroke:black; stroke-width:1; fill:#810E15; " points="302,60 307,55 326,55 326,65 307,65 302,60 "  />
</g>
<g id="a2_0019"  >
<polygon style="stroke:black; stroke-width:1; fill:#810E15; " points="327,60 332,55 435,55 435,65 332,65 327,60 "  />
</g>
<g id="a2_0020"  >
<polygon style="stroke:black; stroke-width:1; fill:grey; " points="436,65 440,60 436,55 436,65 "  />
</g>
<g id="a2_0021"  >
<polygon style="stroke:black; stroke-width:1; fill:grey; " points="440,65 446,65 451,60 446,55 440,55 440,65 "  />
</g>
<g id="a2_0022"  >
<polygon style="stroke:black; stroke-width:1; fill:#810E15; " points="452,60 457,55 479,55 479,65 457,65 452,60 "  />
</g>
<g id="a2_0023"  >
<polygon style="stroke:black; stroke-width:1; fill:grey; " points="479,60 484,55 499,55 499,65 484,65 479,60 "  />
</g>
<g id="a2_0024"  >
<polygon style="stroke:black; stroke-width:1; fill:grey; " points="500,65 506,65 511,60 506,55 500,55 500,65 "  />
</g>
<g id="a2_0025"  >
<polygon style="stroke:black; stroke-width:1; fill:grey; " points="513,65 524,65 529,60 524,55 513,55 513,65 "  />
</g>
<g id="a2_0026"  >
<polygon style="stroke:black; stroke-width:1; fill:grey; " points="534,65 535,65 540,60 535,55 534,55 534,65 "  />
</g>
<g id="a2_0027"  >
<polygon style="stroke:black; stroke-width:1; fill:grey; " points="540,65 543,65 548,60 543,55 540,55 540,65 "  />
</g>
<g id="a2_0028"  >
<polygon style="stroke:black; stroke-width:1; fill:grey; " points="548,65 552,60 548,55 548,65 "  />
</g>
<g id="a2_0029"  >
<polygon style="stroke:black; stroke-width:1; fill:grey; " points="554,60 559,55 565,55 565,65 559,65 554,60 "  />
</g>
<g id="a2_0030"  >
<polygon style="stroke:black; stroke-width:1; fill:grey; " points="568,60 572,55 572,65 568,60 "  />
</g>
<g id="a2_0031"  >
<polygon style="stroke:black; stroke-width:1; fill:grey; " points="572,60 576,55 576,65 572,60 "  />
</g>
<g id="a2_0032"  >
<polygon style="stroke:black; stroke-width:1; fill:grey; " points="575,60 580,55 581,55 581,65 580,65 575,60 "  />
</g>
<g id="a2_0033"  >
<polygon style="stroke:black; stroke-width:1; fill:grey; " points="581,60 586,55 592,55 592,65 586,65 581,60 "  />
</g>
<g id="a2_0034"  >
<polygon style="stroke:black; stroke-width:1; fill:grey; " points="592,60 597,55 597,55 597,65 597,65 592,60 "  />
</g>
<g id="a2_0035"  >
<polygon style="stroke:black; stroke-width:1; fill:grey; " points="597,60 601,55 601,65 597,60 "  />
</g>
<g id="a2_0036"  >
<polygon style="stroke:black; stroke-width:1; fill:grey; " points="601,60 606,55 613,55 613,65 606,65 601,60 "  />
</g>
<g id="a2_0037"  >
<polygon style="stroke:black; stroke-width:1; fill:grey; " points="614,60 618,55 618,65 614,60 "  />
</g>
<g id="a2_0038"  >
<polygon style="stroke:black; stroke-width:1; fill:grey; " points="618,60 623,55 627,55 627,65 623,65 618,60 "  />
</g>
<g id="a2_0039"  >
<polygon style="stroke:black; stroke-width:1; fill:grey; " points="627,60 632,55 636,55 636,65 632,65 627,60 "  />
</g>
<g id="a2_0040"  >
<polygon style="stroke:black; stroke-width:1; fill:grey; " points="637,60 641,55 641,65 637,60 "  />
</g>
<g id="a2_0041"  >
<polygon style="stroke:black; stroke-width:1; fill:grey; " points="664,65 666,65 671,60 666,55 664,55 664,65 "  />
</g>
<g id="a2_0042"  >
<polygon style="stroke:black; stroke-width:1; fill:grey; " points="673,65 675,65 680,60 675,55 673,55 673,65 "  />
</g>
<g id="a2_0043"  >
<polygon style="stroke:black; stroke-width:1; fill:grey; " points="681,65 684,60 681,55 681,65 "  />
</g>
<g id="a2_0044"  >
<polygon style="stroke:black; stroke-width:1; fill:grey; " points="684,65 698,65 703,60 698,55 684,55 684,65 "  />
</g>
<g id="a2_0045"  >
<polygon style="stroke:black; stroke-width:1; fill:grey; " points="703,65 709,65 714,60 709,55 703,55 703,65 "  />
</g>
<g id="a2_0046"  >
<polygon style="stroke:black; stroke-width:1; fill:grey; " points="714,65 717,65 722,60 717,55 714,55 714,65 "  />
</g>
<g id="a2_0047"  >
<polygon style="stroke:black; stroke-width:1; fill:grey; " points="726,65 733,65 738,60 733,55 726,55 726,65 "  />
</g>
<g id="a2_0048"  >
<polygon style="stroke:black; stroke-width:1; fill:grey; " points="744,60 749,55 754,55 754,65 749,65 744,60 "  />
</g>
<g id="a2_0049"  >
<polygon style="stroke:black; stroke-width:1; fill:grey; " points="761,60 766,55 778,55 778,65 766,65 761,60 "  />
</g>
<g  >
<line y1="0" x2="186.346593147" style="stroke:grey; stroke-width:1; " x1="10" y2="0"  />
</g>
<g id="b2_000"  >
<defs  >
<linearGradient id="A_domain2_1"  >
<stop stop-color="#56157F" stop-opacity="1" offset="0%"  />
<stop stop-color="#BE81F7" stop-opacity="1" offset="100%"  />
</linearGradient>
</defs>
<defs  >
<linearGradient id="A_line2_1"  >
<stop stop-color="#BE81F7" stop-opacity="1" offset="0%"  />
<stop stop-color="#56157F" stop-opacity="1" offset="100%"  />
</linearGradient>
</defs>
<rect style="stroke:url(#A_line2_1); stroke-width:1; fill:url(#A_domain2_1); " rx="8" height="15" width="128.252067743" y="-8" x="30.5687278456"  />
<text style="font-size:12px; font-family:MS Reference Sans Serif; font-weight:bold; " y="4" x="84.6947617172" fill="#1B0A2A"  >
A</text>
<line y1="60" x2="778.0" style="stroke:grey; stroke-width:1; " x1="10" y2="60"  />
</g>
<g id="b2_000"  >
<defs  >
<linearGradient id="A_domain2_1"  >
<stop stop-color="#56157F" stop-opacity="1" offset="0%"  />
<stop stop-color="#BE81F7" stop-opacity="1" offset="100%"  />
</linearGradient>
</defs>
<defs  >
<linearGradient id="A_line2_1"  >
<stop stop-color="#BE81F7" stop-opacity="1" offset="0%"  />
<stop stop-color="#56157F" stop-opacity="1" offset="100%"  />
</linearGradient>
</defs>
<rect style="stroke:url(#A_line2_1); stroke-width:1; fill:url(#A_domain2_1); " rx="8" height="15" width="128.252067743" y="-8" x="30.5687278456"  />
<text style="font-size:12px; font-family:MS Reference Sans Serif; font-weight:bold; " y="4" x="84.6947617172" fill="#1B0A2A"  >
A</text>
<line y1="60" x2="778.0" style="stroke:grey; stroke-width:1; " x1="10" y2="60"  />
</g>
<g id="b2_001"  >
<defs  >
<linearGradient id="C_domain2_1"  >
<stop stop-color="#393989" stop-opacity="1" offset="0%"  />
<stop stop-color="#8181F7" stop-opacity="1" offset="100%"  />
</linearGradient>
</defs>
<defs  >
<linearGradient id="C_line2_1"  >
<stop stop-color="#8181F7" stop-opacity="1" offset="0%"  />
<stop stop-color="#393989" stop-opacity="1" offset="100%"  />
</linearGradient>
</defs>
<rect style="stroke:url(#C_line2_1); stroke-width:1; fill:url(#C_domain2_1); " rx="8" height="15" width="99.2138637259" y="52" x="15.7471445451"  />
<text style="font-size:8px; font-family:MS Reference Sans Serif; font-weight:bold; " y="63" x="55.354076408" fill="#0A0A2A"  >
C</text>
</g>
<g id="b2_002"  >
<defs  >
<linearGradient id="A_domain2_2"  >
<stop stop-color="#56157F" stop-opacity="1" offset="0%"  />
<stop stop-color="#BE81F7" stop-opacity="1" offset="100%"  />
</linearGradient>
</defs>
<defs  >
<linearGradient id="A_line2_2"  >
<stop stop-color="#BE81F7" stop-opacity="1" offset="0%"  />
<stop stop-color="#56157F" stop-opacity="1" offset="100%"  />
</linearGradient>
</defs>
<rect style="stroke:url(#A_line2_2); stroke-width:1; fill:url(#A_domain2_2); " rx="8" height="15" width="123.714848365" y="52" x="179.389523434"  />
<text style="font-size:12px; font-family:MS Reference Sans Serif; font-weight:bold; " y="64" x="231.246947617" fill="#1B0A2A"  >
A</text>
</g>
<g id="b2_003"  >
<defs  >
<linearGradient id="PCP_domain2_1"  >
<stop stop-color="#084BC6" stop-opacity="1" offset="0%"  />
<stop stop-color="#81BEF7" stop-opacity="1" offset="100%"  />
</linearGradient>
</defs>
<defs  >
<linearGradient id="PCP_line2_1"  >
<stop stop-color="#81BEF7" stop-opacity="1" offset="0%"  />
<stop stop-color="#084BC6" stop-opacity="1" offset="100%"  />
</linearGradient>
</defs>
<rect style="stroke:url(#PCP_line2_1); stroke-width:1; fill:url(#PCP_domain2_1); " rx="8" height="15" width="19.3588026782" y="52" x="348.476565577"  />
</g>
<g id="b2_004"  >
<defs  >
<linearGradient id="C_domain2_2"  >
<stop stop-color="#393989" stop-opacity="1" offset="0%"  />
<stop stop-color="#8181F7" stop-opacity="1" offset="100%"  />
</linearGradient>
</defs>
<defs  >
<linearGradient id="C_line2_2"  >
<stop stop-color="#8181F7" stop-opacity="1" offset="0%"  />
<stop stop-color="#393989" stop-opacity="1" offset="100%"  />
</linearGradient>
</defs>
<rect style="stroke:url(#C_line2_2); stroke-width:1; fill:url(#C_domain2_2); " rx="8" height="15" width="99.8188263096" y="52" x="506.371799921"  />
<text style="font-size:8px; font-family:MS Reference Sans Serif; font-weight:bold; " y="63" x="546.281213076" fill="#0A0A2A"  >
C</text>
</g>
<g id="b2_005"  >
<defs  >
<linearGradient id="ACP_domain2_1"  >
<stop stop-color="#084BC6" stop-opacity="1" offset="0%"  />
<stop stop-color="#81BEF7" stop-opacity="1" offset="100%"  />
</linearGradient>
</defs>
<defs  >
<linearGradient id="ACP_line2_1"  >
<stop stop-color="#81BEF7" stop-opacity="1" offset="0%"  />
<stop stop-color="#084BC6" stop-opacity="1" offset="100%"  />
</linearGradient>
</defs>
<rect style="stroke:url(#ACP_line2_1); stroke-width:1; fill:url(#ACP_domain2_1); " rx="8" height="15" width="19.6612839701" y="52" x="670.921622686"  />
</g>
<g id="b2_006"  >
<defs  >
<linearGradient id="TE_domain2_1"  >
<stop stop-color="#750072" stop-opacity="1" offset="0%"  />
<stop stop-color="#F5A9F2" stop-opacity="1" offset="100%"  />
</linearGradient>
</defs>
<defs  >
<linearGradient id="TE_line2_1"  >
<stop stop-color="#F5A9F2" stop-opacity="1" offset="0%"  />
<stop stop-color="#750072" stop-opacity="1" offset="100%"  />
</linearGradient>
</defs>
<rect style="stroke:url(#TE_line2_1); stroke-width:1; fill:url(#TE_domain2_1); " rx="8" height="15" width="48.3970066955" y="52" x="704.194564789"  />
<text style="font-size:8px; font-family:MS Reference Sans Serif; font-weight:bold; " y="63" x="718.393068137" fill="#2A0A29"  >
TE</text>
<line y1="120" x2="36.0133910989" style="stroke:grey; stroke-width:1; " x1="10" y2="120"  />
</g>
<g id="b2_006"  >
<defs  >
<linearGradient id="TE_domain2_1"  >
<stop stop-color="#750072" stop-opacity="1" offset="0%"  />
<stop stop-color="#F5A9F2" stop-opacity="1" offset="100%"  />
</linearGradient>
</defs>
<defs  >
<linearGradient id="TE_line2_1"  >
<stop stop-color="#F5A9F2" stop-opacity="1" offset="0%"  />
<stop stop-color="#750072" stop-opacity="1" offset="100%"  />
</linearGradient>
</defs>
<rect style="stroke:url(#TE_line2_1); stroke-width:1; fill:url(#TE_domain2_1); " rx="8" height="15" width="48.3970066955" y="52" x="704.194564789"  />
<text style="font-size:8px; font-family:MS Reference Sans Serif; font-weight:bold; " y="63" x="718.393068137" fill="#2A0A29"  >
TE</text>
<line y1="120" x2="36.0133910989" style="stroke:grey; stroke-width:1; " x1="10" y2="120"  />
</g>
<g id="b2_007"  >
<defs  >
<linearGradient id="ACP_domain2_2"  >
<stop stop-color="#084BC6" stop-opacity="1" offset="0%"  />
<stop stop-color="#81BEF7" stop-opacity="1" offset="100%"  />
</linearGradient>
</defs>
<defs  >
<linearGradient id="ACP_line2_2"  >
<stop stop-color="#81BEF7" stop-opacity="1" offset="0%"  />
<stop stop-color="#084BC6" stop-opacity="1" offset="100%"  />
</linearGradient>
</defs>
<rect style="stroke:url(#ACP_line2_2); stroke-width:1; fill:url(#ACP_domain2_2); " rx="8" height="15" width="10.5868452147" y="112" x="15.1421819614"  />
<line y1="180" x2="93.4848365498" style="stroke:grey; stroke-width:1; " x1="10" y2="180"  />
</g>
<g id="b2_007"  >
<defs  >
<linearGradient id="ACP_domain2_2"  >
<stop stop-color="#084BC6" stop-opacity="1" offset="0%"  />
<stop stop-color="#81BEF7" stop-opacity="1" offset="100%"  />
</linearGradient>
</defs>
<defs  >
<linearGradient id="ACP_line2_2"  >
<stop stop-color="#81BEF7" stop-opacity="1" offset="0%"  />
<stop stop-color="#084BC6" stop-opacity="1" offset="100%"  />
</linearGradient>
</defs>
<rect style="stroke:url(#ACP_line2_2); stroke-width:1; fill:url(#ACP_domain2_2); " rx="8" height="15" width="10.5868452147" y="112" x="15.1421819614"  />
<line y1="180" x2="93.4848365498" style="stroke:grey; stroke-width:1; " x1="10" y2="180"  />
</g>
<g id="b2_008"  >
<defs  >
<linearGradient id="KR_domain2_1"  >
<stop stop-color="#089E4B" stop-opacity="1" offset="0%"  />
<stop stop-color="#81F781" stop-opacity="1" offset="100%"  />
</linearGradient>
</defs>
<defs  >
<linearGradient id="KR_line2_1"  >
<stop stop-color="#81F781" stop-opacity="1" offset="0%"  />
<stop stop-color="#089E4B" stop-opacity="1" offset="100%"  />
</linearGradient>
</defs>
<rect style="stroke:url(#KR_line2_1); stroke-width:1; fill:url(#KR_domain2_1); " rx="8" height="15" width="52.6317447814" y="172" x="12.7223316266"  />
<text style="font-size:8px; font-family:MS Reference Sans Serif; font-weight:bold; " y="183" x="29.0382040173" fill="#0A2A1B"  >
KR</text>
<line y1="240" x2="202.075620323" style="stroke:grey; stroke-width:1; " x1="10" y2="240"  />
</g>
<g id="b2_008"  >
<defs  >
<linearGradient id="KR_domain2_1"  >
<stop stop-color="#089E4B" stop-opacity="1" offset="0%"  />
<stop stop-color="#81F781" stop-opacity="1" offset="100%"  />
</linearGradient>
</defs>
<defs  >
<linearGradient id="KR_line2_1"  >
<stop stop-color="#81F781" stop-opacity="1" offset="0%"  />
<stop stop-color="#089E4B" stop-opacity="1" offset="100%"  />
</linearGradient>
</defs>
<rect style="stroke:url(#KR_line2_1); stroke-width:1; fill:url(#KR_domain2_1); " rx="8" height="15" width="52.6317447814" y="172" x="12.7223316266"  />
<text style="font-size:8px; font-family:MS Reference Sans Serif; font-weight:bold; " y="183" x="29.0382040173" fill="#0A2A1B"  >
KR</text>
<line y1="240" x2="202.075620323" style="stroke:grey; stroke-width:1; " x1="10" y2="240"  />
</g>
<g id="b2_009"  >
<defs  >
<linearGradient id="A_domain2_3"  >
<stop stop-color="#56157F" stop-opacity="1" offset="0%"  />
<stop stop-color="#BE81F7" stop-opacity="1" offset="100%"  />
</linearGradient>
</defs>
<defs  >
<linearGradient id="A_line2_3"  >
<stop stop-color="#BE81F7" stop-opacity="1" offset="0%"  />
<stop stop-color="#56157F" stop-opacity="1" offset="100%"  />
</linearGradient>
</defs>
<rect style="stroke:url(#A_line2_3); stroke-width:1; fill:url(#A_domain2_3); " rx="8" height="15" width="150.333202048" y="232" x="25.7290271761"  />
<text style="font-size:12px; font-family:MS Reference Sans Serif; font-weight:bold; " y="244" x="90.8956282001" fill="#1B0A2A"  >
A</text>
</g>
<g id="b2_009"  >
<defs  >
<linearGradient id="A_domain2_3"  >
<stop stop-color="#56157F" stop-opacity="1" offset="0%"  />
<stop stop-color="#BE81F7" stop-opacity="1" offset="100%"  />
</linearGradient>
</defs>
<defs  >
<linearGradient id="A_line2_3"  >
<stop stop-color="#BE81F7" stop-opacity="1" offset="0%"  />
<stop stop-color="#56157F" stop-opacity="1" offset="100%"  />
</linearGradient>
</defs>
<rect style="stroke:url(#A_line2_3); stroke-width:1; fill:url(#A_domain2_3); " rx="8" height="15" width="150.333202048" y="232" x="25.7290271761"  />
<text style="font-size:12px; font-family:MS Reference Sans Serif; font-weight:bold; " y="244" x="90.8956282001" fill="#1B0A2A"  >
A</text>
</g>
</svg>
