<svg xmlns="http://www.w3.org/2000/svg" height="380" width="800" version="1.1" y="0" x="0" preserveAspectRatio="none" xmlns:xlink="http://www.w3.org/1999/xlink" viewBox="0 0 800 380"  >
<g class="clusterblast-cluster" label="Query sequence"  >
<text class="clusterblast-acc" y="20" x="5"  >
Query sequence</text>
<line y1="35" x2="778.0" style="stroke:grey; stroke-width:1; " x1="10" y2="35"  />
<polygon style="stroke:black; stroke-width:1; fill:#FFFFFF; " description="ATP-binding cassette domain-containing protein[br]Location: 2201898 - 2202594" locus_tag="WP_077699943.1" class="clusterblast-orf" points="10,40 25,40 30,35 25,30 10,30 10,40 " id="knownclusterblast-3_all_3_0_0"  />
<polygon style="stroke:black; stroke-width:1; fill:#FFFFFF; " description="hypothetical protein[br]Location: 2202595 - 2202851" locus_tag="DG016_RS11085" class="clusterblast-orf" points="30,40 32,40 37,35 32,30 30,30 30,40 " id="knownclusterblast-3_all_3_0_1"  />
<polygon style="stroke:black; stroke-width:1; fill:#FFFFFF; " description="hypothetical protein[br]Location: 2203089 - 2203281" locus_tag="WP_077700230.1" class="clusterblast-orf" points="44,40 45,40 50,35 45,30 44,30 44,40 " id="knownclusterblast-3_all_3_0_2"  />
<polygon style="stroke:black; stroke-width:1; fill:rgb(169,42,42); " description="hypothetical protein[br]Location: 2203713 - 2204451" locus_tag="WP_077699980.1" class="clusterblast-orf" points="62,35 67,30 84,30 84,40 67,40 62,35 " id="knownclusterblast-3_all_3_0_3"  />
<polygon style="stroke:black; stroke-width:1; fill:rgb(42,169,42); " description="hypothetical protein[br]Location: 2204447 - 2205200" locus_tag="WP_070653592.1" class="clusterblast-orf" points="84,35 89,30 106,30 106,40 89,40 84,35 " id="knownclusterblast-3_all_3_0_4"  />
<polygon style="stroke:black; stroke-width:1; fill:rgb(42,169,212); " description="ABC transporter ATP-binding protein[br]Location: 2205200 - 2206109" locus_tag="WP_077699979.1" class="clusterblast-orf" points="106,35 111,30 132,30 132,40 111,40 106,35 " id="knownclusterblast-3_all_3_0_5"  />
<polygon style="stroke:black; stroke-width:1; fill:#FFFFFF; " description="ATP-binding protein[br]Location: 2206417 - 2207299" locus_tag="DG016_RS11110" class="clusterblast-orf" points="141,40 162,40 167,35 162,30 141,30 141,40 " id="knownclusterblast-3_all_3_0_6"  />
<polygon style="stroke:black; stroke-width:1; fill:#FFFFFF; " description="hypothetical protein[br]Location: 2208032 - 2208377" locus_tag="WP_077699977.1" class="clusterblast-orf" points="188,40 193,40 198,35 193,30 188,30 188,40 " id="knownclusterblast-3_all_3_0_7"  />
<polygon style="stroke:black; stroke-width:1; fill:#FFFFFF; " description="replication protein[br]Location: 2209359 - 2210328" locus_tag="WP_077699976.1" class="clusterblast-orf" points="227,35 232,30 255,30 255,40 232,40 227,35 " id="knownclusterblast-3_all_3_0_8"  />
<polygon style="stroke:black; stroke-width:1; fill:#FFFFFF; " description="DUF536 domain-containing protein[br]Location: 2210797 - 2211490" locus_tag="WP_077699975.1" class="clusterblast-orf" points="269,40 284,40 289,35 284,30 269,30 269,40 " id="knownclusterblast-3_all_3_0_9"  />
<polygon style="stroke:black; stroke-width:1; fill:rgb(169,169,42); " description="hypothetical protein[br]Location: 2211894 - 2213088" locus_tag="WP_077699974.1" class="clusterblast-orf" points="301,35 306,30 335,30 335,40 306,40 301,35 " id="knownclusterblast-3_all_3_0_10"  />
<polygon style="stroke:black; stroke-width:1; fill:rgb(169,42,127); " description="hypothetical protein[br]Location: 2213072 - 2215997" locus_tag="WP_077699973.1" class="clusterblast-orf" points="335,35 340,30 420,30 420,40 340,40 335,35 " id="knownclusterblast-3_all_3_0_11"  />
<polygon style="stroke:black; stroke-width:1; fill:rgb(42,42,212); " description="hypothetical protein[br]Location: 2215983 - 2216886" locus_tag="WP_077699972.1" class="clusterblast-orf" points="420,35 425,30 446,30 446,40 425,40 420,35 " id="knownclusterblast-3_all_3_0_12"  />
<polygon style="stroke:black; stroke-width:1; fill:rgb(169,169,212); " description="hypothetical protein[br]Location: 2216953 - 2217124" locus_tag="WP_077699971.1" class="clusterblast-orf" points="448,35 453,30 453,30 453,40 453,40 448,35 " id="knownclusterblast-3_all_3_0_13"  />
<polygon style="stroke:black; stroke-width:1; fill:rgb(42,169,127); " description="hypothetical protein[br]Location: 2217181 - 2217370" locus_tag="WP_077699970.1" class="clusterblast-orf" points="455,35 460,30 460,30 460,40 460,40 455,35 " id="knownclusterblast-3_all_3_0_14"  />
<polygon style="stroke:black; stroke-width:1; fill:rgb(169,42,212); " description="SDR family oxidoreductase[br]Location: 2217444 - 2218188" locus_tag="WP_077699969.1" class="clusterblast-orf" points="462,35 467,30 484,30 484,40 467,40 462,35 " id="knownclusterblast-3_all_3_0_15"  />
<polygon style="stroke:black; stroke-width:1; fill:#FFFFFF; " description="ATP-binding cassette domain-containing protein[br]Location: 2219279 - 2219975" locus_tag="WP_077699968.1" class="clusterblast-orf" points="516,40 531,40 536,35 531,30 516,30 516,40 " id="knownclusterblast-3_all_3_0_16"  />
<polygon style="stroke:black; stroke-width:1; fill:rgb(42,42,127); " description="hypothetical protein[br]Location: 2219976 - 2220750" locus_tag="WP_077699967.1" class="clusterblast-orf" points="536,40 554,40 559,35 554,30 536,30 536,40 " id="knownclusterblast-3_all_3_0_17"  />
<polygon style="stroke:black; stroke-width:1; fill:rgb(169,169,127); " description="recombinase family protein[br]Location: 2221322 - 2221736" locus_tag="WP_077756151.1" class="clusterblast-orf" points="575,35 580,30 587,30 587,40 580,40 575,35 " id="knownclusterblast-3_all_3_0_18"  />
<polygon style="stroke:black; stroke-width:1; fill:#FFFFFF; " description="transporter[br]Location: 2222376 - 2225016" locus_tag="WP_002449922.1" class="clusterblast-orf" points="606,40 678,40 683,35 678,30 606,30 606,40 " id="knownclusterblast-3_all_3_0_19"  />
<polygon style="stroke:black; stroke-width:1; fill:#FFFFFF; " description="ABC transporter substrate-binding protein[br]Location: 2225039 - 2225984" locus_tag="WP_053036055.1" class="clusterblast-orf" points="683,40 706,40 711,35 706,30 683,30 683,40 " id="knownclusterblast-3_all_3_0_20"  />
<polygon style="stroke:black; stroke-width:1; fill:#FFFFFF; " description="TetR/AcrR family transcriptional regulator[br]Location: 2226332 - 2226902" locus_tag="WP_038812901.1" class="clusterblast-orf" points="721,40 733,40 738,35 733,30 721,30 721,40 " id="knownclusterblast-3_all_3_0_21"  />
<polygon style="stroke:black; stroke-width:1; fill:#FFFFFF; " description="type I toxin-antitoxin system Fst family toxin[br]Location: 2227179 - 2227281" locus_tag="WP_002497230.1" class="clusterblast-orf" points="746,35 749,30 749,40 746,35 " id="knownclusterblast-3_all_3_0_22"  />
<polygon style="stroke:black; stroke-width:1; fill:#FFFFFF; " description="glyoxalase[br]Location: 2227852 - 2228269" locus_tag="WP_077699965.1" class="clusterblast-orf" points="765,35 770,30 778,30 778,40 770,40 765,35 " id="knownclusterblast-3_all_3_0_23"  />
</g>
<g class="clusterblast-cluster" description="Epicidin biosynthetic gene cluster (85% of genes show similarity)" label="BGC0000507"  >
<text class="clusterblast-acc" y="70" x="5"  >
<a xlink:href="http://mibig.secondarymetabolites.org/repository/BGC0000507/index.html#cluster-1" target="_blank">BGC0000507</a>: Epicidin biosynthetic gene cluster (85% of genes show similarity)</text>
<line y1="85" x2="778.0" style="stroke:grey; stroke-width:1; " x1="10" y2="85"  />
<polygon style="stroke:black; stroke-width:1; fill:#FFFFFF; " description="transposase[br]Location: 1 - 30" locus_tag="CAA74345.1" id="knownclusterblast-3_all_3_1_0" points="515,90 516,85 515,80 515,90 " class="clusterblast-orf"  />
<polygon style="stroke:black; stroke-width:1; fill:rgb(169,42,212); " description="oxidoreductase[br]Location: 874 - 1617&lt;br&gt;&lt;br&gt;&lt;b&gt;BlastP hit with WP_077699969.1&lt;/b&gt;&lt;br&gt;Percentage identity: 90%&lt;br&gt;Percentage coverage: 100%&lt;br&gt;BLAST bit score: 436&lt;br&gt;E-value: 2.6e-122" locus_tag="CAA74346.1" id="knownclusterblast-3_all_3_1_1" points="469,85 474,80 490,80 490,90 474,90 469,85 " class="clusterblast-orf"  />
<polygon style="stroke:black; stroke-width:1; fill:rgb(42,169,127); " description="EciI_protein[br]Location: 1690 - 1878&lt;br&gt;&lt;br&gt;&lt;b&gt;BlastP hit with WP_077699970.1&lt;/b&gt;&lt;br&gt;Percentage identity: 81%&lt;br&gt;Percentage coverage: 100%&lt;br&gt;BLAST bit score: 96&lt;br&gt;E-value: 1.6e-20" locus_tag="CAA74347.1" id="knownclusterblast-3_all_3_1_2" points="461,85 466,80 467,80 467,90 466,90 461,85 " class="clusterblast-orf"  />
<polygon style="stroke:black; stroke-width:1; fill:rgb(169,169,212); " description="epicidin_280[br]Location: 1940 - 2110&lt;br&gt;&lt;br&gt;&lt;b&gt;BlastP hit with WP_077699971.1&lt;/b&gt;&lt;br&gt;Percentage identity: 82%&lt;br&gt;Percentage coverage: 100%&lt;br&gt;BLAST bit score: 92&lt;br&gt;E-value: 1.2e-19" locus_tag="CAA74348.1" id="knownclusterblast-3_all_3_1_3" points="454,85 459,80 459,80 459,90 459,90 454,85 " class="clusterblast-orf"  />
<polygon style="stroke:black; stroke-width:1; fill:rgb(42,42,212); " description="protease[br]Location: 2194 - 3096&lt;br&gt;&lt;br&gt;&lt;b&gt;BlastP hit with WP_077699972.1&lt;/b&gt;&lt;br&gt;Percentage identity: 81%&lt;br&gt;Percentage coverage: 100%&lt;br&gt;BLAST bit score: 491&lt;br&gt;E-value: 6.3e-139" locus_tag="CAA74349.1" id="knownclusterblast-3_all_3_1_4" points="426,85 431,80 452,80 452,90 431,90 426,85 " class="clusterblast-orf"  />
<polygon style="stroke:black; stroke-width:1; fill:rgb(169,42,127); " description="EciB_protein[br]Location: 3083 - 6013&lt;br&gt;&lt;br&gt;&lt;b&gt;BlastP hit with WP_077699973.1&lt;/b&gt;&lt;br&gt;Percentage identity: 83%&lt;br&gt;Percentage coverage: 100%&lt;br&gt;BLAST bit score: 1618&lt;br&gt;E-value: 0.0" locus_tag="CAA74350.1" id="knownclusterblast-3_all_3_1_5" points="341,85 346,80 426,80 426,90 346,90 341,85 " class="clusterblast-orf"  />
<polygon style="stroke:black; stroke-width:1; fill:rgb(169,169,42); " description="EciC_protein[br]Location: 5998 - 7191&lt;br&gt;&lt;br&gt;&lt;b&gt;BlastP hit with WP_077699974.1&lt;/b&gt;&lt;br&gt;Percentage identity: 93%&lt;br&gt;Percentage coverage: 100%&lt;br&gt;BLAST bit score: 733&lt;br&gt;E-value: 1.6e-211" locus_tag="CAA74351.1" id="knownclusterblast-3_all_3_1_6" points="307,85 312,80 341,80 341,90 312,90 307,85 " class="clusterblast-orf"  />
</g>
<g class="clusterblast-cluster" description="Pep5 biosynthetic gene cluster (71% of genes show similarity)" label="BGC0000543"  >
<text class="clusterblast-acc" y="120" x="5"  >
<a xlink:href="http://mibig.secondarymetabolites.org/repository/BGC0000543/index.html#cluster-1" target="_blank">BGC0000543</a>: Pep5 biosynthetic gene cluster (71% of genes show similarity)</text>
<line y1="135" x2="778.0" style="stroke:grey; stroke-width:1; " x1="10" y2="135"  />
<polygon style="stroke:black; stroke-width:1; fill:#FFFFFF; " description="PepT[br]Location: 88 - 1803" locus_tag="CAA90021.1" id="knownclusterblast-3_all_3_2_0" points="494,140 539,140 544,135 539,130 494,130 494,140 " class="clusterblast-orf"  />
<polygon style="stroke:black; stroke-width:1; fill:rgb(42,169,127); " description="PepI[br]Location: 2028 - 2237&lt;br&gt;&lt;br&gt;&lt;b&gt;BlastP hit with WP_077699970.1&lt;/b&gt;&lt;br&gt;Percentage identity: 54%&lt;br&gt;Percentage coverage: 95%&lt;br&gt;BLAST bit score: 59&lt;br&gt;E-value: 2.1e-09" locus_tag="CAA90022.1" id="knownclusterblast-3_all_3_2_1" points="481,135 486,130 487,130 487,140 486,140 481,135 " class="clusterblast-orf"  />
<polygon style="stroke:black; stroke-width:1; fill:rgb(169,169,212); " description="PepA[br]Location: 2322 - 2504&lt;br&gt;&lt;br&gt;&lt;b&gt;BlastP hit with WP_077699971.1&lt;/b&gt;&lt;br&gt;Percentage identity: 55%&lt;br&gt;Percentage coverage: 107%&lt;br&gt;BLAST bit score: 56&lt;br&gt;E-value: 9.6e-09" locus_tag="CAA90023.1" id="knownclusterblast-3_all_3_2_2" points="473,135 478,130 478,130 478,140 478,140 473,135 " class="clusterblast-orf"  />
<polygon style="stroke:black; stroke-width:1; fill:rgb(42,42,212); " description="PepP[br]Location: 2566 - 3423&lt;br&gt;&lt;br&gt;&lt;b&gt;BlastP hit with WP_077699972.1&lt;/b&gt;&lt;br&gt;Percentage identity: 56%&lt;br&gt;Percentage coverage: 97%&lt;br&gt;BLAST bit score: 312&lt;br&gt;E-value: 6.8e-85" locus_tag="CAA90024.1" id="knownclusterblast-3_all_3_2_3" points="446,135 451,130 471,130 471,140 451,140 446,135 " class="clusterblast-orf"  />
<polygon style="stroke:black; stroke-width:1; fill:rgb(169,42,127); " description="PepB[br]Location: 3410 - 6313&lt;br&gt;&lt;br&gt;&lt;b&gt;BlastP hit with WP_077699973.1&lt;/b&gt;&lt;br&gt;Percentage identity: 56%&lt;br&gt;Percentage coverage: 100%&lt;br&gt;BLAST bit score: 1028&lt;br&gt;E-value: 6e-300" locus_tag="CAA90025.1" id="knownclusterblast-3_all_3_2_4" points="362,135 367,130 447,130 447,140 367,140 362,135 " class="clusterblast-orf"  />
<polygon style="stroke:black; stroke-width:1; fill:rgb(169,169,42); " description="PepC[br]Location: 6310 - 7506&lt;br&gt;&lt;br&gt;&lt;b&gt;BlastP hit with WP_077699974.1&lt;/b&gt;&lt;br&gt;Percentage identity: 58%&lt;br&gt;Percentage coverage: 99%&lt;br&gt;BLAST bit score: 466&lt;br&gt;E-value: 2.9e-131" locus_tag="CAA90026.1" id="knownclusterblast-3_all_3_2_5" points="328,135 333,130 362,130 362,140 333,140 328,135 " class="clusterblast-orf"  />
</g>
<g class="clusterblast-cluster" description="Nukacin ISK-1 biosynthetic gene cluster (42% of genes show similarity)" label="BGC0000539"  >
<text class="clusterblast-acc" y="170" x="5"  >
<a xlink:href="http://mibig.secondarymetabolites.org/repository/BGC0000539/index.html#cluster-1" target="_blank">BGC0000539</a>: Nukacin ISK-1 biosynthetic gene cluster (42% of genes show similarity)</text>
<line y1="185" x2="778.0" style="stroke:grey; stroke-width:1; " x1="10" y2="185"  />
<polygon style="stroke:black; stroke-width:1; fill:#FFFFFF; " description="putative_response_regulator[br]Location: 156 - 899" locus_tag="BAC98758.1" id="knownclusterblast-3_all_3_3_0" points="559,190 576,190 581,185 576,180 559,180 559,190 " class="clusterblast-orf"  />
<polygon style="stroke:black; stroke-width:1; fill:#FFFFFF; " description="NukA[br]Location: 1326 - 1499" locus_tag="BAC98759.1" id="knownclusterblast-3_all_3_3_1" points="542,190 542,190 547,185 542,180 542,180 542,190 " class="clusterblast-orf"  />
<polygon style="stroke:black; stroke-width:1; fill:#FFFFFF; " description="NukM[br]Location: 1901 - 4654" locus_tag="BAC98760.2" id="knownclusterblast-3_all_3_3_2" points="450,185 455,180 530,180 530,190 455,190 450,185 " class="clusterblast-orf"  />
<polygon style="stroke:black; stroke-width:1; fill:#FFFFFF; " description="NukT[br]Location: 4676 - 6760" locus_tag="BAC98761.2" id="knownclusterblast-3_all_3_3_3" points="389,185 394,180 449,180 449,190 394,190 389,185 " class="clusterblast-orf"  />
<polygon style="stroke:black; stroke-width:1; fill:rgb(42,169,212); " description="NukF[br]Location: 6773 - 7648&lt;br&gt;&lt;br&gt;&lt;b&gt;BlastP hit with WP_077699979.1&lt;/b&gt;&lt;br&gt;Percentage identity: 98%&lt;br&gt;Percentage coverage: 95%&lt;br&gt;BLAST bit score: 543&lt;br&gt;E-value: 1.8e-154" locus_tag="BAC98762.1" id="knownclusterblast-3_all_3_3_4" points="363,185 368,180 388,180 388,190 368,190 363,185 " class="clusterblast-orf"  />
<polygon style="stroke:black; stroke-width:1; fill:rgb(42,169,42); " description="NukE[br]Location: 7681 - 8433&lt;br&gt;&lt;br&gt;&lt;b&gt;BlastP hit with WP_070653592.1&lt;/b&gt;&lt;br&gt;Percentage identity: 98%&lt;br&gt;Percentage coverage: 100%&lt;br&gt;BLAST bit score: 448&lt;br&gt;E-value: 6.6e-126" locus_tag="BAC98763.1" id="knownclusterblast-3_all_3_3_5" points="340,185 345,180 362,180 362,190 345,190 340,185 " class="clusterblast-orf"  />
<polygon style="stroke:black; stroke-width:1; fill:rgb(169,42,42); " description="NukG[br]Location: 8430 - 9167&lt;br&gt;&lt;br&gt;&lt;b&gt;BlastP hit with WP_077699980.1&lt;/b&gt;&lt;br&gt;Percentage identity: 96%&lt;br&gt;Percentage coverage: 99%&lt;br&gt;BLAST bit score: 434&lt;br&gt;E-value: 7.4e-122" locus_tag="BAC98764.1" id="knownclusterblast-3_all_3_3_6" points="318,185 323,180 340,180 340,190 323,190 318,185 " class="clusterblast-orf"  />
<polygon style="stroke:black; stroke-width:1; fill:#FFFFFF; " description="NukH[br]Location: 9174 - 9452" locus_tag="BAC98765.2" id="knownclusterblast-3_all_3_3_7" points="310,185 315,180 318,180 318,190 315,190 310,185 " class="clusterblast-orf"  />
<polygon style="stroke:black; stroke-width:1; fill:#FFFFFF; " description="putative_plasmid_replication-associated_protein[br]Location: 9561 - 9761" locus_tag="BAC98766.1" id="knownclusterblast-3_all_3_3_8" points="301,190 302,190 307,185 302,180 301,180 301,190 " class="clusterblast-orf"  />
<polygon style="stroke:black; stroke-width:1; fill:#FFFFFF; " description="putative_plasmid_replication-associated_protein[br]Location: 9767 - 10417" locus_tag="BAC98767.1" id="knownclusterblast-3_all_3_3_9" points="282,190 296,190 301,185 296,180 282,180 282,190 " class="clusterblast-orf"  />
<polygon style="stroke:black; stroke-width:1; fill:#FFFFFF; " description="replication_protein[br]Location: 11192 - 11740" locus_tag="BAC98768.1" id="knownclusterblast-3_all_3_3_10" points="244,185 249,180 259,180 259,190 249,190 244,185 " class="clusterblast-orf"  />
</g>
<g class="clusterblast-cluster" description="Epilancin 15X biosynthetic gene cluster (42% of genes show similarity)" label="BGC0000509"  >
<text class="clusterblast-acc" y="220" x="5"  >
<a xlink:href="http://mibig.secondarymetabolites.org/repository/BGC0000509/index.html#cluster-1" target="_blank">BGC0000509</a>: Epilancin 15X biosynthetic gene cluster (42% of genes show similarity)</text>
<line y1="235" x2="778.0" style="stroke:grey; stroke-width:1; " x1="10" y2="235"  />
<polygon style="stroke:black; stroke-width:1; fill:rgb(169,169,127); " description="recombinase[br]Location: 4196 - 4729&lt;br&gt;&lt;br&gt;&lt;b&gt;BlastP hit with WP_077756151.1&lt;/b&gt;&lt;br&gt;Percentage identity: 49%&lt;br&gt;Percentage coverage: 129%&lt;br&gt;BLAST bit score: 138&lt;br&gt;E-value: 4.7e-33" locus_tag="AFN69429.1" id="knownclusterblast-3_all_3_4_0" points="558,235 563,230 574,230 574,240 563,240 558,235 " class="clusterblast-orf"  />
<polygon style="stroke:black; stroke-width:1; fill:rgb(169,42,212); " description="ElxO[br]Location: 4943 - 5689&lt;br&gt;&lt;br&gt;&lt;b&gt;BlastP hit with WP_077699969.1&lt;/b&gt;&lt;br&gt;Percentage identity: 52%&lt;br&gt;Percentage coverage: 101%&lt;br&gt;BLAST bit score: 247&lt;br&gt;E-value: 2.2e-65" locus_tag="AFN69430.1" id="knownclusterblast-3_all_3_4_1" points="530,240 547,240 552,235 547,230 530,230 530,240 " class="clusterblast-orf"  />
<polygon style="stroke:black; stroke-width:1; fill:#FFFFFF; " description="ElxT[br]Location: 5708 - 7429" locus_tag="AFN69431.1" id="knownclusterblast-3_all_3_4_2" points="480,240 525,240 530,235 525,230 480,230 480,240 " class="clusterblast-orf"  />
<polygon style="stroke:black; stroke-width:1; fill:#FFFFFF; " description="ElxA[br]Location: 7589 - 7756" locus_tag="AFN69432.1" id="knownclusterblast-3_all_3_4_3" points="470,235 475,230 475,230 475,240 475,240 470,235 " class="clusterblast-orf"  />
<polygon style="stroke:black; stroke-width:1; fill:#FFFFFF; " description="ElxP[br]Location: 7793 - 8728" locus_tag="AFN69433.1" id="knownclusterblast-3_all_3_4_4" points="442,235 447,230 469,230 469,240 447,240 442,235 " class="clusterblast-orf"  />
<polygon style="stroke:black; stroke-width:1; fill:#FFFFFF; " description="ElxB[br]Location: 8715 - 11675" locus_tag="AFN69434.1" id="knownclusterblast-3_all_3_4_5" points="356,235 361,230 442,230 442,240 361,240 356,235 " class="clusterblast-orf"  />
<polygon style="stroke:black; stroke-width:1; fill:#FFFFFF; " description="ElxC[br]Location: 11693 - 12901" locus_tag="AFN69435.1" id="knownclusterblast-3_all_3_4_6" points="320,235 325,230 355,230 355,240 325,240 320,235 " class="clusterblast-orf"  />
<polygon style="stroke:black; stroke-width:1; fill:#FFFFFF; " description="Elx1[br]Location: 12940 - 13158" locus_tag="AFN69436.1" id="knownclusterblast-3_all_3_4_7" points="313,235 318,230 319,230 319,240 318,240 313,235 " class="clusterblast-orf"  />
<polygon style="stroke:black; stroke-width:1; fill:#FFFFFF; " description="Elx2[br]Location: 13183 - 13908" locus_tag="AFN69437.1" id="knownclusterblast-3_all_3_4_8" points="291,235 296,230 312,230 312,240 296,240 291,235 " class="clusterblast-orf"  />
<polygon style="stroke:black; stroke-width:1; fill:#FFFFFF; " description="Elx3[br]Location: 13937 - 14152" locus_tag="AFN69438.1" id="knownclusterblast-3_all_3_4_9" points="284,235 289,230 290,230 290,240 289,240 284,235 " class="clusterblast-orf"  />
<polygon style="stroke:black; stroke-width:1; fill:rgb(42,42,127); " description="OrdA[br]Location: 14476 - 15261&lt;br&gt;&lt;br&gt;&lt;b&gt;BlastP hit with DG016_RS11085&lt;/b&gt;&lt;br&gt;Percentage identity: 93%&lt;br&gt;Percentage coverage: 81%&lt;br&gt;BLAST bit score: 86&lt;br&gt;E-value: 8.5e-18&lt;br&gt;&lt;br&gt;&lt;b&gt;BlastP hit with WP_077699967.1&lt;/b&gt;&lt;br&gt;Percentage identity: 97%&lt;br&gt;Percentage coverage: 100%&lt;br&gt;BLAST bit score: 457&lt;br&gt;E-value: 8.6e-129" locus_tag="AFN69439.1" id="knownclusterblast-3_all_3_4_10" points="252,240 269,240 274,235 269,230 252,230 252,240 " class="clusterblast-orf"  />
</g>
</svg>
