<svg xmlns="http://www.w3.org/2000/svg" height="230" width="800" version="1.1" y="0" x="0" preserveAspectRatio="none" xmlns:xlink="http://www.w3.org/1999/xlink" viewBox="0 0 800 230"  >
<g class="clusterblast-cluster" label="Query sequence"  >
<text class="clusterblast-acc" y="20" x="5"  >
Query sequence</text>
<line y1="35" x2="778.0" style="stroke:grey; stroke-width:1; " x1="10" y2="35"  />
<polygon style="stroke:black; stroke-width:1; fill:#FFFFFF; " description="ATP-binding cassette domain-containing protein[br]Location: 2201898 - 2202594" locus_tag="WP_077699943.1" class="clusterblast-orf" points="10,40 25,40 30,35 25,30 10,30 10,40 " id="knownclusterblast-3_q3_4_0"  />
<polygon style="stroke:black; stroke-width:1; fill:#FFFFFF; " description="hypothetical protein[br]Location: 2202595 - 2202851" locus_tag="DG016_RS11085" class="clusterblast-orf" points="30,40 32,40 37,35 32,30 30,30 30,40 " id="knownclusterblast-3_q3_4_1"  />
<polygon style="stroke:black; stroke-width:1; fill:#FFFFFF; " description="hypothetical protein[br]Location: 2203089 - 2203281" locus_tag="WP_077700230.1" class="clusterblast-orf" points="44,40 45,40 50,35 45,30 44,30 44,40 " id="knownclusterblast-3_q3_4_2"  />
<polygon style="stroke:black; stroke-width:1; fill:rgb(169,42,42); " description="hypothetical protein[br]Location: 2203713 - 2204451" locus_tag="WP_077699980.1" class="clusterblast-orf" points="62,35 67,30 84,30 84,40 67,40 62,35 " id="knownclusterblast-3_q3_4_3"  />
<polygon style="stroke:black; stroke-width:1; fill:rgb(42,169,42); " description="hypothetical protein[br]Location: 2204447 - 2205200" locus_tag="WP_070653592.1" class="clusterblast-orf" points="84,35 89,30 106,30 106,40 89,40 84,35 " id="knownclusterblast-3_q3_4_4"  />
<polygon style="stroke:black; stroke-width:1; fill:rgb(42,169,212); " description="ABC transporter ATP-binding protein[br]Location: 2205200 - 2206109" locus_tag="WP_077699979.1" class="clusterblast-orf" points="106,35 111,30 132,30 132,40 111,40 106,35 " id="knownclusterblast-3_q3_4_5"  />
<polygon style="stroke:black; stroke-width:1; fill:#FFFFFF; " description="ATP-binding protein[br]Location: 2206417 - 2207299" locus_tag="DG016_RS11110" class="clusterblast-orf" points="141,40 162,40 167,35 162,30 141,30 141,40 " id="knownclusterblast-3_q3_4_6"  />
<polygon style="stroke:black; stroke-width:1; fill:#FFFFFF; " description="hypothetical protein[br]Location: 2208032 - 2208377" locus_tag="WP_077699977.1" class="clusterblast-orf" points="188,40 193,40 198,35 193,30 188,30 188,40 " id="knownclusterblast-3_q3_4_7"  />
<polygon style="stroke:black; stroke-width:1; fill:#FFFFFF; " description="replication protein[br]Location: 2209359 - 2210328" locus_tag="WP_077699976.1" class="clusterblast-orf" points="227,35 232,30 255,30 255,40 232,40 227,35 " id="knownclusterblast-3_q3_4_8"  />
<polygon style="stroke:black; stroke-width:1; fill:#FFFFFF; " description="DUF536 domain-containing protein[br]Location: 2210797 - 2211490" locus_tag="WP_077699975.1" class="clusterblast-orf" points="269,40 284,40 289,35 284,30 269,30 269,40 " id="knownclusterblast-3_q3_4_9"  />
<polygon style="stroke:black; stroke-width:1; fill:rgb(169,169,42); " description="hypothetical protein[br]Location: 2211894 - 2213088" locus_tag="WP_077699974.1" class="clusterblast-orf" points="301,35 306,30 335,30 335,40 306,40 301,35 " id="knownclusterblast-3_q3_4_10"  />
<polygon style="stroke:black; stroke-width:1; fill:rgb(169,42,127); " description="hypothetical protein[br]Location: 2213072 - 2215997" locus_tag="WP_077699973.1" class="clusterblast-orf" points="335,35 340,30 420,30 420,40 340,40 335,35 " id="knownclusterblast-3_q3_4_11"  />
<polygon style="stroke:black; stroke-width:1; fill:rgb(42,42,212); " description="hypothetical protein[br]Location: 2215983 - 2216886" locus_tag="WP_077699972.1" class="clusterblast-orf" points="420,35 425,30 446,30 446,40 425,40 420,35 " id="knownclusterblast-3_q3_4_12"  />
<polygon style="stroke:black; stroke-width:1; fill:rgb(169,169,212); " description="hypothetical protein[br]Location: 2216953 - 2217124" locus_tag="WP_077699971.1" class="clusterblast-orf" points="448,35 453,30 453,30 453,40 453,40 448,35 " id="knownclusterblast-3_q3_4_13"  />
<polygon style="stroke:black; stroke-width:1; fill:rgb(42,169,127); " description="hypothetical protein[br]Location: 2217181 - 2217370" locus_tag="WP_077699970.1" class="clusterblast-orf" points="455,35 460,30 460,30 460,40 460,40 455,35 " id="knownclusterblast-3_q3_4_14"  />
<polygon style="stroke:black; stroke-width:1; fill:rgb(169,42,212); " description="SDR family oxidoreductase[br]Location: 2217444 - 2218188" locus_tag="WP_077699969.1" class="clusterblast-orf" points="462,35 467,30 484,30 484,40 467,40 462,35 " id="knownclusterblast-3_q3_4_15"  />
<polygon style="stroke:black; stroke-width:1; fill:#FFFFFF; " description="ATP-binding cassette domain-containing protein[br]Location: 2219279 - 2219975" locus_tag="WP_077699968.1" class="clusterblast-orf" points="516,40 531,40 536,35 531,30 516,30 516,40 " id="knownclusterblast-3_q3_4_16"  />
<polygon style="stroke:black; stroke-width:1; fill:rgb(42,42,127); " description="hypothetical protein[br]Location: 2219976 - 2220750" locus_tag="WP_077699967.1" class="clusterblast-orf" points="536,40 554,40 559,35 554,30 536,30 536,40 " id="knownclusterblast-3_q3_4_17"  />
<polygon style="stroke:black; stroke-width:1; fill:rgb(169,169,127); " description="recombinase family protein[br]Location: 2221322 - 2221736" locus_tag="WP_077756151.1" class="clusterblast-orf" points="575,35 580,30 587,30 587,40 580,40 575,35 " id="knownclusterblast-3_q3_4_18"  />
<polygon style="stroke:black; stroke-width:1; fill:#FFFFFF; " description="transporter[br]Location: 2222376 - 2225016" locus_tag="WP_002449922.1" class="clusterblast-orf" points="606,40 678,40 683,35 678,30 606,30 606,40 " id="knownclusterblast-3_q3_4_19"  />
<polygon style="stroke:black; stroke-width:1; fill:#FFFFFF; " description="ABC transporter substrate-binding protein[br]Location: 2225039 - 2225984" locus_tag="WP_053036055.1" class="clusterblast-orf" points="683,40 706,40 711,35 706,30 683,30 683,40 " id="knownclusterblast-3_q3_4_20"  />
<polygon style="stroke:black; stroke-width:1; fill:#FFFFFF; " description="TetR/AcrR family transcriptional regulator[br]Location: 2226332 - 2226902" locus_tag="WP_038812901.1" class="clusterblast-orf" points="721,40 733,40 738,35 733,30 721,30 721,40 " id="knownclusterblast-3_q3_4_21"  />
<polygon style="stroke:black; stroke-width:1; fill:#FFFFFF; " description="type I toxin-antitoxin system Fst family toxin[br]Location: 2227179 - 2227281" locus_tag="WP_002497230.1" class="clusterblast-orf" points="746,35 749,30 749,40 746,35 " id="knownclusterblast-3_q3_4_22"  />
<polygon style="stroke:black; stroke-width:1; fill:#FFFFFF; " description="glyoxalase[br]Location: 2227852 - 2228269" locus_tag="WP_077699965.1" class="clusterblast-orf" points="765,35 770,30 778,30 778,40 770,40 765,35 " id="knownclusterblast-3_q3_4_23"  />
</g>
<g class="clusterblast-cluster" description="Epilancin 15X biosynthetic gene cluster (42% of genes show similarity)" label="BGC0000509"  >
<text class="clusterblast-acc" y="70" x="5"  >
<a xlink:href="http://mibig.secondarymetabolites.org/repository/BGC0000509/index.html#cluster-1" target="_blank">BGC0000509</a>: Epilancin 15X biosynthetic gene cluster (42% of genes show similarity)</text>
<line y1="85" x2="778.0" style="stroke:grey; stroke-width:1; " x1="10" y2="85"  />
<polygon style="stroke:black; stroke-width:1; fill:rgb(42,42,127); " description="OrdA[br]Location: 14476 - 15261&lt;br&gt;&lt;br&gt;&lt;b&gt;BlastP hit with DG016_RS11085&lt;/b&gt;&lt;br&gt;Percentage identity: 93%&lt;br&gt;Percentage coverage: 81%&lt;br&gt;BLAST bit score: 86&lt;br&gt;E-value: 8.5e-18&lt;br&gt;&lt;br&gt;&lt;b&gt;BlastP hit with WP_077699967.1&lt;/b&gt;&lt;br&gt;Percentage identity: 97%&lt;br&gt;Percentage coverage: 100%&lt;br&gt;BLAST bit score: 457&lt;br&gt;E-value: 8.6e-129" locus_tag="AFN69439.1" id="knownclusterblast-3_h3_4_0" points="232,90 249,90 254,85 249,80 232,80 232,90 " class="clusterblast-orf"  />
<polygon style="stroke:black; stroke-width:1; fill:#FFFFFF; " description="Elx3[br]Location: 13937 - 14152" locus_tag="AFN69438.1" id="knownclusterblast-3_h3_4_1" points="264,85 269,80 270,80 270,90 269,90 264,85 " class="clusterblast-orf"  />
<polygon style="stroke:black; stroke-width:1; fill:#FFFFFF; " description="Elx2[br]Location: 13183 - 13908" locus_tag="AFN69437.1" id="knownclusterblast-3_h3_4_2" points="271,85 276,80 292,80 292,90 276,90 271,85 " class="clusterblast-orf"  />
<polygon style="stroke:black; stroke-width:1; fill:#FFFFFF; " description="Elx1[br]Location: 12940 - 13158" locus_tag="AFN69436.1" id="knownclusterblast-3_h3_4_3" points="293,85 298,80 299,80 299,90 298,90 293,85 " class="clusterblast-orf"  />
<polygon style="stroke:black; stroke-width:1; fill:#FFFFFF; " description="ElxC[br]Location: 11693 - 12901" locus_tag="AFN69435.1" id="knownclusterblast-3_h3_4_4" points="300,85 305,80 335,80 335,90 305,90 300,85 " class="clusterblast-orf"  />
<polygon style="stroke:black; stroke-width:1; fill:#FFFFFF; " description="ElxB[br]Location: 8715 - 11675" locus_tag="AFN69434.1" id="knownclusterblast-3_h3_4_5" points="336,85 341,80 422,80 422,90 341,90 336,85 " class="clusterblast-orf"  />
<polygon style="stroke:black; stroke-width:1; fill:#FFFFFF; " description="ElxP[br]Location: 7793 - 8728" locus_tag="AFN69433.1" id="knownclusterblast-3_h3_4_6" points="422,85 427,80 449,80 449,90 427,90 422,85 " class="clusterblast-orf"  />
<polygon style="stroke:black; stroke-width:1; fill:#FFFFFF; " description="ElxA[br]Location: 7589 - 7756" locus_tag="AFN69432.1" id="knownclusterblast-3_h3_4_7" points="450,85 455,80 455,80 455,90 455,90 450,85 " class="clusterblast-orf"  />
<polygon style="stroke:black; stroke-width:1; fill:#FFFFFF; " description="ElxT[br]Location: 5708 - 7429" locus_tag="AFN69431.1" id="knownclusterblast-3_h3_4_8" points="460,90 505,90 510,85 505,80 460,80 460,90 " class="clusterblast-orf"  />
<polygon style="stroke:black; stroke-width:1; fill:rgb(169,42,212); " description="ElxO[br]Location: 4943 - 5689&lt;br&gt;&lt;br&gt;&lt;b&gt;BlastP hit with WP_077699969.1&lt;/b&gt;&lt;br&gt;Percentage identity: 52%&lt;br&gt;Percentage coverage: 101%&lt;br&gt;BLAST bit score: 247&lt;br&gt;E-value: 2.2e-65" locus_tag="AFN69430.1" id="knownclusterblast-3_h3_4_9" points="510,90 527,90 532,85 527,80 510,80 510,90 " class="clusterblast-orf"  />
<polygon style="stroke:black; stroke-width:1; fill:rgb(169,169,127); " description="recombinase[br]Location: 4196 - 4729&lt;br&gt;&lt;br&gt;&lt;b&gt;BlastP hit with WP_077756151.1&lt;/b&gt;&lt;br&gt;Percentage identity: 49%&lt;br&gt;Percentage coverage: 129%&lt;br&gt;BLAST bit score: 138&lt;br&gt;E-value: 4.7e-33" locus_tag="AFN69429.1" id="knownclusterblast-3_h3_4_10" points="538,85 543,80 554,80 554,90 543,90 538,85 " class="clusterblast-orf"  />
</g>
</svg>
