<svg xmlns="http://www.w3.org/2000/svg" height="230" width="800" version="1.1" y="0" x="0" preserveAspectRatio="none" xmlns:xlink="http://www.w3.org/1999/xlink" viewBox="0 0 800 230"  >
<g class="clusterblast-cluster" label="Query sequence"  >
<text class="clusterblast-acc" y="20" x="5"  >
Query sequence</text>
<line y1="35" x2="778.0" style="stroke:grey; stroke-width:1; " x1="10" y2="35"  />
<polygon style="stroke:black; stroke-width:1; fill:#FFFFFF; " description="ATP-binding cassette domain-containing protein[br]Location: 2201898 - 2202594" locus_tag="WP_077699943.1" class="clusterblast-orf" points="10,40 25,40 30,35 25,30 10,30 10,40 " id="knownclusterblast-3_q3_2_0"  />
<polygon style="stroke:black; stroke-width:1; fill:#FFFFFF; " description="hypothetical protein[br]Location: 2202595 - 2202851" locus_tag="DG016_RS11085" class="clusterblast-orf" points="30,40 32,40 37,35 32,30 30,30 30,40 " id="knownclusterblast-3_q3_2_1"  />
<polygon style="stroke:black; stroke-width:1; fill:#FFFFFF; " description="hypothetical protein[br]Location: 2203089 - 2203281" locus_tag="WP_077700230.1" class="clusterblast-orf" points="44,40 45,40 50,35 45,30 44,30 44,40 " id="knownclusterblast-3_q3_2_2"  />
<polygon style="stroke:black; stroke-width:1; fill:rgb(169,42,42); " description="hypothetical protein[br]Location: 2203713 - 2204451" locus_tag="WP_077699980.1" class="clusterblast-orf" points="62,35 67,30 84,30 84,40 67,40 62,35 " id="knownclusterblast-3_q3_2_3"  />
<polygon style="stroke:black; stroke-width:1; fill:rgb(42,169,42); " description="hypothetical protein[br]Location: 2204447 - 2205200" locus_tag="WP_070653592.1" class="clusterblast-orf" points="84,35 89,30 106,30 106,40 89,40 84,35 " id="knownclusterblast-3_q3_2_4"  />
<polygon style="stroke:black; stroke-width:1; fill:rgb(42,169,212); " description="ABC transporter ATP-binding protein[br]Location: 2205200 - 2206109" locus_tag="WP_077699979.1" class="clusterblast-orf" points="106,35 111,30 132,30 132,40 111,40 106,35 " id="knownclusterblast-3_q3_2_5"  />
<polygon style="stroke:black; stroke-width:1; fill:#FFFFFF; " description="ATP-binding protein[br]Location: 2206417 - 2207299" locus_tag="DG016_RS11110" class="clusterblast-orf" points="141,40 162,40 167,35 162,30 141,30 141,40 " id="knownclusterblast-3_q3_2_6"  />
<polygon style="stroke:black; stroke-width:1; fill:#FFFFFF; " description="hypothetical protein[br]Location: 2208032 - 2208377" locus_tag="WP_077699977.1" class="clusterblast-orf" points="188,40 193,40 198,35 193,30 188,30 188,40 " id="knownclusterblast-3_q3_2_7"  />
<polygon style="stroke:black; stroke-width:1; fill:#FFFFFF; " description="replication protein[br]Location: 2209359 - 2210328" locus_tag="WP_077699976.1" class="clusterblast-orf" points="227,35 232,30 255,30 255,40 232,40 227,35 " id="knownclusterblast-3_q3_2_8"  />
<polygon style="stroke:black; stroke-width:1; fill:#FFFFFF; " description="DUF536 domain-containing protein[br]Location: 2210797 - 2211490" locus_tag="WP_077699975.1" class="clusterblast-orf" points="269,40 284,40 289,35 284,30 269,30 269,40 " id="knownclusterblast-3_q3_2_9"  />
<polygon style="stroke:black; stroke-width:1; fill:rgb(169,169,42); " description="hypothetical protein[br]Location: 2211894 - 2213088" locus_tag="WP_077699974.1" class="clusterblast-orf" points="301,35 306,30 335,30 335,40 306,40 301,35 " id="knownclusterblast-3_q3_2_10"  />
<polygon style="stroke:black; stroke-width:1; fill:rgb(169,42,127); " description="hypothetical protein[br]Location: 2213072 - 2215997" locus_tag="WP_077699973.1" class="clusterblast-orf" points="335,35 340,30 420,30 420,40 340,40 335,35 " id="knownclusterblast-3_q3_2_11"  />
<polygon style="stroke:black; stroke-width:1; fill:rgb(42,42,212); " description="hypothetical protein[br]Location: 2215983 - 2216886" locus_tag="WP_077699972.1" class="clusterblast-orf" points="420,35 425,30 446,30 446,40 425,40 420,35 " id="knownclusterblast-3_q3_2_12"  />
<polygon style="stroke:black; stroke-width:1; fill:rgb(169,169,212); " description="hypothetical protein[br]Location: 2216953 - 2217124" locus_tag="WP_077699971.1" class="clusterblast-orf" points="448,35 453,30 453,30 453,40 453,40 448,35 " id="knownclusterblast-3_q3_2_13"  />
<polygon style="stroke:black; stroke-width:1; fill:rgb(42,169,127); " description="hypothetical protein[br]Location: 2217181 - 2217370" locus_tag="WP_077699970.1" class="clusterblast-orf" points="455,35 460,30 460,30 460,40 460,40 455,35 " id="knownclusterblast-3_q3_2_14"  />
<polygon style="stroke:black; stroke-width:1; fill:rgb(169,42,212); " description="SDR family oxidoreductase[br]Location: 2217444 - 2218188" locus_tag="WP_077699969.1" class="clusterblast-orf" points="462,35 467,30 484,30 484,40 467,40 462,35 " id="knownclusterblast-3_q3_2_15"  />
<polygon style="stroke:black; stroke-width:1; fill:#FFFFFF; " description="ATP-binding cassette domain-containing protein[br]Location: 2219279 - 2219975" locus_tag="WP_077699968.1" class="clusterblast-orf" points="516,40 531,40 536,35 531,30 516,30 516,40 " id="knownclusterblast-3_q3_2_16"  />
<polygon style="stroke:black; stroke-width:1; fill:rgb(42,42,127); " description="hypothetical protein[br]Location: 2219976 - 2220750" locus_tag="WP_077699967.1" class="clusterblast-orf" points="536,40 554,40 559,35 554,30 536,30 536,40 " id="knownclusterblast-3_q3_2_17"  />
<polygon style="stroke:black; stroke-width:1; fill:rgb(169,169,127); " description="recombinase family protein[br]Location: 2221322 - 2221736" locus_tag="WP_077756151.1" class="clusterblast-orf" points="575,35 580,30 587,30 587,40 580,40 575,35 " id="knownclusterblast-3_q3_2_18"  />
<polygon style="stroke:black; stroke-width:1; fill:#FFFFFF; " description="transporter[br]Location: 2222376 - 2225016" locus_tag="WP_002449922.1" class="clusterblast-orf" points="606,40 678,40 683,35 678,30 606,30 606,40 " id="knownclusterblast-3_q3_2_19"  />
<polygon style="stroke:black; stroke-width:1; fill:#FFFFFF; " description="ABC transporter substrate-binding protein[br]Location: 2225039 - 2225984" locus_tag="WP_053036055.1" class="clusterblast-orf" points="683,40 706,40 711,35 706,30 683,30 683,40 " id="knownclusterblast-3_q3_2_20"  />
<polygon style="stroke:black; stroke-width:1; fill:#FFFFFF; " description="TetR/AcrR family transcriptional regulator[br]Location: 2226332 - 2226902" locus_tag="WP_038812901.1" class="clusterblast-orf" points="721,40 733,40 738,35 733,30 721,30 721,40 " id="knownclusterblast-3_q3_2_21"  />
<polygon style="stroke:black; stroke-width:1; fill:#FFFFFF; " description="type I toxin-antitoxin system Fst family toxin[br]Location: 2227179 - 2227281" locus_tag="WP_002497230.1" class="clusterblast-orf" points="746,35 749,30 749,40 746,35 " id="knownclusterblast-3_q3_2_22"  />
<polygon style="stroke:black; stroke-width:1; fill:#FFFFFF; " description="glyoxalase[br]Location: 2227852 - 2228269" locus_tag="WP_077699965.1" class="clusterblast-orf" points="765,35 770,30 778,30 778,40 770,40 765,35 " id="knownclusterblast-3_q3_2_23"  />
</g>
<g class="clusterblast-cluster" description="Pep5 biosynthetic gene cluster (71% of genes show similarity)" label="BGC0000543"  >
<text class="clusterblast-acc" y="70" x="5"  >
<a xlink:href="http://mibig.secondarymetabolites.org/repository/BGC0000543/index.html#cluster-1" target="_blank">BGC0000543</a>: Pep5 biosynthetic gene cluster (71% of genes show similarity)</text>
<line y1="85" x2="778.0" style="stroke:grey; stroke-width:1; " x1="10" y2="85"  />
<polygon style="stroke:black; stroke-width:1; fill:rgb(169,169,42); " description="PepC[br]Location: 6310 - 7506&lt;br&gt;&lt;br&gt;&lt;b&gt;BlastP hit with WP_077699974.1&lt;/b&gt;&lt;br&gt;Percentage identity: 58%&lt;br&gt;Percentage coverage: 99%&lt;br&gt;BLAST bit score: 466&lt;br&gt;E-value: 2.9e-131" locus_tag="CAA90026.1" id="knownclusterblast-3_h3_2_0" points="285,85 290,80 319,80 319,90 290,90 285,85 " class="clusterblast-orf"  />
<polygon style="stroke:black; stroke-width:1; fill:rgb(169,42,127); " description="PepB[br]Location: 3410 - 6313&lt;br&gt;&lt;br&gt;&lt;b&gt;BlastP hit with WP_077699973.1&lt;/b&gt;&lt;br&gt;Percentage identity: 56%&lt;br&gt;Percentage coverage: 100%&lt;br&gt;BLAST bit score: 1028&lt;br&gt;E-value: 6e-300" locus_tag="CAA90025.1" id="knownclusterblast-3_h3_2_1" points="319,85 324,80 404,80 404,90 324,90 319,85 " class="clusterblast-orf"  />
<polygon style="stroke:black; stroke-width:1; fill:rgb(42,42,212); " description="PepP[br]Location: 2566 - 3423&lt;br&gt;&lt;br&gt;&lt;b&gt;BlastP hit with WP_077699972.1&lt;/b&gt;&lt;br&gt;Percentage identity: 56%&lt;br&gt;Percentage coverage: 97%&lt;br&gt;BLAST bit score: 312&lt;br&gt;E-value: 6.8e-85" locus_tag="CAA90024.1" id="knownclusterblast-3_h3_2_2" points="403,85 408,80 428,80 428,90 408,90 403,85 " class="clusterblast-orf"  />
<polygon style="stroke:black; stroke-width:1; fill:rgb(169,169,212); " description="PepA[br]Location: 2322 - 2504&lt;br&gt;&lt;br&gt;&lt;b&gt;BlastP hit with WP_077699971.1&lt;/b&gt;&lt;br&gt;Percentage identity: 55%&lt;br&gt;Percentage coverage: 107%&lt;br&gt;BLAST bit score: 56&lt;br&gt;E-value: 9.6e-09" locus_tag="CAA90023.1" id="knownclusterblast-3_h3_2_3" points="430,85 435,80 435,80 435,90 435,90 430,85 " class="clusterblast-orf"  />
<polygon style="stroke:black; stroke-width:1; fill:rgb(42,169,127); " description="PepI[br]Location: 2028 - 2237&lt;br&gt;&lt;br&gt;&lt;b&gt;BlastP hit with WP_077699970.1&lt;/b&gt;&lt;br&gt;Percentage identity: 54%&lt;br&gt;Percentage coverage: 95%&lt;br&gt;BLAST bit score: 59&lt;br&gt;E-value: 2.1e-09" locus_tag="CAA90022.1" id="knownclusterblast-3_h3_2_4" points="438,85 443,80 444,80 444,90 443,90 438,85 " class="clusterblast-orf"  />
<polygon style="stroke:black; stroke-width:1; fill:#FFFFFF; " description="PepT[br]Location: 88 - 1803" locus_tag="CAA90021.1" id="knownclusterblast-3_h3_2_5" points="451,90 496,90 501,85 496,80 451,80 451,90 " class="clusterblast-orf"  />
</g>
</svg>
