<svg xmlns="http://www.w3.org/2000/svg" height="270" width="768.0" version="1.1" y="0" x="0" preserveAspectRatio="none" xmlns:xlink="http://www.w3.org/1999/xlink" viewBox="0 -30 819.2 180"  >
<g  >
<line y1="60" x2="778.0" style="stroke:grey; stroke-width:2; " x1="10" y2="60"  />
</g>
<g id="a3_000"  >
<polygon style="stroke:black; stroke-width:1; fill:grey; " points="10,65 25,65 30,60 25,55 10,55 10,65 "  />
</g>
<g id="a3_001"  >
<polygon style="stroke:black; stroke-width:1; fill:grey; " points="30,65 41,65 46,60 41,55 30,55 30,65 "  />
</g>
<g id="a3_002"  >
<polygon style="stroke:black; stroke-width:1; fill:grey; " points="53,60 58,55 66,55 66,65 58,65 53,60 "  />
</g>
<g id="a3_003"  >
<polygon style="stroke:black; stroke-width:1; fill:grey; " points="70,65 77,65 82,60 77,55 70,55 70,65 "  />
</g>
<g id="a3_004"  >
<polygon style="stroke:black; stroke-width:1; fill:grey; " points="83,60 88,55 102,55 102,65 88,65 83,60 "  />
</g>
<g id="a3_005"  >
<polygon style="stroke:black; stroke-width:1; fill:grey; " points="103,60 108,55 116,55 116,65 108,65 103,60 "  />
</g>
<g id="a3_006"  >
<polygon style="stroke:black; stroke-width:1; fill:grey; " points="116,60 121,55 129,55 129,65 121,65 116,60 "  />
</g>
<g id="a3_007"  >
<polygon style="stroke:black; stroke-width:1; fill:grey; " points="129,60 134,55 142,55 142,65 134,65 129,60 "  />
</g>
<g id="a3_008"  >
<polygon style="stroke:black; stroke-width:1; fill:grey; " points="142,60 147,55 158,55 158,65 147,65 142,60 "  />
</g>
<g id="a3_009"  >
<polygon style="stroke:black; stroke-width:1; fill:grey; " points="157,60 162,55 181,55 181,65 162,65 157,60 "  />
</g>
<g id="a3_0010"  >
<polygon style="stroke:black; stroke-width:1; fill:grey; " points="187,60 190,55 190,65 187,60 "  />
</g>
<g id="a3_0011"  >
<polygon style="stroke:black; stroke-width:1; fill:grey; " points="190,65 193,60 190,55 190,65 "  />
</g>
<g id="a3_0012"  >
<polygon style="stroke:black; stroke-width:1; fill:grey; " points="193,65 197,65 202,60 197,55 193,55 193,65 "  />
</g>
<g id="a3_0013"  >
<polygon style="stroke:black; stroke-width:1; fill:grey; " points="212,65 213,65 218,60 213,55 212,55 212,65 "  />
</g>
<g id="a3_0014"  >
<polygon style="stroke:black; stroke-width:1; fill:grey; " points="224,60 229,55 231,55 231,65 229,65 224,60 "  />
</g>
<g id="a3_0015"  >
<polygon style="stroke:black; stroke-width:1; fill:grey; " points="234,60 238,55 238,65 234,60 "  />
</g>
<g id="a3_0016"  >
<polygon style="stroke:black; stroke-width:1; fill:grey; " points="238,60 243,55 247,55 247,65 243,65 238,60 "  />
</g>
<g id="a3_0017"  >
<polygon style="stroke:black; stroke-width:1; fill:grey; " points="253,60 258,55 266,55 266,65 258,65 253,60 "  />
</g>
<g id="a3_0018"  >
<polygon style="stroke:black; stroke-width:1; fill:grey; " points="269,60 272,55 272,65 269,60 "  />
</g>
<g id="a3_0019"  >
<polygon style="stroke:black; stroke-width:1; fill:grey; " points="273,60 277,55 277,65 273,60 "  />
</g>
<g id="a3_0020"  >
<polygon style="stroke:black; stroke-width:1; fill:grey; " points="278,60 280,55 280,65 278,60 "  />
</g>
<g id="a3_0021"  >
<polygon style="stroke:black; stroke-width:1; fill:grey; " points="287,60 292,55 306,55 306,65 292,65 287,60 "  />
</g>
<g id="a3_0022"  >
<polygon style="stroke:black; stroke-width:1; fill:grey; " points="316,60 321,55 337,55 337,65 321,65 316,60 "  />
</g>
<g id="a3_0023"  >
<polygon style="stroke:black; stroke-width:1; fill:grey; " points="337,60 342,55 349,55 349,65 342,65 337,60 "  />
</g>
<g id="a3_0024"  >
<polygon style="stroke:black; stroke-width:1; fill:#810E15; " points="349,60 354,55 372,55 372,65 354,65 349,60 "  />
</g>
<g id="a3_0025"  >
<polygon style="stroke:black; stroke-width:1; fill:#810E15; " points="377,60 382,55 430,55 430,65 382,65 377,60 "  />
</g>
<g id="a3_0026"  >
<polygon style="stroke:black; stroke-width:1; fill:grey; " points="430,60 435,55 446,55 446,65 435,65 430,60 "  />
</g>
<g id="a3_0027"  >
<polygon style="stroke:black; stroke-width:1; fill:grey; " points="446,60 451,55 463,55 463,65 451,65 446,60 "  />
</g>
<g id="a3_0028"  >
<polygon style="stroke:black; stroke-width:1; fill:grey; " points="466,65 474,65 479,60 474,55 466,55 466,65 "  />
</g>
<g id="a3_0029"  >
<polygon style="stroke:black; stroke-width:1; fill:grey; " points="480,60 485,55 492,55 492,65 485,65 480,60 "  />
</g>
<g id="a3_0030"  >
<polygon style="stroke:black; stroke-width:1; fill:grey; " points="495,65 499,60 495,55 495,65 "  />
</g>
<g id="a3_0031"  >
<polygon style="stroke:black; stroke-width:1; fill:grey; " points="506,60 511,55 519,55 519,65 511,65 506,60 "  />
</g>
<g id="a3_0032"  >
<polygon style="stroke:black; stroke-width:1; fill:grey; " points="519,60 524,55 547,55 547,65 524,65 519,60 "  />
</g>
<g id="a3_0033"  >
<polygon style="stroke:black; stroke-width:1; fill:grey; " points="547,60 552,55 555,55 555,65 552,65 547,60 "  />
</g>
<g id="a3_0034"  >
<polygon style="stroke:black; stroke-width:1; fill:grey; " points="556,60 561,55 565,55 565,65 561,65 556,60 "  />
</g>
<g id="a3_0035"  >
<polygon style="stroke:black; stroke-width:1; fill:grey; " points="565,60 570,55 572,55 572,65 570,65 565,60 "  />
</g>
<g id="a3_0036"  >
<polygon style="stroke:black; stroke-width:1; fill:grey; " points="576,65 580,60 576,55 576,65 "  />
</g>
<g id="a3_0037"  >
<polygon style="stroke:black; stroke-width:1; fill:grey; " points="580,65 584,65 589,60 584,55 580,55 580,65 "  />
</g>
<g id="a3_0038"  >
<polygon style="stroke:black; stroke-width:1; fill:grey; " points="589,65 593,65 598,60 593,55 589,55 589,65 "  />
</g>
<g id="a3_0039"  >
<polygon style="stroke:black; stroke-width:1; fill:grey; " points="600,60 605,55 605,55 605,65 605,65 600,60 "  />
</g>
<g id="a3_0040"  >
<polygon style="stroke:black; stroke-width:1; fill:grey; " points="605,60 610,55 610,55 610,65 610,65 605,60 "  />
</g>
<g id="a3_0041"  >
<polygon style="stroke:black; stroke-width:1; fill:grey; " points="611,60 615,55 615,65 611,60 "  />
</g>
<g id="a3_0042"  >
<polygon style="stroke:black; stroke-width:1; fill:grey; " points="616,60 620,55 620,65 616,60 "  />
</g>
<g id="a3_0043"  >
<polygon style="stroke:black; stroke-width:1; fill:grey; " points="626,65 628,60 626,55 626,65 "  />
</g>
<g id="a3_0044"  >
<polygon style="stroke:black; stroke-width:1; fill:grey; " points="630,65 631,65 636,60 631,55 630,55 630,65 "  />
</g>
<g id="a3_0045"  >
<polygon style="stroke:black; stroke-width:1; fill:grey; " points="638,60 641,55 641,65 638,60 "  />
</g>
<g id="a3_0046"  >
<polygon style="stroke:black; stroke-width:1; fill:grey; " points="641,65 646,65 651,60 646,55 641,55 641,65 "  />
</g>
<g id="a3_0047"  >
<polygon style="stroke:black; stroke-width:1; fill:grey; " points="655,60 660,55 665,55 665,65 660,65 655,60 "  />
</g>
<g id="a3_0048"  >
<polygon style="stroke:black; stroke-width:1; fill:grey; " points="666,60 671,55 675,55 675,65 671,65 666,60 "  />
</g>
<g id="a3_0049"  >
<polygon style="stroke:black; stroke-width:1; fill:grey; " points="675,60 680,55 693,55 693,65 680,65 675,60 "  />
</g>
<g id="a3_0050"  >
<polygon style="stroke:black; stroke-width:1; fill:grey; " points="695,65 712,65 717,60 712,55 695,55 695,65 "  />
</g>
<g id="a3_0051"  >
<polygon style="stroke:black; stroke-width:1; fill:grey; " points="717,60 722,55 727,55 727,65 722,65 717,60 "  />
</g>
<g id="a3_0052"  >
<polygon style="stroke:black; stroke-width:1; fill:grey; " points="729,65 739,65 744,60 739,55 729,55 729,65 "  />
</g>
<g id="a3_0053"  >
<polygon style="stroke:black; stroke-width:1; fill:grey; " points="743,60 748,55 778,55 778,65 748,65 743,60 "  />
</g>
<g  >
<line y1="0" x2="176.318471338" style="stroke:grey; stroke-width:1; " x1="10" y2="0"  />
</g>
<g id="b3_000"  >
<defs  >
<linearGradient id="TE_domain3_1"  >
<stop stop-color="#750072" stop-opacity="1" offset="0%"  />
<stop stop-color="#F5A9F2" stop-opacity="1" offset="100%"  />
</linearGradient>
</defs>
<defs  >
<linearGradient id="TE_line3_1"  >
<stop stop-color="#F5A9F2" stop-opacity="1" offset="0%"  />
<stop stop-color="#750072" stop-opacity="1" offset="100%"  />
</linearGradient>
</defs>
<rect style="stroke:url(#TE_line3_1); stroke-width:1; fill:url(#TE_domain3_1); " rx="8" height="15" width="141.859872611" y="-8" x="22.5787079163"  />
<text style="font-size:12px; font-family:MS Reference Sans Serif; font-weight:bold; " y="4" x="83.508644222" fill="#2A0A29"  >
TE</text>
<line y1="60" x2="348.227479527" style="stroke:grey; stroke-width:1; " x1="10" y2="60"  />
</g>
<g id="b3_000"  >
<defs  >
<linearGradient id="TE_domain3_1"  >
<stop stop-color="#750072" stop-opacity="1" offset="0%"  />
<stop stop-color="#F5A9F2" stop-opacity="1" offset="100%"  />
</linearGradient>
</defs>
<defs  >
<linearGradient id="TE_line3_1"  >
<stop stop-color="#F5A9F2" stop-opacity="1" offset="0%"  />
<stop stop-color="#750072" stop-opacity="1" offset="100%"  />
</linearGradient>
</defs>
<rect style="stroke:url(#TE_line3_1); stroke-width:1; fill:url(#TE_domain3_1); " rx="8" height="15" width="141.859872611" y="-8" x="22.5787079163"  />
<text style="font-size:12px; font-family:MS Reference Sans Serif; font-weight:bold; " y="4" x="83.508644222" fill="#2A0A29"  >
TE</text>
<line y1="60" x2="348.227479527" style="stroke:grey; stroke-width:1; " x1="10" y2="60"  />
</g>
<g id="b3_001"  >
<defs  >
<linearGradient id="A_domain3_1"  >
<stop stop-color="#56157F" stop-opacity="1" offset="0%"  />
<stop stop-color="#BE81F7" stop-opacity="1" offset="100%"  />
</linearGradient>
</defs>
<defs  >
<linearGradient id="A_line3_1"  >
<stop stop-color="#BE81F7" stop-opacity="1" offset="0%"  />
<stop stop-color="#56157F" stop-opacity="1" offset="100%"  />
</linearGradient>
</defs>
<rect style="stroke:url(#A_line3_1); stroke-width:1; fill:url(#A_domain3_1); " rx="8" height="15" width="192.873521383" y="52" x="37.9526842584"  />
<text style="font-size:12px; font-family:MS Reference Sans Serif; font-weight:bold; " y="64" x="124.38944495" fill="#1B0A2A"  >
A</text>
</g>
<g id="b3_002"  >
<defs  >
<linearGradient id="PCP_domain3_1"  >
<stop stop-color="#084BC6" stop-opacity="1" offset="0%"  />
<stop stop-color="#81BEF7" stop-opacity="1" offset="100%"  />
</linearGradient>
</defs>
<defs  >
<linearGradient id="PCP_line3_1"  >
<stop stop-color="#81BEF7" stop-opacity="1" offset="0%"  />
<stop stop-color="#084BC6" stop-opacity="1" offset="100%"  />
</linearGradient>
</defs>
<rect style="stroke:url(#PCP_line3_1); stroke-width:1; fill:url(#PCP_domain3_1); " rx="8" height="15" width="43.3266606005" y="52" x="297.912647862"  />
<text style="font-size:8px; font-family:MS Reference Sans Serif; font-weight:bold; " y="63" x="307.575978162" fill="#0A1B2A"  >
PCP</text>
<line y1="120" x2="778.0" style="stroke:grey; stroke-width:1; " x1="10" y2="120"  />
</g>
<g id="b3_002"  >
<defs  >
<linearGradient id="PCP_domain3_1"  >
<stop stop-color="#084BC6" stop-opacity="1" offset="0%"  />
<stop stop-color="#81BEF7" stop-opacity="1" offset="100%"  />
</linearGradient>
</defs>
<defs  >
<linearGradient id="PCP_line3_1"  >
<stop stop-color="#81BEF7" stop-opacity="1" offset="0%"  />
<stop stop-color="#084BC6" stop-opacity="1" offset="100%"  />
</linearGradient>
</defs>
<rect style="stroke:url(#PCP_line3_1); stroke-width:1; fill:url(#PCP_domain3_1); " rx="8" height="15" width="43.3266606005" y="52" x="297.912647862"  />
<text style="font-size:8px; font-family:MS Reference Sans Serif; font-weight:bold; " y="63" x="307.575978162" fill="#0A1B2A"  >
PCP</text>
<line y1="120" x2="778.0" style="stroke:grey; stroke-width:1; " x1="10" y2="120"  />
</g>
<g id="b3_003"  >
<defs  >
<linearGradient id="A_domain3_2"  >
<stop stop-color="#56157F" stop-opacity="1" offset="0%"  />
<stop stop-color="#BE81F7" stop-opacity="1" offset="100%"  />
</linearGradient>
</defs>
<defs  >
<linearGradient id="A_line3_2"  >
<stop stop-color="#BE81F7" stop-opacity="1" offset="0%"  />
<stop stop-color="#56157F" stop-opacity="1" offset="100%"  />
</linearGradient>
</defs>
<rect style="stroke:url(#A_line3_2); stroke-width:1; fill:url(#A_domain3_2); " rx="8" height="15" width="273.936305732" y="112" x="51.9290263876"  />
<text style="font-size:12px; font-family:MS Reference Sans Serif; font-weight:bold; " y="124" x="178.897179254" fill="#1B0A2A"  >
A</text>
</g>
<g id="b3_004"  >
<defs  >
<linearGradient id="PCP_domain3_2"  >
<stop stop-color="#084BC6" stop-opacity="1" offset="0%"  />
<stop stop-color="#81BEF7" stop-opacity="1" offset="100%"  />
</linearGradient>
</defs>
<defs  >
<linearGradient id="PCP_line3_2"  >
<stop stop-color="#81BEF7" stop-opacity="1" offset="0%"  />
<stop stop-color="#084BC6" stop-opacity="1" offset="100%"  />
</linearGradient>
</defs>
<rect style="stroke:url(#PCP_line3_2); stroke-width:1; fill:url(#PCP_domain3_2); " rx="8" height="15" width="38.4349408553" y="112" x="407.626933576"  />
<text style="font-size:8px; font-family:MS Reference Sans Serif; font-weight:bold; " y="123" x="414.844404004" fill="#0A1B2A"  >
PCP</text>
</g>
<g id="b3_005"  >
<defs  >
<linearGradient id="C_domain3_1"  >
<stop stop-color="#393989" stop-opacity="1" offset="0%"  />
<stop stop-color="#8181F7" stop-opacity="1" offset="100%"  />
</linearGradient>
</defs>
<defs  >
<linearGradient id="C_line3_1"  >
<stop stop-color="#8181F7" stop-opacity="1" offset="0%"  />
<stop stop-color="#393989" stop-opacity="1" offset="100%"  />
</linearGradient>
</defs>
<rect style="stroke:url(#C_line3_1); stroke-width:1; fill:url(#C_domain3_1); " rx="8" height="15" width="204.054595086" y="112" x="468.424021838"  />
<text style="font-size:12px; font-family:MS Reference Sans Serif; font-weight:bold; " y="124" x="560.451319381" fill="#0A0A2A"  >
C</text>
</g>
<g id="b3_005"  >
<defs  >
<linearGradient id="C_domain3_1"  >
<stop stop-color="#393989" stop-opacity="1" offset="0%"  />
<stop stop-color="#8181F7" stop-opacity="1" offset="100%"  />
</linearGradient>
</defs>
<defs  >
<linearGradient id="C_line3_1"  >
<stop stop-color="#8181F7" stop-opacity="1" offset="0%"  />
<stop stop-color="#393989" stop-opacity="1" offset="100%"  />
</linearGradient>
</defs>
<rect style="stroke:url(#C_line3_1); stroke-width:1; fill:url(#C_domain3_1); " rx="8" height="15" width="204.054595086" y="112" x="468.424021838"  />
<text style="font-size:12px; font-family:MS Reference Sans Serif; font-weight:bold; " y="124" x="560.451319381" fill="#0A0A2A"  >
C</text>
</g>
</svg>
