<svg xmlns="http://www.w3.org/2000/svg" height="0" width="768.0" version="1.1" y="0" x="0" preserveAspectRatio="none" xmlns:xlink="http://www.w3.org/1999/xlink" viewBox="0 -30 819.2 0"  >
<g  >
<line y1="60" x2="778.0" style="stroke:grey; stroke-width:2; " x1="10" y2="60"  />
</g>
<g id="a1_000"  >
<polygon style="stroke:black; stroke-width:1; fill:grey; " points="10,60 15,55 84,55 84,65 15,65 10,60 "  />
</g>
<g id="a1_001"  >
<polygon style="stroke:black; stroke-width:1; fill:grey; " points="84,60 89,55 142,55 142,65 89,65 84,60 "  />
</g>
<g id="a1_002"  >
<polygon style="stroke:black; stroke-width:1; fill:grey; " points="150,65 162,65 167,60 162,55 150,55 150,65 "  />
</g>
<g id="a1_003"  >
<polygon style="stroke:black; stroke-width:1; fill:grey; " points="187,65 197,65 202,60 197,55 187,55 187,65 "  />
</g>
<g id="a1_004"  >
<polygon style="stroke:black; stroke-width:1; fill:grey; " points="201,60 206,55 233,55 233,65 206,65 201,60 "  />
</g>
<g id="a1_005"  >
<polygon style="stroke:black; stroke-width:1; fill:grey; " points="234,60 239,55 258,55 258,65 239,65 234,60 "  />
</g>
<g id="a1_006"  >
<polygon style="stroke:black; stroke-width:1; fill:grey; " points="257,60 262,55 283,55 283,65 262,65 257,60 "  />
</g>
<g id="a1_007"  >
<polygon style="stroke:black; stroke-width:1; fill:grey; " points="295,60 300,55 329,55 329,65 300,65 295,60 "  />
</g>
<g id="a1_008"  >
<polygon style="stroke:black; stroke-width:1; fill:grey; " points="331,60 336,55 378,55 378,65 336,65 331,60 "  />
</g>
<g id="a1_009"  >
<polygon style="stroke:black; stroke-width:1; fill:grey; " points="378,60 383,55 401,55 401,65 383,65 378,60 "  />
</g>
<g id="a1_0010"  >
<polygon style="stroke:black; stroke-width:1; fill:#810E15; " points="407,60 412,55 427,55 427,65 412,65 407,60 "  />
</g>
<g id="a1_0011"  >
<polygon style="stroke:black; stroke-width:1; fill:grey; " points="440,65 585,65 590,60 585,55 440,55 440,65 "  />
</g>
<g id="a1_0012"  >
<polygon style="stroke:black; stroke-width:1; fill:grey; " points="592,65 601,65 606,60 601,55 592,55 592,65 "  />
</g>
<g id="a1_0013"  >
<polygon style="stroke:black; stroke-width:1; fill:grey; " points="603,65 669,65 674,60 669,55 603,55 603,65 "  />
</g>
<g id="a1_0014"  >
<polygon style="stroke:black; stroke-width:1; fill:grey; " points="674,60 679,55 721,55 721,65 679,65 674,60 "  />
</g>
<g id="a1_0015"  >
<polygon style="stroke:black; stroke-width:1; fill:grey; " points="724,60 729,55 778,55 778,65 729,65 724,60 "  />
</g>
</svg>
