<svg xmlns="http://www.w3.org/2000/svg" height="90" width="768.0" version="1.1" y="0" x="0" preserveAspectRatio="none" xmlns:xlink="http://www.w3.org/1999/xlink" viewBox="0 -30 819.2 60"  >
<g  >
<line y1="60" x2="778.0" style="stroke:grey; stroke-width:2; " x1="10" y2="60"  />
</g>
<g id="a2_000"  >
<polygon style="stroke:black; stroke-width:1; fill:grey; " points="10,65 55,65 60,60 55,55 10,55 10,65 "  />
</g>
<g id="a2_001"  >
<polygon style="stroke:black; stroke-width:1; fill:grey; " points="66,60 71,55 80,55 80,65 71,65 66,60 "  />
</g>
<g id="a2_002"  >
<polygon style="stroke:black; stroke-width:1; fill:grey; " points="88,65 130,65 135,60 130,55 88,55 88,65 "  />
</g>
<g id="a2_003"  >
<polygon style="stroke:black; stroke-width:1; fill:grey; " points="135,65 179,65 184,60 179,55 135,55 135,65 "  />
</g>
<g id="a2_004"  >
<polygon style="stroke:black; stroke-width:1; fill:grey; " points="225,60 230,55 231,55 231,65 230,65 225,60 "  />
</g>
<g id="a2_005"  >
<polygon style="stroke:black; stroke-width:1; fill:grey; " points="236,60 241,55 244,55 244,65 241,65 236,60 "  />
</g>
<g id="a2_006"  >
<polygon style="stroke:black; stroke-width:1; fill:grey; " points="246,65 247,65 252,60 247,55 246,55 246,65 "  />
</g>
<g id="a2_007"  >
<polygon style="stroke:black; stroke-width:1; fill:grey; " points="256,60 261,55 265,55 265,65 261,65 256,60 "  />
</g>
<g id="a2_008"  >
<polygon style="stroke:black; stroke-width:1; fill:grey; " points="281,65 305,65 310,60 305,55 281,55 281,65 "  />
</g>
<g id="a2_009"  >
<polygon style="stroke:black; stroke-width:1; fill:#810E15; " points="318,65 389,65 394,60 389,55 318,55 318,65 "  />
</g>
<g id="a2_0010"  >
<polygon style="stroke:black; stroke-width:1; fill:#810E15; " points="394,65 416,65 421,60 416,55 394,55 394,65 "  />
</g>
<g id="a2_0011"  >
<polygon style="stroke:black; stroke-width:1; fill:grey; " points="421,65 447,65 452,60 447,55 421,55 421,65 "  />
</g>
<g id="a2_0012"  >
<polygon style="stroke:black; stroke-width:1; fill:#810E15; " points="452,65 486,65 491,60 486,55 452,55 452,65 "  />
</g>
<g id="a2_0013"  >
<polygon style="stroke:black; stroke-width:1; fill:grey; " points="492,65 504,65 509,60 504,55 492,55 492,65 "  />
</g>
<g id="a2_0014"  >
<polygon style="stroke:black; stroke-width:1; fill:grey; " points="509,65 550,65 555,60 550,55 509,55 509,65 "  />
</g>
<g id="a2_0015"  >
<polygon style="stroke:black; stroke-width:1; fill:grey; " points="555,65 570,65 575,60 570,55 555,55 555,65 "  />
</g>
<g id="a2_0016"  >
<polygon style="stroke:black; stroke-width:1; fill:grey; " points="589,65 589,65 594,60 589,55 589,55 589,65 "  />
</g>
<g id="a2_0017"  >
<polygon style="stroke:black; stroke-width:1; fill:grey; " points="605,60 610,55 613,55 613,65 610,65 605,60 "  />
</g>
<g id="a2_0018"  >
<polygon style="stroke:black; stroke-width:1; fill:grey; " points="615,60 620,55 620,55 620,65 620,65 615,60 "  />
</g>
<g id="a2_0019"  >
<polygon style="stroke:black; stroke-width:1; fill:grey; " points="623,65 625,65 630,60 625,55 623,55 623,65 "  />
</g>
<g id="a2_0020"  >
<polygon style="stroke:black; stroke-width:1; fill:grey; " points="633,60 638,55 641,55 641,65 638,65 633,60 "  />
</g>
<g id="a2_0021"  >
<polygon style="stroke:black; stroke-width:1; fill:grey; " points="650,60 655,55 674,55 674,65 655,65 650,60 "  />
</g>
<g id="a2_0022"  >
<polygon style="stroke:black; stroke-width:1; fill:grey; " points="675,60 680,55 683,55 683,65 680,65 675,60 "  />
</g>
<g id="a2_0023"  >
<polygon style="stroke:black; stroke-width:1; fill:grey; " points="682,60 687,55 690,55 690,65 687,65 682,60 "  />
</g>
<g id="a2_0024"  >
<polygon style="stroke:black; stroke-width:1; fill:grey; " points="690,60 695,55 710,55 710,65 695,65 690,60 "  />
</g>
<g id="a2_0025"  >
<polygon style="stroke:black; stroke-width:1; fill:grey; " points="715,65 749,65 754,60 749,55 715,55 715,65 "  />
</g>
<g id="a2_0026"  >
<polygon style="stroke:black; stroke-width:1; fill:grey; " points="758,60 763,55 763,55 763,65 763,65 758,60 "  />
</g>
<g id="a2_0027"  >
<polygon style="stroke:black; stroke-width:1; fill:grey; " points="761,65 763,65 768,60 763,55 761,55 761,65 "  />
</g>
<g id="a2_0028"  >
<polygon style="stroke:black; stroke-width:1; fill:grey; " points="772,60 777,55 778,55 778,65 777,65 772,60 "  />
</g>
<g  >
<line y1="0" x2="778.0" style="stroke:grey; stroke-width:1; " x1="10" y2="0"  />
</g>
<g id="b2_000"  >
<defs  >
<linearGradient id="other_domain2_1"  >
<stop stop-color="#929292" stop-opacity="1" offset="0%"  />
<stop stop-color="#DBDBDB" stop-opacity="1" offset="100%"  />
</linearGradient>
</defs>
<defs  >
<linearGradient id="other_line2_1"  >
<stop stop-color="#DBDBDB" stop-opacity="1" offset="0%"  />
<stop stop-color="#929292" stop-opacity="1" offset="100%"  />
</linearGradient>
</defs>
<rect style="stroke:url(#other_line2_1); stroke-width:1; fill:url(#other_domain2_1); " rx="8" height="15" width="550.031042129" y="-8" x="210.940133038"  />
<text style="font-size:8px; font-family:MS Reference Sans Serif; font-weight:bold; " y="3" x="459.955654102" fill="#0B0B0B"  >
Aminotran__</text>
</g>
<g id="b2_000"  >
<defs  >
<linearGradient id="other_domain2_1"  >
<stop stop-color="#929292" stop-opacity="1" offset="0%"  />
<stop stop-color="#DBDBDB" stop-opacity="1" offset="100%"  />
</linearGradient>
</defs>
<defs  >
<linearGradient id="other_line2_1"  >
<stop stop-color="#DBDBDB" stop-opacity="1" offset="0%"  />
<stop stop-color="#929292" stop-opacity="1" offset="100%"  />
</linearGradient>
</defs>
<rect style="stroke:url(#other_line2_1); stroke-width:1; fill:url(#other_domain2_1); " rx="8" height="15" width="550.031042129" y="-8" x="210.940133038"  />
<text style="font-size:8px; font-family:MS Reference Sans Serif; font-weight:bold; " y="3" x="459.955654102" fill="#0B0B0B"  >
Aminotran__</text>
</g>
</svg>
